<svg data-name="4th-place-medal" xmlns="http://www.w3.org/2000/svg" width="25.104" height="41.851" viewBox="0 0 25.104 41.851">
    <path data-name="패스 1905" d="M85.421 5.858c-.369.328-3.243 6.032-3.243 6.032l-2.138 8.625 8.32-.763s6.921-12.87 7.061-13.168c.25-.541.383-.763-.571-.763s-9.083-.27-9.429.038z" transform="translate(-70.508 -5.528)" style="fill:#176cc7"/>
    <path data-name="패스 1906" d="M78.386 64.11c-.414-.222-12.607-.414-12.894 0a6.277 6.277 0 0 0-.014 2.586c.178.411 4.116 2.2 4.116 2.2l-.075.814a17.994 17.994 0 0 0 2.61.082 15.776 15.776 0 0 0 2.74-.116l.007-.736s3.544-1.724 3.722-1.964c.151-.2.2-2.645-.212-2.867zm-3.63 3.12s.113-.5-.123-.619-4.287-.065-4.608-.048-.322.592-.322.592l-2.552-1.314-.048-.489 9.682.068-.034.462z" transform="translate(-59.165 -50.419)" style="fill:#818181"/>
    <path data-name="패스 1907" d="M87.176 77.835c-.322 0-.506.335-.506.913 0 .541.185 1 .592.961.335-.027.452-.541.421-1-.031-.539-.1-.874-.507-.874z" transform="translate(-75.626 -61.202)" style="fill:#fdffff"/>
    <path data-name="패스 1908" d="M43.965 99.021c0 8.2 7.427 11.608 12.357 11.461 5.744-.171 11.923-4.53 11.413-12.35-.479-7.338-6.658-10.7-12.056-10.667-6.279.047-11.714 4.395-11.714 11.556z" transform="translate(-42.661 -68.635)" style="fill:#818181"/>
    <path data-name="패스 1909" d="M62.233 114.339h-.26a10.631 10.631 0 0 1-6.955-2.963 10.028 10.028 0 0 1-3.059-7.318c.031-6.825 6-9.99 10.045-9.99h.034a10.108 10.108 0 0 1 10.113 10.062 9.512 9.512 0 0 1-2.833 7.164 10.744 10.744 0 0 1-7.085 3.045zM62 95.2c-3.63 0-9 2.97-9.011 8.854a9.169 9.169 0 0 0 9.073 9.114 8.826 8.826 0 0 0 9.066-9.022 9.114 9.114 0 0 0-9.08-8.946c-.01-.007-.038 0-.048 0z" transform="translate(-48.832 -73.731)" style="fill:#585858"/>
    <path data-name="패스 1910" d="M60.278 91.736c-.236-.325-2.655-.233-5.258 2.008-2.586 2.227-2.973 4.69-2.508 4.82.53.147 1.177-2.234 3.411-4.235 2.053-1.83 4.824-1.947 4.355-2.593z" transform="translate(-49.127 -71.826)" style="fill:#fefffa"/>
    <path data-name="패스 1911" d="M115.05 131.453c-.825.116.031 2.586-1.882 5.351-1.659 2.4-3.541 3.267-3.322 3.794.294.7 3.308-1.05 4.7-3.91 1.266-2.588 1.116-5.324.504-5.235z" transform="translate(-93.502 -102.589)" style="fill:#fefffa"/>
    <path data-name="패스 1912" d="M38.251 5.062c-.216.2 8.026 14.875 8.026 14.875a42.784 42.784 0 0 0 4.468.205 36.491 36.491 0 0 0 4.615-.178S48.952 5.21 48.569 5.062c-.188-.075-2.727-.1-5.207-.13a27.706 27.706 0 0 0-5.111.13z" transform="translate(-38.247 -4.91)" style="fill:#2e9df4"/>
    <text data-name="4" transform="translate(9.351 34.124)" style="font-size:13px;font-family:SFCompactText-Bold,SF Compact Text;font-weight:700;letter-spacing:-.005em;fill:#585858"><tspan x="0" y="0">4</tspan></text>
</svg>
