<svg xmlns="http://www.w3.org/2000/svg" width="24.275" height="40.237" viewBox="0 0 24.275 40.237">
    <g data-name="1st-place-medal">
        <path data-name="패스 1887" d="M85.246 5.854c-.357.318-3.137 5.834-3.137 5.834l-2.069 8.343 8.048-.738s6.695-12.45 6.831-12.738c.242-.523.371-.738-.553-.738s-8.786-.261-9.121.036z" transform="translate(-70.819 -5.534)" style="fill:#176cc7"/>
        <path data-name="패스 1888" d="M77.8 64.1c-.4-.215-12.2-.4-12.473 0a4.63 4.63 0 0 0-.093 2.244c.122.215 4.087 2.058 4.087 2.058v.672s.218.526 2.429.526 2.439-.447 2.439-.447l.02-.678s3.472-1.734 3.654-1.886.341-2.274-.06-2.489zm-3.634 2.757s-.01-.463-.238-.579-3.905-.1-4.216-.079-.311.573-.311.573l-2.515-1.224V65.3l9.366.066.017.278z" transform="translate(-59.203 -50.859)" style="fill:#fcc417"/>
        <path data-name="패스 1889" d="M87.16 76.755c-.311 0-.49.324-.49.884 0 .523.179.963.573.93.324-.026.437-.523.407-.963-.03-.523-.096-.851-.49-.851z" transform="translate(-75.987 -60.904)" style="fill:#fdffff"/>
        <path data-name="패스 1890" d="M43.47 96.9c0 7.929 7.168 11.46 11.934 11.292 5.255-.189 11.55-4.286 11.169-11.851-.361-7.168-6.39-10.567-11.613-10.53-6.069.046-11.49 4.166-11.49 11.089z" transform="translate(-42.318 -67.964)" style="fill:#fcc417"/>
        <path data-name="패스 1891" d="M61.688 111.726h-.252a10.283 10.283 0 0 1-6.728-2.866 9.7 9.7 0 0 1-2.959-7.079c.03-6.6 5.8-9.663 9.716-9.663h.035a9.807 9.807 0 0 1 .189 19.611zm-.228-18.513c-3.511 0-8.7 2.873-8.717 8.565a8.869 8.869 0 0 0 8.776 8.816 8.163 8.163 0 0 0 5.987-2.446 8.6 8.6 0 0 0-6-14.939h-.05z" transform="translate(-48.77 -72.875)" style="fill:#fa912c"/>
        <path data-name="패스 1892" d="M59.853 90.438c-.228-.314-2.816-.255-5.262 2.135-2.36 2.307-2.614 4.481-2.161 4.607.513.142 1.138-2.161 3.3-4.1 1.985-1.772 4.579-2.017 4.123-2.642z" transform="translate(-49.156 -71.463)" style="fill:#fefffa"/>
        <path data-name="패스 1893" d="M114.264 129.713c-.8.113.03 2.5-1.82 5.176-1.605 2.32-3.425 3.16-3.213 3.67.285.682 3.2-1.016 4.55-3.783 1.224-2.505 1.079-5.149.483-5.063z" transform="translate(-93.556 -102.176)" style="fill:#fefffa"/>
        <path data-name="패스 1895" d="M38.251 5.057c-.208.192 7.764 14.389 7.764 14.389a41.386 41.386 0 0 0 4.322.2 35.3 35.3 0 0 0 4.464-.172S48.6 5.2 48.232 5.057c-.182-.073-2.638-.1-5.037-.126a26.8 26.8 0 0 0-4.944.126z" transform="translate(-38.247 -4.91)" style="fill:#2e9df4"/>
        <text data-name="1" transform="translate(9.458 31.625)" style="font-size:11px;font-family:SFCompactText-Bold,SF Compact Text;font-weight:700;letter-spacing:-.005em;fill:#fa912c"><tspan x="0" y="0">1</tspan></text>
    </g>
</svg>
