<svg data-name="구성 요소 14 – 3" xmlns="http://www.w3.org/2000/svg" width="32" height="32" viewBox="0 0 32 32">
    <circle data-name="타원 7" cx="16" cy="16" r="16" style="fill:#f2f2f2"/>
    <g data-name="case study피자한조각">
        <g data-name="그룹 67">
            <path data-name="패스 1833" d="M33.5 25.68a13.978 13.978 0 0 0-13.98 13.978H33.5z" transform="translate(-17.457 -23.844)" style="fill:#ebac64"/>
            <path data-name="패스 1834" d="M19.605 25.765H4.52v-.554A14.52 14.52 0 0 1 19.051 10.68h.554zM5.639 24.657H18.5V11.8A13.425 13.425 0 0 0 5.639 24.657z" transform="translate(-3.011 -9.398)" style="fill:#bc6c2b"/>
        </g>
        <g data-name="그룹 68">
            <path data-name="패스 1835" d="M102.955 97.8a11.315 11.315 0 0 0-11.315 11.315h11.315z" transform="translate(-86.915 -93.302)" style="fill:#ffde83"/>
            <path data-name="패스 1836" d="M89.063 95.232H76.64v-.554A11.868 11.868 0 0 1 88.508 82.81h.554v12.423zm-11.3-1.107h10.192V83.931a10.762 10.762 0 0 0-10.193 10.194z" transform="translate(-72.469 -78.865)" style="fill:#bc6c2b"/>
        </g>
        <path data-name="패스 1837" d="M213.167 218.18c-1.768-2.448 2.249-4.609 3.385-1.992a1.984 1.984 0 0 1-3.385 1.992zm.887-.613a.9.9 0 0 0 1.386-1.157.9.9 0 1 0-1.386 1.156z" transform="translate(-203.528 -206.171)" style="fill:#cb3d3f"/>
        <path data-name="패스 1838" d="M321.341 313.255a.587.587 0 0 1-.144-.477 4.23 4.23 0 0 1 .292-.944.535.535 0 0 1 1 .339 4.917 4.917 0 0 1-.317 1.016.554.554 0 0 1-.831.066z" transform="translate(-307.993 -299.168)" style="fill:#7faa3c"/>
        <path data-name="패스 1839" d="M166.808 313.1a.67.67 0 0 1-.066-.189 3.581 3.581 0 0 1 .325-1.172.544.544 0 0 1 .973.385 5.418 5.418 0 0 1-.3.995.533.533 0 0 1-.932-.018z" transform="translate(-159.242 -299.134)" style="fill:#7faa3c"/>
        <path data-name="패스 1840" d="M313.644 173.6a.541.541 0 0 1 .357-.872 5.31 5.31 0 0 1 1.081.273.54.54 0 0 1-.216 1.026 8.182 8.182 0 0 1-1.027-.279.58.58 0 0 1-.2-.148z" transform="translate(-300.609 -165.459)" style="fill:#7faa3c"/>
    </g>
</svg>
