<svg data-name="구성 요소 15 – 2" xmlns="http://www.w3.org/2000/svg" width="32" height="32" viewBox="0 0 32 32">
    <circle data-name="타원 8" cx="16" cy="16" r="16" style="fill:#f2f2f2"/>
    <g data-name="case study피자두조각">
        <g data-name="그룹 63">
            <path data-name="패스 1805" d="M38.218 29.57A13.978 13.978 0 0 0 24.24 43.548H52.2A13.977 13.977 0 0 0 38.218 29.57z" transform="translate(-22.404 -27.734)" style="fill:#ebac64"/>
            <path data-name="패스 1806" d="M38.3 29.655H9.24V29.1a14.531 14.531 0 1 1 29.063 0v.554zm-27.941-1.107h26.825a13.424 13.424 0 0 0-26.825 0z" transform="translate(-7.958 -13.288)" style="fill:#bc6c2b"/>
        </g>
        <g data-name="그룹 64">
            <path data-name="패스 1807" d="M107.675 101.7a11.315 11.315 0 0 0-11.315 11.315h22.63a11.315 11.315 0 0 0-11.315-11.315z" transform="translate(-91.862 -97.202)" style="fill:#ffde83"/>
            <path data-name="패스 1808" d="M105.1 99.113H81.36v-.554a11.868 11.868 0 1 1 23.737 0v.554zm-22.618-1.108h21.495a10.762 10.762 0 0 0-21.495 0z" transform="translate(-77.416 -82.746)" style="fill:#bc6c2b"/>
        </g>
        <path data-name="패스 1809" d="M217.887 222.07c-1.768-2.448 2.249-4.609 3.385-1.992a1.984 1.984 0 0 1-3.385 1.992zm.887-.613a.9.9 0 0 0 1.386-1.157.9.9 0 1 0-1.386 1.157z" transform="translate(-208.475 -210.061)" style="fill:#cb3d3f"/>
        <path data-name="패스 1810" d="M326.061 317.145a.587.587 0 0 1-.144-.477 4.225 4.225 0 0 1 .292-.944.535.535 0 0 1 1 .339 4.911 4.911 0 0 1-.317 1.016.554.554 0 0 1-.831.066z" transform="translate(-312.94 -303.058)" style="fill:#7faa3c"/>
        <path data-name="패스 1811" d="M171.528 317a.669.669 0 0 1-.066-.189 3.581 3.581 0 0 1 .325-1.172.544.544 0 0 1 .973.385 5.419 5.419 0 0 1-.3.995.533.533 0 0 1-.932-.018z" transform="translate(-164.189 -303.034)" style="fill:#7faa3c"/>
        <path data-name="패스 1812" d="M318.364 177.487a.541.541 0 0 1 .357-.872 5.312 5.312 0 0 1 1.081.273.54.54 0 0 1-.216 1.026 8.183 8.183 0 0 1-1.027-.279.579.579 0 0 1-.2-.148z" transform="translate(-305.556 -169.349)" style="fill:#7faa3c"/>
        <path data-name="패스 1813" d="M485.807 223.217c2.448-1.768 4.609 2.249 1.992 3.385a1.984 1.984 0 0 1-1.992-3.385zm.613.887a.9.9 0 0 0 1.157 1.386.9.9 0 1 0-1.158-1.39z" transform="translate(-466.188 -213.805)" style="fill:#cb3d3f"/>
        <path data-name="패스 1814" d="M445.5 331.4a.587.587 0 0 1 .477-.144 4.23 4.23 0 0 1 .944.292.535.535 0 0 1-.339 1 4.912 4.912 0 0 1-1.016-.318.554.554 0 0 1-.066-.83z" transform="translate(-427.965 -318.279)" style="fill:#7faa3c"/>
        <path data-name="패스 1815" d="M445.611 176.858a.669.669 0 0 1 .189-.066 3.581 3.581 0 0 1 1.172.325.544.544 0 0 1-.385.973 5.419 5.419 0 0 1-.995-.3.533.533 0 0 1 .018-.932z" transform="translate(-427.946 -169.519)" style="fill:#7faa3c"/>
        <path data-name="패스 1816" d="M599.626 323.693a.541.541 0 0 1 .872.357 5.3 5.3 0 0 1-.273 1.081.54.54 0 0 1-1.026-.216 8.209 8.209 0 0 1 .279-1.027.581.581 0 0 1 .148-.2z" transform="translate(-576.137 -310.886)" style="fill:#7faa3c"/>
    </g>
</svg>
