<svg data-name="구성 요소 16 – 2" xmlns="http://www.w3.org/2000/svg" width="24" height="24" viewBox="0 0 24 24">
    <circle data-name="타원 9" cx="12" cy="12" r="12" style="fill:#f2f2f2"/>
    <g data-name="case study피자세조각">
        <g data-name="그룹 65">
            <path data-name="패스 1817" d="M50.493 31.863a10.442 10.442 0 1 0-20.883 0 10.462 10.462 0 0 0 10.442 10.483V31.863z" transform="translate(-28.238 -20.004)" style="fill:#ebac64"/>
            <path data-name="패스 1818" d="M25.879 28.177h-.414a10.8 10.8 0 0 1-7.676-3.192A10.916 10.916 0 0 1 21.24 7.237a10.818 10.818 0 0 1 11.9 2.335 10.887 10.887 0 0 1 3.179 7.706v.415h-10.44v10.484zm-.414-20.966A10.076 10.076 0 0 0 18.374 24.4a9.938 9.938 0 0 0 6.677 2.94V16.863h10.434a10.047 10.047 0 0 0-10.02-9.652z" transform="translate(-13.652 -5.419)" style="fill:#bc6c2b"/>
        </g>
        <g data-name="그룹 66">
            <path data-name="패스 1819" d="M118.635 101.986a8.453 8.453 0 1 0-16.905 0 8.47 8.47 0 0 0 8.453 8.486v-8.486z" transform="translate(-98.37 -90.127)" style="fill:#ffde83"/>
            <path data-name="패스 1820" d="M96.02 96.313h-.414a8.909 8.909 0 1 1 8.866-8.9v.415h-8.453v8.486zm-.414-16.973a8.072 8.072 0 0 0-.414 16.131V87h8.442a8.054 8.054 0 0 0-8.029-7.656z" transform="translate(-83.793 -75.552)" style="fill:#bc6c2b"/>
        </g>
        <path data-name="패스 1821" d="M223.145 213.074a1.478 1.478 0 1 1 2.529-1.494 1.478 1.478 0 0 1-2.529 1.494zm.663-.46a.676.676 0 0 0 1.036-.868.676.676 0 1 0-1.036.868z" transform="translate(-216.114 -204.068)" style="fill:#cb3d3f"/>
        <path data-name="패스 1822" d="M331.393 308.531a.442.442 0 0 1-.108-.358 3.183 3.183 0 0 1 .218-.708.4.4 0 0 1 .745.254 3.7 3.7 0 0 1-.237.762.413.413 0 0 1-.618.05z" transform="translate(-321.591 -297.965)" style="fill:#7faa3c"/>
        <path data-name="패스 1823" d="M176.881 308.4a.5.5 0 0 1-.049-.142 2.694 2.694 0 0 1 .243-.879.406.406 0 0 1 .727.288 4.076 4.076 0 0 1-.224.746.4.4 0 0 1-.7-.014z" transform="translate(-171.398 -297.932)" style="fill:#7faa3c"/>
        <path data-name="패스 1824" d="M323.7 169.079a.406.406 0 0 1 .267-.654 3.952 3.952 0 0 1 .808.2.406.406 0 0 1-.161.77 6.085 6.085 0 0 1-.767-.209.433.433 0 0 1-.146-.111z" transform="translate(-314.135 -162.976)" style="fill:#7faa3c"/>
        <path data-name="패스 1825" d="M490.981 214.916a1.48 1.48 0 1 1 1.488 2.539 1.48 1.48 0 0 1-1.488-2.539zm.458.666a.677.677 0 0 0 .865 1.04.677.677 0 1 0-.865-1.041z" transform="translate(-476.326 -207.858)" style="fill:#cb3d3f"/>
        <path data-name="패스 1826" d="M450.835 323.164a.438.438 0 0 1 .357-.108 3.15 3.15 0 0 1 .705.219.4.4 0 0 1-.253.748 3.664 3.664 0 0 1-.759-.238.416.416 0 0 1-.05-.621z" transform="translate(-437.732 -313.323)" style="fill:#7faa3c"/>
        <path data-name="패스 1827" d="M450.909 168.651a.5.5 0 0 1 .141-.05 2.667 2.667 0 0 1 .875.244.408.408 0 0 1-.287.73 4.037 4.037 0 0 1-.743-.225.4.4 0 0 1 .014-.7z" transform="translate(-437.713 -163.147)" style="fill:#7faa3c"/>
        <path data-name="패스 1828" d="M604.888 315.474a.4.4 0 0 1 .652.268 4 4 0 0 1-.2.811.4.4 0 0 1-.767-.162 6.137 6.137 0 0 1 .208-.77.432.432 0 0 1 .111-.147z" transform="translate(-587.341 -305.869)" style="fill:#7faa3c"/>
        <path data-name="패스 1829" d="M221.3 479.617a1.48 1.48 0 1 1-1.488-2.539 1.48 1.48 0 0 1 1.488 2.539zm-.458-.666a.677.677 0 0 0-.865-1.04.677.677 0 1 0 .869 1.04z" transform="translate(-212.333 -462.956)" style="fill:#cb3d3f"/>
        <path data-name="패스 1830" d="M316.755 442.731a.438.438 0 0 1-.357.108 3.153 3.153 0 0 1-.705-.219.4.4 0 0 1 .253-.748 3.657 3.657 0 0 1 .759.238.416.416 0 0 1 .05.621z" transform="translate(-306.232 -428.852)" style="fill:#7faa3c"/>
        <path data-name="패스 1831" d="M316.628 597.084a.5.5 0 0 1-.141.049 2.664 2.664 0 0 1-.875-.244.408.408 0 0 1 .287-.73 4.028 4.028 0 0 1 .743.225.4.4 0 0 1-.014.7z" transform="translate(-306.198 -578.868)" style="fill:#7faa3c"/>
        <path data-name="패스 1832" d="M177.306 435.5a.4.4 0 0 1-.652-.268 4 4 0 0 1 .2-.811.4.4 0 0 1 .767.162 6.15 6.15 0 0 1-.208.77.435.435 0 0 1-.111.147z" transform="translate(-171.227 -421.385)" style="fill:#7faa3c"/>
    </g>
</svg>
