<?xml version="1.0" encoding="UTF-8"?>
<svg id="_레이어_1" data-name="레이어_1" xmlns="http://www.w3.org/2000/svg" viewBox="0 0 500 500">
  <defs>
    <style>
      .cls-1 {
        fill: #cd3d3f;
      }

      .cls-2 {
        fill: #fff;
      }

      .cls-3 {
        fill: #ebac64;
      }
    </style>
  </defs>
  <path class="cls-1" d="M90.5,119.3c4.42,2.32,10.11,11.16,10.11,24.22,0,16.21-9.48,25.27-26.74,25.27s-24.43-10.53-24.43-29.48c0-15.79,6.11-28.01,17.48-35.38-11.79-1.68-16.43-8-16.43-16.21,0-9.06,5.48-16.21,20.43-16.85,1.05,0,2.11-.21,3.16-.21-2.53-2.74-3.16-6.11-3.16-8.63,0-7.58,7.58-13.69,24.64-13.69s25.06,6.11,25.06,13.69c0,2.53-.63,5.69-2.95,8.42,2.32.21,4.84.21,7.58.42,14.95.63,20.22,7.79,20.22,16.85,0,8.21-4.21,14.32-16,16.21,11.37,7.58,17.27,20.22,17.27,35.59,0,17.48-6.11,27.37-18.95,27.37-15.37,0-20.64-10.74-22.11-26.53-1.05-16.64-6.74-22.95-13.27-25.9-1.05-.42-2.53-.84-3.37,1.26-.84,2.32.42,3.16,1.47,3.58ZM97.03,219.74c-21.9-.21-35.17-5.89-36.01-18.95-1.26-13.27,14.74-21.48,39.17-25.06,30.11-4.42,71.39-8.21,99.39-2.74,20.01,4,31.17,12,36.01,19.79,6.53,12,4.84,25.69-3.58,37.27-6.95,10.32-20.85,14.32-42.54,14.74-22.95.63-36.85-5.48-39.38-17.27-2.74-13.06,2.53-20.43,12-29.48,1.68-1.69-2.53-2.95-4.42-1.26-15.58,14.74-37.06,23.37-60.65,22.95ZM191.58,135.72c-.21,2.11-.21,4.42-.42,6.53-1.05,16.64-9.26,24.85-21.27,24.85-12.84,0-21.69-9.69-19.79-28.43,1.69-20.85,1.69-34.53.21-53.28-1.68-20.85,6.74-30.11,19.58-30.11,12,0,20.22,8.21,21.27,24.85.21,2.95.21,6.11.42,9.06l8.21.63c-.21-2.11-.21-4-.42-6.11-1.9-20.85,6.74-30.74,19.79-30.74,11.58,0,20.22,8.42,21.27,25.69,1.05,21.9,1.26,42.33,0,64.23-1.26,17.06-9.69,25.27-21.27,25.27-13.06,0-21.69-9.48-20.01-28.64.21-1.47.42-2.95.42-4.42l-8,.63Z"/>
  <path class="cls-3" d="M272.45,134.67c45.06,2.95,102.97,2.74,149.72,0,12.21-.84,19.58,6.11,19.58,13.69,0,9.48-7.37,14.32-19.79,14.95-46.54,3.37-104.45,3.37-149.51,0-12-.84-19.37-5.48-19.37-14.95,0-7.58,7.37-14.53,19.37-13.69Z"/>
  <path class="cls-3" d="M281.5,201.42c-15.37.84-21.27-6.53-21.27-16.21,0-9.06,5.9-15.58,17.27-14.95,43.17,3.16,96.66,3.16,139.82,0,11.58-.63,17.06,4.63,17.06,12.84,0,6.95-5.26,12.84-12.84,13.06-23.37.42-45.91,6.95-60.65,17.27-2.74,1.9-1.05,6.11,2.32,4,13.06-7.58,28.85-14.53,45.9-15.16,16.85-.21,26.95,7.79,26.95,20.43,0,13.27-10.11,18.95-29.06,20.22-40.85,2.74-86.97,2.32-125.5-.21-14.53-.84-23.16-4.84-23.16-15.79,0-12.63,10.53-19.58,25.27-20.64,13.06-1.26,25.06-2.74,38.33-7.16,2.95-1.05,1.47-6.11-1.47-4.84-12.21,4-25.9,6.53-38.96,7.16Z"/>
  <path class="cls-3" d="M347.41,55.28c-53.7,0-88.02,10.32-88.02,37.48s34.32,37.9,88.02,37.9,87.81-9.48,87.81-37.9-34.32-37.48-87.81-37.48ZM363.21,82.66c-3.58,9.47-12,18.53-21.48,23.58-4.63,2.95-8.21-3.58-5.26-5.26,8.63-5.9,15.37-13.48,20.85-23.16,1.68-3.16,7.58.42,5.9,4.84Z"/>
  <g>
    <path class="cls-1" d="M84.78,382.21c-3.64-26.98-4.02-57.4-1.15-78.45-8.8-2.3-13.2-9.38-13.2-20.09,0-11.86,5.74-19.13,17.03-20.66,19.32-2.68,56.06-3.06,75.58-.96,11.29,1.15,16.84,8.8,16.84,20.86,0,9.95-4.02,16.84-11.86,19.52,3.25,21.43,3.06,53.19-.96,80.93,8.61,2.49,12.82,9.57,12.82,20.09,0,12.25-5.55,19.52-16.84,21.05-19.52,2.1-56.25,1.72-75.58-1.15-11.29-1.53-17.03-8.61-17.03-20.86,0-10.91,4.78-18.18,14.35-20.28ZM123.05,380.68h5.93c1.72-25.64,1.53-46.69-.19-75h-5.74c-1.72,28.13-1.53,49.36,0,75ZM211.83,433.49c-15.5,0-26.02-8.8-23.72-26.02,4.59-41.14,4.59-82.46.19-121.88-2.49-18.94,8.04-27.93,23.53-27.93,13.39,0,23.15,7.65,24.49,23.34,4.21,41.33,4.21,88.01,0,129.53-1.34,15.31-11.1,22.96-24.49,22.96Z"/>
    <path class="cls-1" d="M269.79,304.34c-14.54-1.15-21.05-9.95-21.05-20.09s6.89-19.9,22-20.47c10.91-.57,20.47-.57,31.38-.57s20.47,0,31.38.57c14.73.57,21.81,10.14,21.81,20.47s-6.7,18.75-20.66,20.09c1.72,9.38,5.55,15.88,9.95,23.15,6.12,10.14,12.44,20.86,11.29,55.1-1.34,37.5-7.46,44.2-20.86,44.2-17.22,0-23.15-5.93-23.15-44.39,0-14.73-1.91-27.93-4.78-37.31-1.72-5.17-7.65-3.64-6.12,1.15,2.87,8.61,5.17,22,5.17,39.03,0,34.82-7.08,40.75-27.94,40.75-17.79,0-28.7-12.82-29.46-45.15-.77-28.89,5.93-40.75,13.78-53,4.4-6.89,6.51-13.01,7.27-23.53ZM409.85,376.47c-.58,11.48-1.34,22.96-2.49,34.06-1.53,15.31-11.1,22.96-24.49,22.96-15.5,0-25.83-8.8-24.11-26.02,4.97-41.14,4.97-82.46.19-121.88-1.91-18.94,8.42-27.93,23.92-27.93,13.39,0,22.96,7.65,24.49,23.34.96,8.99,1.53,17.99,2.1,27.36l5.55-.57c8.8-1.53,13.97,8.99,13.97,34.44s-5.17,35.97-13.97,35.01l-5.17-.77Z"/>
  </g>
  <path class="cls-3" d="M476.1,401.33c-12.6,8.44-15,23.64-28.59,36.21-12.26,11.34-20.68,13.56-22.41,14-6.13,1.56-7.72-2.73-2.93-5.76,5.21-3.29,12.16-9.96,17.91-16.44,8.74-9.85,12.97-25.21,23.6-35.31-4.36-1.06-9.28-1.02-14.6.54-20.1,5.88-19.95,24.95-37.39,38.93-18.71,15-57.78,12.08-76.3,13.05-39.2,2.05-54.86-.29-77.05,1.17-86.71-.22-103.66-2.31-163.13-12.07-13.09-2.15-21.62-3.67-29.29-10.79-4.3-3.99-12.18-8.77-21.88-9.13-17.68-.22-29.77,10.62-27.24,23.64,2.52,12.93,10.61,15.87,29.6,21.94,1.99.64,11.5,3.51,24.04,4.63,0,0,10.14,3.58,341.94,4.08,24.99.04,67.95-23.22,70.9-47.25.95-7.7-1.81-15.72-7.18-21.44Z"/>
  <path class="cls-2" d="M440.08,429.34c-5.75,6.48-12.7,13.14-17.91,16.44-4.8,3.03-3.2,7.32,2.93,5.76,1.73-.44,10.15-2.65,22.41-14,13.58-12.57,15.99-27.77,28.59-36.21-3.26-3.47-7.48-6.1-12.42-7.31-10.63,10.1-14.86,25.46-23.6,35.31Z"/>
</svg>