<?xml version="1.0" encoding="UTF-8"?>
<svg id="_레이어_1" data-name="레이어_1" xmlns="http://www.w3.org/2000/svg" viewBox="0 0 1581.54 481.2">
  <defs>
    <style>
      .cls-1 {
        fill: #cd3d3f;
      }

      .cls-2 {
        fill: #ebac64;
      }
    </style>
  </defs>
  <path class="cls-2" d="M445.99,206.69c91.74,6,209.62,5.57,304.79,0,24.86-1.71,39.87,12.43,39.87,27.86,0,19.29-15,29.15-40.3,30.44-94.74,6.86-212.63,6.86-304.36,0-24.43-1.72-39.44-11.15-39.44-30.44,0-15.43,15-29.58,39.44-27.86Z"/>
  <g>
    <path class="cls-1" d="M823,267.9c-6.48-48.07-7.16-102.29-2.05-139.79-15.68-4.09-23.53-16.71-23.53-35.8,0-21.14,10.23-34.09,30.34-36.82,34.44-4.77,99.9-5.46,134.68-1.7,20.12,2.05,30,15.68,30,37.16,0,17.73-7.16,30-21.14,34.78,5.8,38.19,5.46,94.78-1.71,144.22,15.34,4.43,22.84,17.05,22.84,35.8,0,21.82-9.89,34.78-30,37.51-34.78,3.75-100.24,3.07-134.68-2.05-20.12-2.73-30.34-15.34-30.34-37.16,0-19.44,8.52-32.39,25.57-36.14ZM891.19,265.17h10.57c3.07-45.69,2.73-83.19-.34-133.65h-10.23c-3.07,50.12-2.73,87.97,0,133.65ZM1049.39,359.27c-27.62,0-46.37-15.68-42.28-46.37,8.18-73.3,8.18-146.95.34-217.19-4.43-33.75,14.32-49.78,41.94-49.78,23.87,0,41.25,13.64,43.64,41.6,7.5,73.65,7.5,156.84,0,230.82-2.39,27.28-19.78,40.91-43.64,40.91Z"/>
    <path class="cls-1" d="M1152.7,129.13c-25.91-2.05-37.51-17.73-37.51-35.8s12.27-35.46,39.21-36.48c19.43-1.02,36.48-1.02,55.92-1.02s36.48,0,55.92,1.02c26.25,1.02,38.87,18.07,38.87,36.48s-11.93,33.41-36.82,35.8c3.07,16.71,9.89,28.3,17.73,41.25,10.91,18.07,22.16,37.16,20.12,98.19-2.39,66.83-13.3,78.76-37.16,78.76-30.69,0-41.25-10.57-41.25-79.1,0-26.25-3.41-49.78-8.52-66.48-3.07-9.21-13.64-6.48-10.91,2.05,5.11,15.34,9.2,39.21,9.2,69.55,0,62.05-12.61,72.62-49.78,72.62-31.71,0-51.14-22.84-52.51-80.46-1.36-51.48,10.57-72.62,24.55-94.44,7.84-12.27,11.59-23.19,12.96-41.94ZM1402.28,257.67c-1.02,20.46-2.39,40.91-4.43,60.69-2.73,27.28-19.78,40.91-43.64,40.91-27.62,0-46.03-15.68-42.96-46.37,8.86-73.3,8.86-146.95.34-217.19-3.41-33.75,15-49.78,42.62-49.78,23.87,0,40.91,13.64,43.64,41.6,1.71,16.02,2.73,32.05,3.75,48.76l9.89-1.02c15.68-2.73,24.89,16.02,24.89,61.37s-9.21,64.1-24.89,62.39l-9.21-1.36Z"/>
  </g>
  <path class="cls-1" d="M88.8,185.24c8.78,4.6,20.07,22.16,20.07,48.09,0,32.2-18.82,50.18-53.11,50.18s-48.51-20.91-48.51-58.54c0-31.36,12.13-55.61,34.71-70.25-23.42-3.35-32.62-15.89-32.62-32.2,0-17.98,10.87-32.2,40.56-33.45,2.09,0,4.18-.42,6.27-.42-5.02-5.44-6.27-12.13-6.27-17.14,0-15.05,15.05-27.18,48.92-27.18s49.76,12.13,49.76,27.18c0,5.02-1.25,11.29-5.85,16.73,4.6.42,9.62.42,15.05.84,29.69,1.25,40.14,15.47,40.14,33.45,0,16.31-8.36,28.43-31.78,32.2,22.58,15.05,34.29,40.14,34.29,70.67,0,34.71-12.13,54.36-37.63,54.36-30.52,0-40.98-21.32-43.91-52.69-2.09-33.03-13.38-45.58-26.34-51.43-2.09-.84-5.02-1.67-6.69,2.51-1.67,4.6.84,6.27,2.93,7.11ZM101.76,384.7c-43.49-.42-69.83-11.71-71.5-37.63-2.51-26.34,29.27-42.65,77.78-49.76,59.8-8.78,141.75-16.31,197.37-5.44,39.72,7.94,61.89,23.83,71.5,39.31,12.96,23.83,9.62,51.01-7.11,74.01-13.8,20.49-41.4,28.43-84.47,29.27-45.58,1.25-73.18-10.87-78.19-34.29-5.44-25.92,5.02-40.56,23.83-58.54,3.35-3.34-5.02-5.85-8.78-2.51-30.94,29.27-73.6,46.41-120.43,45.58ZM289.51,217.86c-.42,4.18-.42,8.78-.84,12.96-2.09,33.03-18.4,49.34-42.23,49.34-25.51,0-43.07-19.23-39.31-56.45,3.35-41.4,3.35-68.58.42-105.79-3.35-41.4,13.38-59.8,38.89-59.8,23.83,0,40.14,16.31,42.23,49.34.42,5.85.42,12.13.84,17.98l16.31,1.26c-.42-4.18-.42-7.95-.84-12.13-3.76-41.4,13.38-61.05,39.31-61.05,23,0,40.14,16.73,42.23,51.01,2.09,43.49,2.51,84.05,0,127.54-2.51,33.87-19.24,50.18-42.23,50.18-25.93,0-43.07-18.82-39.72-56.87.42-2.93.84-5.85.84-8.78l-15.89,1.25Z"/>
  <path class="cls-2" d="M1557.48,306.03c-15.56,11.61-19.24,31.3-36.96,47.7-16.57,15.34-27.95,18.33-30.29,18.92-8.28,2.11-10.45-3.69-3.96-7.78,7.04-4.46,24.21-22.23,24.21-22.23,10.97-12.36,16.69-31.13,28.95-44.68-3.69-.72-7.71-1.09-12.08-1.03-18.81.7-32.65,1.88-50.9,27.95-8.01,11.43-18.96,23.89-56.85,36.44-25.07,8.3-50.96,13.92-77.22,16.74-179.82,19.32-616.69,4.22-682.79-2.52-6.22-.63-6.62-9.49-.5-10.77,25.62-5.35,41.35-.11,82.84-10.79,14.95-3.85,33.73-34.55,33.73-48.69,0-16.72-11.15-27.44-34.72-26.15-87.88,6.43-196.76,6.43-284.64,0-23.15-1.29-35.15,12-35.15,30.44,0,19.72,12,39.59,43.3,37.87,26.58-1.29,54.44-6.43,79.31-14.57,6-2.57,9,7.72,3,9.86-27.01,9-51.44,12-78.02,14.57-30.01,2.14-51.44,11.42-51.44,37.14,0,22.29,17.58,30.44,47.15,32.15,68.76,4.51,821.22,16.4,1012.77-19.91,37.99-7.2,97.24-32.36,97.24-59.37,0-16-4.95-31.76-16.95-41.29Z"/>
  <path class="cls-2" d="M598.6,45.07c-109.31,0-179.19,21.01-179.19,76.31s69.87,77.16,179.19,77.16,178.76-19.29,178.76-77.16-69.87-76.31-178.76-76.31ZM630.2,103.19c-7.29,19.29-24.44,37.72-43.73,48.01-9.43,6-16.72-7.29-10.72-10.72,17.58-12,31.29-27.44,42.44-47.15,3.43-6.43,15.43.86,12,9.86Z"/>
</svg>