<?xml version="1.0" encoding="UTF-8"?>
<svg id="_레이어_2" data-name="레이어_2" xmlns="http://www.w3.org/2000/svg" viewBox="0 0 512 512">
  <defs>
    <style>
      .cls-1 {
        fill: #cb3d3f;
      }
    </style>
  </defs>
  <path class="cls-1" d="M507.66,104.49c2.76-19.07,1.71-37.84-6.05-55.8-6.03-13.95-14.55-25.39-30.4-29.12-1.4-.33-2.77-.76-4.17-1.08-18.85-4.31-37.43-2.56-55.69,3-22,6.7-41.36,17.6-54.51,37.26-2.09,3.12-3.54,2.91-6.41,1.53-17.12-8.27-34.91-14.6-53.68-17.94-17.37-3.09-34.73-6.17-52.51-4.34-29.32,3.01-57.67,9.57-84.15,22.96-1.83.93-2.75.92-4.02-1.02-4.09-6.25-8.82-12-14.57-16.84-15.78-13.3-34.09-21.07-54.2-24.84-17.76-3.33-35.35-3.27-52.44,3.49-4.36,1.73-8.8,3.61-11.95,7.24-6.55,7.57-11.63,16.04-14.81,25.62-7.65,23.09-6.12,46.17.38,69.12,6.32,22.33,17.1,42.36,32.49,59.77,1.82,2.05,2.24,3.51,1.34,6.08-9.4,26.91-13.15,54.54-9.85,82.95.47,4.08-.13,7.25-3.26,10.12-2.09,1.91-3.75,4.36-5.34,6.75C2.19,322.03-.82,357.06,11.52,393.58c7.81,23.11,21.93,41.71,43.14,54.41,2.43,1.45,5.2,3.11,7.16-.15,1.89-3.16-.96-4.67-3.22-6-10.17-5.96-18.55-13.84-25.71-23.2-26.26-34.34-28.18-87.12-4.39-123.17,4.14-6.28,9.26-11.65,14.7-16.77,1.37-1.29,2.69-2.62,1.95-4.73-.65-1.86-2.07-2.66-3.99-2.34-2.04.34-1.69-1.26-1.76-2.24-.39-5.48-.67-10.96-.98-16.44.07-9.19.7-18.33,2.22-27.36,9.11-54.01,36.9-96.85,79.05-130.74,22.37-17.98,47.35-31.5,74.97-39.66,26.2-7.73,52.7-12.37,80.3-9.03,48.98,5.93,91.96,25.15,128.45,58.11,39.43,35.62,64,79.45,69.33,133.07,1.04,10.43.91,20.9-.05,31.35-.1,1.04.56,3.03-1.54,2.92-2.1-.12-3.64.38-4.32,2.45-.76,2.33.9,3.62,2.32,4.97,5.14,4.86,10.08,9.89,13.96,15.86,17.06,26.28,20.94,54.87,13.81,84.95-6.31,26.62-20.2,48.24-44.25,62.46-.67.4-1.35.84-1.88,1.39-1.08,1.11-1.56,2.45-.83,3.94.79,1.6,2.22,2.27,3.91,1.91,1.12-.24,2.19-.82,3.2-1.39,10.94-6.24,20.02-14.63,27.53-24.67,13.67-18.28,21.06-38.95,22.53-61.68,1.96-30.21-5.52-57.51-25.64-80.7-1.66-1.91-2.42-3.66-2.1-6.28,3.31-27.42.57-54.3-8.18-80.44-1.87-5.58-1.71-9.08,2.37-13.95,18.41-22.01,29.94-47.4,34.08-75.92ZM86.2,116.47c-15.97,17.32-28.71,36.84-38.09,58.5-1.2,2.77-2.14,3.54-4.29.83-20.98-26.38-32.95-56.09-33.54-87.36.44-20.22,4.23-36.61,15.06-50.88,2.1-2.76,3.73-3.1,6.63-1.23,26.55,17.04,46.25,39.56,56.54,69.81,1.43,4.19.76,6.99-2.32,10.33ZM148.29,67.13c-11.27,6.09-21.93,13.14-31.95,21.11-6.82,5.43-13.32,11.26-20.11,17.04-11.14-32.51-32.18-56.94-60.75-75.67,5.88-3.12,11.96-4.67,18.14-5.27,32.24-3.13,61.01,5.25,85.65,26.66,3.96,3.44,7.09,7.64,9.98,12.03,1.3,1.98,1.24,2.91-.96,4.1ZM398.42,90.51c-10.66-8.87-22.18-16.5-34.32-23.16-2.49-1.36-2.65-2.33-1.16-4.62,8.41-12.96,20.39-21.59,34.09-27.95,21.75-10.1,44.41-14.19,68.22-9.16,3.8.8,7.53,1.9,11.31,3.98-28.71,18.83-49.64,43.22-60.79,75.7-5.87-5.01-11.56-9.97-17.36-14.79ZM468.12,175.86c-1.85,2.31-2.84,2.31-4.11-.63-9.67-22.41-22.99-42.44-39.53-60.35-1.76-1.9-2.35-3.51-1.67-6.19,4.15-16.22,12.83-29.92,23.25-42.64,9.68-11.81,20.91-21.87,34.03-29.81,3.06-1.85,4.61-1.26,6.62,1.39,10.91,14.39,14.64,30.92,15,51.33-.71,31.07-12.66,60.66-33.6,86.89Z"/>
  <path class="cls-1" d="M198.81,328.4c-.2,13.22-3.22,25.62-10.97,36.54-5.48,7.72-12.57,13.31-22.18,14.83-10.26,1.63-18.81-2.13-25.74-9.44-11.41-12.04-14.96-26.98-14.47-43.02.39-12.79,3.97-24.7,11.83-35.06,4.03-5.31,8.95-9.54,15.24-11.88,2.12-.79,2.76-1.94,2.55-4.07-.36-3.66-.17-7.33.71-10.91.59-2.39,1.67-4.49,4.59-4.58,2.85-.08,4.16,1.8,4.96,4.18,1.19,3.53,1.03,7.23,1.18,10.87.06,1.52.19,2.69,2.07,3.18,15.09,3.9,22.46,15.23,27.1,28.9,2.23,6.57,3.19,13.46,3.12,20.46ZM177.03,364.62c2.43.25,3.14-1.57,4.06-2.84,9.98-13.89,12.34-29.39,9.13-45.88-2-10.25-6.29-19.36-14.86-25.91-.74-.57-1.43-1.61-2.65-.96,11.76,24.55,14.77,49.54,4.32,75.6ZM157.54,315.66c.41-.21.6-.4.82-.42,2.91-.35,6.36-.51,5.87-4.57-.46-3.77-3.72-3.37-6.5-2.96-2.64.39-2.89-1.13-3.1-3.2-.27-2.63-.16-6.25-4.07-5.92-3.99.34-3.53,3.81-3.32,6.72.02.26.01.54.1.78.75,2.17-.16,3.06-2.3,3.32-2.69.33-6.02.34-5.94,4.19.09,4.08,3.73,3.04,6.52,3.5-1.1,2.56-2.28,4.87-3.09,7.31-.63,1.89-.13,3.69,1.9,4.59,1.82.81,3.28.24,4.35-1.44,1.24-1.95,1.62-5.54,3.51-5.67,2.26-.15,3.15,3.41,4.97,5.08,1.7,1.56,3.38,2.72,5.46,1.02,2.05-1.68,1.53-3.73.15-5.58-1.7-2.28-3.52-4.48-5.31-6.75Z"/>
  <path class="cls-1" d="M387.76,328.56c-.24,13.22-3.31,25.6-11.05,36.52-8.75,12.34-21.88,17.61-34.24,13.83-7.98-2.44-13.83-7.68-18.43-14.45-13.62-20.06-12.79-52.36,1.8-71.73,4.17-5.54,9.23-9.98,15.78-12.44,1.94-.73,2.57-1.79,2.41-3.77-.28-3.39-.23-6.79.5-10.15.61-2.8,1.41-5.54,4.96-5.55,3.48,0,4.65,2.68,5.13,5.45.55,3.2.64,6.49.85,9.75.09,1.36.15,2.52,1.85,2.95,14.94,3.78,22.4,14.86,27.11,28.39,2.37,6.82,3.38,13.94,3.33,21.2ZM362.1,288.83c11.36,24.8,14.37,49.88,4.43,75.95,9.81-9.09,13.38-20.93,13.82-33.7.58-16.84-3.58-31.98-18.26-42.25ZM334.66,316.92c-1.23,2.87-2.43,5.19-3.22,7.63-.61,1.91.02,3.7,2.06,4.52,1.85.74,3.25.05,4.31-1.62,1.22-1.92,1.43-5.41,3.56-5.54,2.07-.13,2.96,3.27,4.66,4.89,1.76,1.68,3.52,3.05,5.73,1.1,2.18-1.93,1.17-4.04-.26-5.92-1.63-2.15-3.35-4.23-5.16-6.49,1.51-.27,2.68-.4,3.81-.69,2.19-.55,3.45-1.96,3.08-4.27-.34-2.14-1.98-2.93-3.98-3.04-.52-.03-1.05.03-1.56.13-2.62.49-4.36-.04-4.11-3.24.06-.76-.23-1.55-.36-2.32-.37-2.19-1.46-3.75-3.88-3.5-2.38.25-3.15,2.08-3.3,4.19-.06.91-.1,1.89.18,2.73,1.01,3.04-.51,3.96-3.17,4.13-.9.06-1.85.18-2.67.52-1.74.73-2.71,2.08-2.36,4.03.32,1.78,1.56,2.65,3.32,2.77.9.06,1.81.01,3.3.01Z"/>
  <path class="cls-1" d="M255.87,489.65c-52.79-.19-104.61-7.15-155.31-22.02-8.8-2.58-17.04-6.56-25.45-10.11-2.07-.87-3.77-2.26-2.88-4.79.94-2.7,3.11-2.9,5.47-1.93,10.01,4.11,19.84,8.64,30.34,11.47,33.09,8.93,66.6,15.4,100.83,17.93,12.89.95,25.75,2.18,38.7,2.27,54.22.38,107.49-6.22,159.67-21.19,8.17-2.34,16-5.58,23.68-9.18,1.18-.55,2.43-.95,3.65-1.39,2.26-.82,4.26-.55,5.18,1.9.95,2.52-.66,3.97-2.73,4.86-5.99,2.57-11.91,5.39-18.06,7.52-24.75,8.59-50.3,14.03-76.11,17.95-25.94,3.94-52.06,6.59-78.36,6.71-2.87.01-5.74,0-8.61,0Z"/>
  <path class="cls-1" d="M251.94,382.82c0-1.7-.03-3.4,0-5.1.06-3.22-.49-5.54-3.93-7.48-6.14-3.46-5.93-11.62-.19-15.72,4.42-3.15,11.84-3.17,16.29-.05,6.18,4.34,5.8,12.78-.98,16.44-2.17,1.17-3,2.41-2.99,4.76.03,4.97-.09,9.94-.3,14.91-.08,1.85.67,2.85,2.22,3.68,15.19,8,31.18,13.26,48.41,14.28,4.07.24,8.1-.19,12.01-1.39,5.89-1.81,7.07-5.06,3.86-10.36-.74-1.23-1.63-2.37-2.29-3.64-.81-1.57-.57-3.07.91-4.18,1.45-1.09,2.9-.89,4.34.1,8.74,6.03,7.77,19.43-1.81,23.91-7.13,3.33-14.75,3.27-22.32,2.47-16.55-1.75-32.06-6.97-46.64-14.93-2.04-1.11-3.43-.83-5.34.17-17.45,9.11-35.72,15.28-55.69,15.05-5.02-.06-9.9-.93-14.34-3.41-8.49-4.75-8.6-18.34-.23-23.43,1.52-.92,3-.93,4.33.25,1.22,1.08,1.47,2.49.7,3.91-.87,1.6-1.97,3.08-2.83,4.69-2.42,4.56-1.34,7.46,3.54,9.15,7.27,2.52,14.74,1.88,22.11.73,12.98-2.04,25.25-6.3,37-12.2,3.18-1.59,5-3.34,4.36-7.11-.3-1.78-.05-3.65-.05-5.49-.05,0-.11,0-.16,0Z"/>
  <g>
    <path class="cls-1" d="M258.05,99.54c-.17,1.46-.87,2.38-2.23,2.41-1.51.03-2.42-.89-2.36-2.39.05-1.35.95-2.17,2.32-2.15,1.39.02,2.04.96,2.28,2.13Z"/>
    <path class="cls-1" d="M249.75,99.49c-.15,1.47-.85,2.37-2.22,2.42-1.37.04-2.25-.8-2.3-2.16-.05-1.37.79-2.24,2.16-2.3,1.4-.07,2.08.87,2.36,2.04Z"/>
    <path class="cls-1" d="M268.22,93.26c1.31.24,2.18.97,2.13,2.32-.06,1.47-1.01,2.34-2.48,2.19-1.31-.13-2.1-1.06-1.99-2.4.12-1.32,1.01-2.01,2.34-2.1Z"/>
    <path class="cls-1" d="M259.72,97.87c-1.41-.28-2.3-1.1-2.13-2.59.14-1.31,1.05-2.12,2.39-2.03,1.47.11,2.31,1.06,2.16,2.54-.13,1.32-1.05,2-2.41,2.07Z"/>
    <path class="cls-1" d="M251.59,93.22c1.35.16,2.26.88,2.28,2.25.02,1.52-.91,2.42-2.42,2.35-1.35-.07-2.18-.96-2.13-2.34.04-1.37.93-2.09,2.27-2.25Z"/>
    <path class="cls-1" d="M266.28,99.71c-.19,1.33-.91,2.22-2.26,2.22-1.49,0-2.38-.94-2.28-2.43.09-1.32.99-2.14,2.35-2.07,1.35.07,2.05.95,2.19,2.28Z"/>
    <path class="cls-1" d="M243.52,97.82c-1.45-.15-2.36-.85-2.4-2.21-.04-1.36.79-2.24,2.14-2.28,1.36-.05,2.22.79,2.29,2.15.06,1.39-.86,2.07-2.03,2.34Z"/>
    <path class="cls-1" d="M274.52,91.23c-.15,1.45-.84,2.35-2.2,2.39-1.36.04-2.24-.79-2.28-2.14-.05-1.36.79-2.23,2.14-2.29,1.39-.06,2.07.86,2.34,2.04Z"/>
    <path class="cls-1" d="M266.33,91.22c-.13,1.49-.83,2.39-2.16,2.48-1.48.1-2.42-.76-2.48-2.24-.06-1.35.78-2.22,2.1-2.33,1.51-.13,2.25.85,2.54,2.09Z"/>
    <path class="cls-1" d="M258.08,91.53c-.26,1.44-1.09,2.33-2.59,2.18-1.33-.13-2.15-1.03-2.07-2.4.09-1.5,1.05-2.34,2.55-2.21,1.34.12,2.03,1.04,2.11,2.42Z"/>
    <path class="cls-1" d="M249.79,91.19c-.1,1.48-.8,2.38-2.14,2.5-1.36.12-2.3-.69-2.44-2.02-.15-1.5.72-2.45,2.23-2.52,1.39-.06,2.08.88,2.35,2.05Z"/>
    <path class="cls-1" d="M236.98,91.53c.1-1.34.79-2.26,2.16-2.29,1.37-.03,2.22.82,2.24,2.19.02,1.24-.77,2.06-1.98,2.16-1.38.12-2.16-.71-2.43-2.06Z"/>
    <path class="cls-1" d="M253.88,103.86c-.2,1.31-.92,2.2-2.26,2.18-1.48-.02-2.36-.96-2.25-2.43.1-1.31,1.01-2.12,2.35-2.04,1.33.08,2.03.97,2.16,2.29Z"/>
    <path class="cls-1" d="M259.85,101.5c1.42.26,2.3.99,2.25,2.34-.06,1.48-1.01,2.35-2.49,2.19-1.31-.14-2.1-1.06-1.99-2.41.11-1.35,1.05-1.98,2.24-2.13Z"/>
    <path class="cls-1" d="M255.72,118.46c-1.47-.3-2.33-1.08-2.18-2.46.14-1.34,1.07-2.14,2.45-1.97,1.21.15,1.96.99,1.91,2.23-.06,1.4-1,2.03-2.19,2.2Z"/>
    <path class="cls-1" d="M270.45,87.25c-.24,1.46-.99,2.35-2.36,2.31-1.51-.05-2.38-1.01-2.25-2.51.12-1.34,1.06-2.14,2.43-2.04,1.38.1,2.01,1.05,2.18,2.25Z"/>
    <path class="cls-1" d="M257.45,87.29c.3-1.58,1.13-2.47,2.6-2.33,1.45.14,2.27,1.12,2.11,2.59-.15,1.31-1.03,2.1-2.37,2.05-1.5-.05-2.15-1.06-2.34-2.32Z"/>
    <path class="cls-1" d="M251.66,84.92c1.45.23,2.36,1.04,2.24,2.55-.1,1.34-.99,2.18-2.36,2.12-1.5-.06-2.37-1.01-2.26-2.51.09-1.35,1.01-2.05,2.38-2.17Z"/>
    <path class="cls-1" d="M243.32,89.58c-1.32-.18-2.23-.89-2.23-2.24,0-1.49.92-2.39,2.41-2.3,1.32.08,2.15.97,2.09,2.33-.06,1.35-.93,2.06-2.27,2.21Z"/>
    <path class="cls-1" d="M259.79,109.8c1.45.25,2.32.98,2.26,2.34-.05,1.34-.92,2.18-2.27,2.13-1.34-.05-2.17-.91-2.14-2.27.04-1.37.98-2,2.14-2.2Z"/>
    <path class="cls-1" d="M267.93,101.56c1.43.14,2.33.83,2.37,2.18.05,1.35-.78,2.22-2.12,2.27-1.35.05-2.21-.78-2.27-2.12-.07-1.37.85-2.05,2.02-2.33Z"/>
    <path class="cls-1" d="M249.7,107.88c-.13,1.32-.82,2.21-2.16,2.26-1.35.05-2.22-.78-2.27-2.12-.05-1.35.78-2.21,2.12-2.27,1.36-.06,2.09.8,2.32,2.13Z"/>
    <path class="cls-1" d="M255.79,110.22c-1.34-.13-2.25-.83-2.29-2.2-.05-1.37.8-2.25,2.15-2.3,1.37-.05,2.25.79,2.3,2.15.05,1.38-.82,2.12-2.16,2.35Z"/>
    <path class="cls-1" d="M266.24,108.01c-.23,1.33-.97,2.2-2.34,2.14-1.34-.06-2.18-.93-2.13-2.29.05-1.35.93-2.18,2.29-2.13,1.36.05,2.05.95,2.18,2.27Z"/>
    <path class="cls-1" d="M253.83,112.13c-.22,1.33-.96,2.19-2.31,2.13-1.34-.05-2.17-.92-2.12-2.27.05-1.34.91-2.17,2.26-2.12,1.35.05,2.04.94,2.17,2.25Z"/>
    <path class="cls-1" d="M243.52,105.99c-1.32-.12-2.25-.78-2.28-2.18-.02-1.23.71-2.1,1.96-2.17,1.38-.07,2.25.76,2.3,2.14.05,1.25-.73,1.97-1.98,2.21Z"/>
    <path class="cls-1" d="M272.28,101.85c-1.26-.06-2.09-.74-2.2-1.95-.13-1.38.68-2.28,2.04-2.39,1.27-.1,2.07.71,2.2,1.92.15,1.41-.72,2.15-2.04,2.43Z"/>
    <path class="cls-1" d="M278.49,87.2c-.08,1.23-.73,2.09-1.96,2.16-1.39.08-2.25-.78-2.28-2.14-.03-1.28.85-1.99,2.07-2.01,1.26-.03,1.95.76,2.17,2Z"/>
    <path class="cls-1" d="M276.39,105.84c-1.26-.14-2.05-.82-2.01-2.09.04-1.27.86-2,2.13-1.94,1.12.06,1.83.78,1.86,1.91.04,1.28-.73,1.96-1.98,2.12Z"/>
    <path class="cls-1" d="M251.03,122.44c-1.22-.12-2.05-.77-2.08-2-.04-1.37.8-2.21,2.17-2.16,1.22.05,1.98.86,1.95,2.1-.02,1.23-.82,1.9-2.04,2.06Z"/>
    <path class="cls-1" d="M241.29,99.69c-.15,1.21-.81,2.03-2.03,2.04-1.37.01-2.19-.84-2.1-2.21.07-1.21.89-1.95,2.13-1.9,1.23.06,1.87.85,2.01,2.07Z"/>
    <path class="cls-1" d="M239.18,105.9c1.22.13,2.02.78,2.03,2.02,0,1.24-.75,2.01-1.99,2.02-1.24.01-2.01-.74-2.02-1.98-.02-1.25.76-1.91,1.98-2.06Z"/>
    <path class="cls-1" d="M255.14,134.77c-1.26-.15-2.05-.82-2-2.1.05-1.27.87-2,2.13-1.93,1.12.06,1.83.79,1.86,1.92.03,1.28-.73,1.96-1.99,2.11Z"/>
    <path class="cls-1" d="M235.07,97.58c-1.25-.15-2.04-.82-1.99-2.1.05-1.27.87-1.99,2.14-1.92,1.11.06,1.83.79,1.85,1.92.03,1.28-.74,1.96-2,2.11Z"/>
    <path class="cls-1" d="M259.19,126.54c1.22.09,2.04.72,2.09,1.97.06,1.25-.69,2.05-1.93,2.11-1.25.06-2.05-.69-2.11-1.93-.06-1.25.71-1.94,1.95-2.15Z"/>
    <path class="cls-1" d="M253.07,128.52c-.17,1.33-.83,2.11-2.08,2.1-1.24-.02-2-.79-1.99-2.03.01-1.24.79-2,2.03-1.99,1.26,0,1.86.84,2.04,1.93Z"/>
    <path class="cls-1" d="M274.32,107.93c-.14,1.24-.8,2.04-2.06,2.05-1.25,0-2.04-.77-2.05-2.02-.01-1.25.77-2.04,2.02-2.05,1.26-.01,1.93.78,2.09,2.02Z"/>
    <path class="cls-1" d="M245.42,111.93c-.13,1.33-.77,2.15-2.03,2.18-1.26.03-2.05-.73-2.09-1.98-.04-1.26.73-2.05,1.98-2.09,1.27-.05,1.91.79,2.14,1.89Z"/>
    <path class="cls-1" d="M263.41,126.54c-1.23-.13-2.04-.79-2.05-2.05-.01-1.25.76-2.04,2.01-2.05,1.25-.01,2.03.76,2.05,2.01.02,1.26-.77,1.93-2.01,2.09Z"/>
    <path class="cls-1" d="M253.05,124.4c.22-1.25.92-2.04,2.18-1.97,1.25.07,2.01.88,1.95,2.14-.06,1.25-.88,2.01-2.14,1.95-1.26-.06-1.89-.89-1.99-2.12Z"/>
    <path class="cls-1" d="M246.92,122.43c1.23.18,2,.85,1.96,2.1-.04,1.24-.82,1.98-2.06,1.95-1.24-.04-1.98-.82-1.95-2.06.03-1.25.83-1.88,2.05-1.99Z"/>
    <path class="cls-1" d="M267.6,118.28c1.24.21,2.01.9,1.94,2.15-.06,1.24-.87,1.99-2.11,1.93-1.24-.06-1.99-.86-1.93-2.11.06-1.25.88-1.87,2.1-1.97Z"/>
    <path class="cls-1" d="M235.12,85.21c1.24.19,2.03.87,1.99,2.13-.04,1.25-.84,2.01-2.09,1.98-1.25-.04-2.01-.84-1.98-2.09.03-1.26.85-1.9,2.08-2.02Z"/>
    <path class="cls-1" d="M261.37,120.25c-.07,1.22-.72,2.05-1.93,2.16-1.24.12-2.1-.61-2.23-1.82-.15-1.38.65-2.26,2.02-2.32,1.24-.05,1.93.76,2.14,1.98Z"/>
    <path class="cls-1" d="M278.45,95.66c-.23,1.24-.94,2.01-2.2,1.92-1.24-.09-1.99-.91-1.91-2.16.08-1.24.91-1.99,2.16-1.91,1.25.08,1.87.92,1.94,2.15Z"/>
    <path class="cls-1" d="M268.08,114.2c-1.31-.25-2.11-.95-2.03-2.19.08-1.37.96-2.16,2.35-1.98,1.22.15,1.91,1.03,1.79,2.26-.13,1.23-1,1.81-2.1,1.92Z"/>
    <path class="cls-1" d="M244.79,120.29c-.23,1.4-.96,2.15-2.22,2.03-1.25-.12-1.94-.96-1.8-2.23.13-1.11.88-1.77,2-1.75,1.3.03,1.86.88,2.02,1.94Z"/>
    <path class="cls-1" d="M247.33,118.31c-1.21-.24-1.98-.93-1.93-2.17.05-1.23.83-2.01,2.06-1.99,1.37.03,2.17.91,2.05,2.27-.11,1.21-.96,1.84-2.19,1.89Z"/>
    <path class="cls-1" d="M274.27,116.25c-.18,1.26-.87,2.01-2.15,1.95-1.12-.05-1.83-.77-1.87-1.89-.04-1.27.7-2.07,1.97-2.08,1.28-.02,1.93.78,2.05,2.03Z"/>
    <path class="cls-1" d="M263.96,118.33c-1.23-.16-2.03-.83-2.06-2.07-.03-1.25.73-2.07,1.96-2.12,1.38-.06,2.23.78,2.2,2.17-.03,1.24-.87,1.89-2.1,2.02Z"/>
    <path class="cls-1" d="M269.51,128.54c-.13,1.2-.77,2.01-2.04,2-1.11,0-1.86-.74-1.89-1.85-.04-1.25.73-2.04,1.99-2.04,1.12,0,1.73.76,1.94,1.88Z"/>
    <path class="cls-1" d="M265.39,132.6c-.06,1.14-.64,1.93-1.73,2.07-1.27.17-2.09-.58-2.21-1.82-.11-1.13.6-1.9,1.69-2.05,1.28-.18,1.97.62,2.26,1.8Z"/>
    <path class="cls-1" d="M261.27,136.79c-.22,1.32-.9,2.11-2.16,2.02-1.09-.08-1.82-.83-1.79-1.95.04-1.25.84-2,2.1-1.93,1.11.06,1.66.88,1.85,1.86Z"/>
    <path class="cls-1" d="M280.49,89.44c1.13.14,1.76.8,1.77,1.93.01,1.12-.55,1.95-1.71,1.97-1.27.02-2.03-.77-1.99-2.03.04-1.11.8-1.72,1.93-1.87Z"/>
    <path class="cls-1" d="M226.81,97.18c-1.12-.22-1.69-.82-1.57-1.84.1-.86.68-1.41,1.57-1.39,1.02.02,1.63.62,1.6,1.65-.03,1.04-.74,1.48-1.6,1.58Z"/>
    <path class="cls-1" d="M284.58,93.9c.99.06,1.64.56,1.68,1.58.04,1.01-.54,1.65-1.56,1.69-1.02.05-1.64-.54-1.69-1.55-.05-1.02.54-1.58,1.56-1.72Z"/>
    <path class="cls-1" d="M260.86,169.9c-.09,1-.63,1.63-1.69,1.59-.9-.03-1.47-.61-1.48-1.51-.01-1.05.6-1.66,1.66-1.62.9.03,1.39.61,1.51,1.55Z"/>
    <path class="cls-1" d="M261.79,165.91c.04-.99.52-1.66,1.55-1.7,1.02-.04,1.62.57,1.64,1.59.02.89-.53,1.47-1.38,1.57-1.01.11-1.61-.45-1.81-1.46Z"/>
    <path class="cls-1" d="M256.76,165.77c-.1,1.01-.64,1.65-1.67,1.62-1.03-.03-1.61-.68-1.56-1.71.04-.88.61-1.44,1.49-1.48,1.03-.05,1.59.56,1.73,1.57Z"/>
    <path class="cls-1" d="M232.62,99.74c-.13,1.05-.71,1.65-1.75,1.6-1.04-.05-1.63-.69-1.58-1.73.05-1.04.69-1.62,1.73-1.58,1.06.04,1.55.7,1.61,1.72Z"/>
    <path class="cls-1" d="M282.21,99.74c-.12,1.04-.69,1.64-1.72,1.63-1.2-.02-1.79-.76-1.68-1.91.1-1.02.8-1.55,1.83-1.47,1.03.09,1.53.74,1.57,1.75Z"/>
    <path class="cls-1" d="M267.56,163.27c-.99-.08-1.63-.61-1.61-1.63.02-1.01.65-1.6,1.67-1.56.88.03,1.43.59,1.49,1.46.06,1.02-.52,1.58-1.54,1.73Z"/>
    <path class="cls-1" d="M259.09,160.02c1.11.07,1.78.58,1.78,1.63,0,1.04-.62,1.64-1.66,1.63-.9,0-1.47-.57-1.56-1.45-.1-1.05.53-1.6,1.43-1.81Z"/>
    <path class="cls-1" d="M252.64,161.77c-.2,1.03-.81,1.62-1.83,1.49-1.01-.13-1.55-.84-1.39-1.87.14-.87.74-1.39,1.64-1.34,1.04.06,1.54.71,1.58,1.72Z"/>
    <path class="cls-1" d="M265.04,157.46c-.06,1.01-.57,1.68-1.63,1.69-1.04,0-1.64-.62-1.64-1.67,0-.91.57-1.48,1.45-1.56,1.04-.09,1.64.49,1.81,1.54Z"/>
    <path class="cls-1" d="M256.79,157.59c-.15,1.02-.71,1.62-1.73,1.57-1.02-.05-1.6-.68-1.55-1.7.05-1.02.69-1.59,1.7-1.55,1.03.04,1.52.69,1.58,1.69Z"/>
    <path class="cls-1" d="M248.5,157.46c-.06,1-.57,1.67-1.62,1.68-1.03,0-1.64-.62-1.63-1.66,0-.9.57-1.47,1.44-1.55,1.03-.09,1.62.49,1.8,1.53Z"/>
    <path class="cls-1" d="M269.17,153.32c-.06,1.01-.57,1.68-1.62,1.68-1.04,0-1.64-.62-1.63-1.67,0-.91.57-1.48,1.45-1.56,1.04-.09,1.64.49,1.81,1.54Z"/>
    <path class="cls-1" d="M234.98,105.54c-1.15-.14-1.73-.82-1.61-1.96.1-1.01.78-1.55,1.79-1.49,1.18.07,1.73.81,1.62,1.94-.1,1.01-.78,1.5-1.8,1.51Z"/>
    <path class="cls-1" d="M284.78,105.45c-1.15-.13-1.78-.67-1.74-1.7.04-1.03.7-1.6,1.73-1.53.87.06,1.42.62,1.46,1.51.05,1.06-.63,1.53-1.45,1.72Z"/>
    <path class="cls-1" d="M259.21,155.07c-1.04-.14-1.64-.71-1.59-1.75.05-1.04.69-1.62,1.72-1.58,1.04.05,1.62.68,1.58,1.72-.04,1.04-.7,1.55-1.71,1.61Z"/>
    <path class="cls-1" d="M252.67,153.33c-.05,1.01-.56,1.66-1.6,1.71-1.03.04-1.67-.54-1.72-1.57-.04-1.03.54-1.67,1.57-1.72,1.04-.05,1.6.55,1.74,1.58Z"/>
    <path class="cls-1" d="M244.37,153.3c-.05,1-.55,1.67-1.59,1.69-1.02.02-1.63-.6-1.64-1.63,0-.9.55-1.47,1.42-1.56,1.02-.1,1.62.48,1.81,1.5Z"/>
    <path class="cls-1" d="M232.65,91.53c-.15,1.02-.73,1.62-1.76,1.56-1.19-.06-1.76-.8-1.62-1.95.13-1.03.86-1.52,1.87-1.42,1.03.11,1.5.79,1.51,1.81Z"/>
    <path class="cls-1" d="M271.68,147.63c1.02.14,1.64.71,1.57,1.74-.07,1.03-.76,1.59-1.78,1.49-.87-.08-1.42-.67-1.42-1.57,0-1.04.63-1.57,1.63-1.66Z"/>
    <path class="cls-1" d="M232.6,107.88c-.05,1-.55,1.65-1.58,1.69-1.02.04-1.66-.54-1.71-1.55-.05-1.02.54-1.65,1.55-1.7,1.03-.05,1.59.55,1.73,1.56Z"/>
    <path class="cls-1" d="M280.45,109.63c-1.05-.13-1.64-.71-1.6-1.76.05-1.05.69-1.63,1.73-1.59,1.04.05,1.63.69,1.59,1.73-.04,1.05-.7,1.56-1.72,1.61Z"/>
    <path class="cls-1" d="M263.47,150.97c-1.18-.15-1.78-.73-1.73-1.77.05-1.04.69-1.63,1.73-1.58,1.04.05,1.62.69,1.59,1.73-.03,1.07-.74,1.52-1.58,1.63Z"/>
    <path class="cls-1" d="M256.83,149.3c-.11,1.01-.65,1.63-1.67,1.63-1.17,0-1.79-.71-1.69-1.86.09-1.01.77-1.55,1.78-1.48,1.02.07,1.52.71,1.57,1.71Z"/>
    <path class="cls-1" d="M248.54,149.2c-.05,1.01-.56,1.66-1.59,1.71-1.03.04-1.67-.54-1.72-1.57-.05-1.03.54-1.67,1.57-1.72,1.04-.05,1.6.55,1.74,1.58Z"/>
    <path class="cls-1" d="M240.23,149.22c-.21,1.17-.81,1.74-1.85,1.6-.88-.12-1.41-.74-1.34-1.65.09-1.05.76-1.6,1.8-1.47.9.11,1.29.78,1.39,1.51Z"/>
    <path class="cls-1" d="M277.38,145.03c-.02.9-.46,1.53-1.35,1.65-1.04.15-1.74-.41-1.81-1.45-.07-1.04.55-1.67,1.6-1.68.91,0,1.41.58,1.56,1.47Z"/>
    <path class="cls-1" d="M235.03,110.37c1.01.05,1.66.55,1.73,1.58.07,1.02-.46,1.71-1.48,1.8-1.15.1-1.87-.51-1.88-1.7,0-1.03.62-1.57,1.63-1.68Z"/>
    <path class="cls-1" d="M278.1,112.22c-.18,1.13-.87,1.69-2,1.54-1.01-.13-1.51-.83-1.43-1.83.1-1.17.85-1.7,1.98-1.56,1.01.13,1.45.83,1.45,1.84Z"/>
    <path class="cls-1" d="M267.58,143.45c1.04.14,1.64.71,1.59,1.75-.05,1.04-.69,1.62-1.73,1.58-1.04-.04-1.62-.69-1.58-1.73.04-1.05.7-1.55,1.71-1.6Z"/>
    <path class="cls-1" d="M259.24,143.42c1.01.06,1.67.57,1.71,1.61.04,1.18-.63,1.84-1.8,1.79-1.03-.05-1.59-.7-1.57-1.73.02-1.04.64-1.57,1.67-1.67Z"/>
    <path class="cls-1" d="M284.44,85.59c1.15.07,1.81.57,1.85,1.62.04,1.04-.55,1.68-1.59,1.73-1.04.05-1.67-.54-1.73-1.58-.06-1.06.59-1.59,1.46-1.76Z"/>
    <path class="cls-1" d="M228.45,87.35c-.16,1.05-.75,1.63-1.79,1.55-.88-.07-1.45-.64-1.46-1.55-.01-1.04.59-1.67,1.63-1.67,1.05,0,1.56.66,1.63,1.67Z"/>
    <path class="cls-1" d="M232.57,116.03c-.07,1.1-.58,1.77-1.61,1.78-1.03,0-1.63-.62-1.62-1.65,0-.9.57-1.46,1.44-1.55,1.04-.1,1.59.53,1.8,1.42Z"/>
    <path class="cls-1" d="M239.34,117.96c-1.25-.09-1.9-.7-1.85-1.86.04-1.02.67-1.6,1.69-1.61,1.18,0,1.79.67,1.75,1.83-.03,1.04-.7,1.52-1.59,1.64Z"/>
    <path class="cls-1" d="M280.31,114.55c1.12.07,1.78.56,1.82,1.58.04,1.01-.53,1.65-1.55,1.7-1.02.05-1.64-.53-1.7-1.55-.06-1.04.58-1.55,1.43-1.73Z"/>
    <path class="cls-1" d="M252.71,145.13c-.08,1.01-.6,1.66-1.63,1.68-1.18.03-1.82-.66-1.75-1.82.06-1.02.72-1.58,1.74-1.54,1.03.04,1.55.66,1.63,1.68Z"/>
    <path class="cls-1" d="M241.07,145.2c.16-1.15.73-1.74,1.75-1.69,1.02.05,1.6.69,1.55,1.71-.05,1.02-.68,1.59-1.7,1.55-1.05-.04-1.49-.73-1.6-1.57Z"/>
    <path class="cls-1" d="M271.72,142.66c-1.01-.05-1.66-.56-1.7-1.59-.04-1.03.53-1.67,1.56-1.71,1.02-.04,1.67.53,1.71,1.56.05,1.03-.55,1.59-1.58,1.74Z"/>
    <path class="cls-1" d="M263.51,142.72c-1.03,0-1.7-.5-1.81-1.53-.1-1.01.4-1.74,1.43-1.87,1.15-.14,1.9.43,1.95,1.63.04,1.04-.56,1.61-1.58,1.76Z"/>
    <path class="cls-1" d="M234.54,118.67c1.03.14,1.63.71,1.58,1.74-.05,1.03-.68,1.61-1.71,1.56-1.02-.05-1.61-.68-1.56-1.71.04-1.04.7-1.53,1.7-1.59Z"/>
    <path class="cls-1" d="M277.51,120.25c-.13,1.18-.69,1.79-1.72,1.77-1.19-.02-1.78-.75-1.67-1.89.1-1.02.8-1.54,1.81-1.47,1.04.08,1.48.77,1.58,1.59Z"/>
    <path class="cls-1" d="M254.99,142.73c-1.14-.18-1.69-.87-1.55-2,.13-1.01.83-1.52,1.82-1.44,1.17.1,1.7.85,1.56,1.98-.13,1.01-.83,1.45-1.84,1.46Z"/>
    <path class="cls-1" d="M246.96,139.3c1.02.13,1.62.71,1.59,1.73-.04,1.18-.78,1.77-1.92,1.64-1.02-.12-1.53-.83-1.44-1.84.1-1.02.77-1.51,1.77-1.53Z"/>
    <path class="cls-1" d="M238.54,139.37c1.01.06,1.64.58,1.68,1.62.03.9-.5,1.5-1.37,1.61-1.03.13-1.73-.42-1.84-1.44-.11-1.03.49-1.62,1.53-1.8Z"/>
    <path class="cls-1" d="M240.31,124.48c-.09,1.02-.61,1.65-1.64,1.67-1.18.01-1.81-.68-1.73-1.83.07-1.01.74-1.57,1.76-1.52,1.03.05,1.54.68,1.61,1.69Z"/>
    <path class="cls-1" d="M271.58,122.74c1.01.03,1.69.52,1.78,1.52.1,1.13-.47,1.86-1.64,1.93-1.02.05-1.68-.5-1.77-1.5-.11-1.14.48-1.81,1.64-1.95Z"/>
    <path class="cls-1" d="M279.81,126.11c-1.03-.19-1.6-.81-1.49-1.83.09-.87.68-1.42,1.58-1.41,1.03.02,1.66.62,1.62,1.66-.03,1.04-.71,1.53-1.71,1.58Z"/>
    <path class="cls-1" d="M275.71,135.23c1.01.06,1.67.57,1.68,1.62,0,1.04-.62,1.64-1.66,1.63-.91,0-1.48-.57-1.56-1.45-.09-1.04.49-1.63,1.53-1.8Z"/>
    <path class="cls-1" d="M236.13,128.43c-.09,1.15-.62,1.8-1.66,1.78-1.03-.02-1.62-.66-1.59-1.7.03-.89.6-1.45,1.49-1.51,1.06-.07,1.57.58,1.77,1.43Z"/>
    <path class="cls-1" d="M242.71,126.87c1.17.15,1.77.73,1.74,1.77-.04,1.2-.79,1.79-1.95,1.66-1.04-.12-1.54-.84-1.45-1.86.09-1.05.8-1.49,1.67-1.56Z"/>
    <path class="cls-1" d="M277.46,128.66c-.14,1.03-.71,1.63-1.75,1.59-1.03-.04-1.62-.68-1.57-1.72.04-1.03.68-1.62,1.72-1.57,1.04.04,1.54.7,1.6,1.7Z"/>
    <path class="cls-1" d="M267.64,138.58c-1.02,0-1.7-.5-1.8-1.52-.11-1.01.4-1.74,1.43-1.86,1.15-.14,1.9.43,1.95,1.63.05,1.03-.55,1.61-1.57,1.75Z"/>
    <path class="cls-1" d="M252.75,136.72c-.06,1.15-.56,1.8-1.59,1.87-1.15.07-1.87-.53-1.88-1.7-.01-1.18.69-1.78,1.85-1.74,1.04.04,1.51.72,1.62,1.57Z"/>
    <path class="cls-1" d="M242.71,135.16c1.14.15,1.72.72,1.7,1.74-.02,1.01-.61,1.63-1.62,1.64-1.17,0-1.79-.69-1.71-1.84.07-1.03.79-1.46,1.63-1.53Z"/>
    <path class="cls-1" d="M240.28,132.79c-.14,1.03-.7,1.64-1.74,1.59-1.03-.05-1.62-.68-1.57-1.71.04-1.03.68-1.61,1.71-1.57,1.04.04,1.54.69,1.6,1.7Z"/>
    <path class="cls-1" d="M248.61,132.83c-.12,1.02-.68,1.62-1.7,1.62-1.17,0-1.81-.67-1.75-1.82.06-1.18.83-1.72,1.96-1.6,1.02.11,1.48.81,1.49,1.8Z"/>
    <path class="cls-1" d="M271.63,131.04c1,.07,1.66.57,1.7,1.6.04,1.17-.63,1.82-1.79,1.77-1.02-.04-1.58-.7-1.56-1.72.02-1.03.64-1.56,1.65-1.65Z"/>
    <path class="cls-1" d="M236.1,136.77c-.18,1.19-.79,1.78-1.82,1.66-.88-.1-1.41-.7-1.37-1.62.04-.91.58-1.47,1.48-1.52,1.08-.06,1.54.65,1.71,1.47Z"/>
    <path class="cls-1" d="M280.02,131.14c.88.17,1.47.63,1.39,1.54-.09.99-.73,1.6-1.72,1.56-.89-.03-1.39-.66-1.35-1.54.05-1.03.7-1.51,1.68-1.56Z"/>
    <path class="cls-1" d="M252.6,170.04c-.17.87-.63,1.47-1.54,1.39-.99-.09-1.59-.73-1.56-1.72.03-.89.66-1.39,1.54-1.35,1.03.05,1.51.7,1.56,1.68Z"/>
    <path class="cls-1" d="M247.06,167.34c-1.06-.18-1.7-.72-1.69-1.73,0-.9.61-1.41,1.5-1.39,1.02.02,1.6.64,1.58,1.65-.02.89-.6,1.35-1.39,1.47Z"/>
    <path class="cls-1" d="M228.41,103.69c0,.88-.42,1.55-1.3,1.63-.99.08-1.7-.49-1.71-1.52-.01-.89.6-1.43,1.46-1.49.92-.07,1.38.52,1.55,1.38Z"/>
    <path class="cls-1" d="M286.09,112.12c-.16.87-.66,1.45-1.54,1.46-1.08.01-1.59-.7-1.49-1.71.09-.86.67-1.43,1.59-1.31.86.11,1.36.67,1.43,1.55Z"/>
    <path class="cls-1" d="M273.12,157.51c-.11.88-.58,1.48-1.5,1.45-.89-.03-1.44-.63-1.47-1.51-.04-.93.52-1.48,1.44-1.43.88.04,1.39.6,1.53,1.49Z"/>
    <path class="cls-1" d="M248.23,182.43c-.17.76-.6,1.29-1.4,1.23-.93-.07-1.43-.67-1.27-1.6.13-.77.73-1.19,1.5-1.07.76.12,1.17.65,1.17,1.44Z"/>
    <path class="cls-1" d="M268.94,178.16c-.24,1-.75,1.52-1.66,1.36-.73-.13-1.2-.67-1.11-1.44.11-.88.69-1.37,1.6-1.23.76.12,1.06.72,1.16,1.31Z"/>
    <path class="cls-1" d="M234.43,143.69c.86.08,1.46.54,1.46,1.44,0,.89-.58,1.43-1.47,1.41-.76-.01-1.27-.53-1.33-1.26-.08-.9.46-1.41,1.35-1.58Z"/>
    <path class="cls-1" d="M281.34,140.95c-.08.86-.52,1.42-1.42,1.45-.77.02-1.28-.47-1.39-1.19-.14-.89.39-1.5,1.25-1.6.89-.11,1.4.45,1.57,1.34Z"/>
    <path class="cls-1" d="M226.96,113.52c-.96-.1-1.52-.55-1.54-1.45-.02-.77.48-1.28,1.2-1.38.89-.12,1.5.39,1.6,1.26.11.91-.52,1.35-1.25,1.57Z"/>
    <path class="cls-1" d="M260.69,178.1c-.05.86-.5,1.43-1.39,1.49-.77.05-1.29-.43-1.42-1.15-.16-.9.36-1.51,1.2-1.64.88-.13,1.41.42,1.61,1.3Z"/>
    <path class="cls-1" d="M227.6,120.28c-.03.8-.47,1.31-1.23,1.4-.79.1-1.37-.36-1.47-1.13-.12-.92.39-1.53,1.34-1.56.8-.02,1.23.51,1.37,1.29Z"/>
    <path class="cls-1" d="M284.11,118.89c.9.19,1.44.7,1.34,1.6-.07.74-.58,1.25-1.35,1.26-.9,0-1.48-.54-1.47-1.43,0-.9.61-1.36,1.48-1.43Z"/>
    <path class="cls-1" d="M250.94,179.6c-.89-.15-1.43-.68-1.32-1.6.09-.74.62-1.26,1.42-1.2.92.06,1.45.67,1.34,1.57-.09.74-.62,1.2-1.44,1.23Z"/>
    <path class="cls-1" d="M235.86,153.29c-.01.77-.4,1.31-1.14,1.44-.9.15-1.49-.34-1.59-1.23-.09-.76.37-1.32,1.11-1.44.91-.15,1.42.37,1.62,1.24Z"/>
    <path class="cls-1" d="M224.07,91.43c-.15.9-.67,1.43-1.56,1.33-.73-.08-1.21-.6-1.18-1.38.03-.77.5-1.28,1.25-1.32.9-.05,1.39.49,1.5,1.38Z"/>
    <path class="cls-1" d="M281.32,149.21c-.18.9-.59,1.41-1.37,1.4-.91,0-1.46-.56-1.38-1.46.08-.88.69-1.37,1.59-1.23.77.12,1.06.72,1.16,1.29Z"/>
    <path class="cls-1" d="M230.41,131.32c.89.15,1.44.68,1.33,1.6-.09.74-.63,1.26-1.42,1.2-.92-.06-1.45-.67-1.34-1.58.09-.74.62-1.19,1.43-1.23Z"/>
    <path class="cls-1" d="M260.63,186.56c-.17.77-.6,1.3-1.41,1.24-.93-.07-1.44-.67-1.27-1.6.13-.77.73-1.2,1.51-1.08.76.12,1.18.65,1.18,1.45Z"/>
    <path class="cls-1" d="M290.2,91.43c-.14.88-.63,1.46-1.53,1.38-.88-.07-1.41-.67-1.31-1.57.08-.73.6-1.24,1.36-1.25.91-.01,1.37.55,1.48,1.43Z"/>
    <path class="cls-1" d="M230.42,123.01c.89.2,1.48.72,1.35,1.62-.12.87-.75,1.4-1.66,1.25-.73-.12-1.23-.65-1.19-1.43.05-.91.62-1.37,1.5-1.44Z"/>
    <path class="cls-1" d="M230.26,139.62c.92.12,1.44.56,1.44,1.35,0,.95-.61,1.48-1.53,1.37-.75-.09-1.25-.63-1.17-1.45.08-.79.62-1.17,1.26-1.27Z"/>
    <path class="cls-1" d="M277.21,153.5c-.21.88-.73,1.41-1.62,1.29-.72-.1-1.23-.61-1.21-1.37.02-.89.57-1.45,1.46-1.42.89.03,1.33.64,1.37,1.5Z"/>
    <path class="cls-1" d="M273.05,174.04c-.2.89-.63,1.42-1.43,1.36-.93-.07-1.43-.67-1.27-1.6.13-.77.72-1.18,1.5-1.08.78.11,1.11.7,1.2,1.31Z"/>
    <path class="cls-1" d="M238.52,156.08c1.01.19,1.58.68,1.49,1.57-.09.87-.7,1.39-1.58,1.28-.72-.09-1.21-.6-1.22-1.37,0-.93.64-1.29,1.31-1.48Z"/>
    <path class="cls-1" d="M242.68,171.33c-.89-.15-1.42-.68-1.31-1.59.09-.73.62-1.25,1.41-1.2.92.07,1.44.66,1.33,1.56-.09.73-.62,1.19-1.43,1.22Z"/>
    <path class="cls-1" d="M256.53,182.11c-.02.88-.41,1.43-1.15,1.56-.91.15-1.51-.35-1.61-1.25-.09-.78.39-1.32,1.12-1.46.94-.18,1.4.42,1.64,1.15Z"/>
    <path class="cls-1" d="M268.96,170c-.2.89-.72,1.45-1.61,1.32-.85-.12-1.38-.74-1.22-1.64.13-.72.65-1.21,1.42-1.17.89.05,1.34.63,1.4,1.49Z"/>
    <path class="cls-1" d="M264.84,173.89c-.09.97-.54,1.54-1.44,1.57-.77.03-1.29-.47-1.4-1.19-.14-.9.39-1.51,1.25-1.62.91-.12,1.36.51,1.59,1.25Z"/>
    <path class="cls-1" d="M256.6,173.88c-.06.96-.52,1.54-1.42,1.6-.78.05-1.31-.44-1.45-1.17-.17-.92.37-1.54,1.22-1.67.91-.15,1.4.47,1.65,1.25Z"/>
    <path class="cls-1" d="M242.72,163.12c-.89-.15-1.45-.63-1.41-1.55.04-.76.55-1.28,1.31-1.33.91-.06,1.51.48,1.55,1.38.04.91-.56,1.39-1.44,1.51Z"/>
    <path class="cls-1" d="M264.77,182.38c-.14.88-.66,1.4-1.56,1.29-.73-.09-1.23-.6-1.18-1.39.06-.91.65-1.41,1.54-1.31.73.08,1.16.61,1.2,1.4Z"/>
    <path class="cls-1" d="M285.44,128.52c-.01.76-.4,1.31-1.15,1.43-.91.15-1.54-.36-1.61-1.25-.07-.91.5-1.47,1.41-1.47.78,0,1.2.52,1.35,1.29Z"/>
    <path class="cls-1" d="M288.71,101.08c-.88-.15-1.42-.67-1.31-1.58.09-.73.62-1.24,1.41-1.19.92.06,1.43.66,1.32,1.55-.09.73-.61,1.18-1.42,1.21Z"/>
    <path class="cls-1" d="M277.16,161.75c-.15.76-.57,1.27-1.34,1.27-.91,0-1.46-.56-1.38-1.46.08-.88.69-1.38,1.59-1.23.74.13,1.12.67,1.13,1.42Z"/>
    <path class="cls-1" d="M248.29,173.95c-.02.79-.42,1.34-1.17,1.47-.93.16-1.52-.36-1.64-1.26-.1-.79.39-1.34,1.14-1.47.93-.17,1.45.39,1.67,1.26Z"/>
    <path class="cls-1" d="M238.55,167.17c-.88-.14-1.39-.67-1.29-1.56.09-.73.6-1.23,1.38-1.17.9.06,1.41.65,1.31,1.54-.09.72-.6,1.17-1.4,1.2Z"/>
    <path class="cls-1" d="M252.36,186.5c-.11.78-.54,1.3-1.33,1.29-.95,0-1.46-.61-1.36-1.52.09-.75.64-1.24,1.44-1.15.77.08,1.21.58,1.24,1.38Z"/>
    <path class="cls-1" d="M270.23,165.96c.05-.93.5-1.47,1.24-1.55.91-.11,1.51.42,1.57,1.35.05.8-.47,1.33-1.21,1.42-.93.12-1.41-.48-1.6-1.21Z"/>
    <path class="cls-1" d="M288.78,106.62c.81.12,1.1.68,1.06,1.42-.04.77-.44,1.3-1.27,1.2-.75-.09-1.21-.62-1.14-1.4.07-.76.55-1.18,1.35-1.23Z"/>
    <path class="cls-1" d="M224,99.65c-.07.68-.48,1.04-1.13,1.05-.81.02-1.25-.43-1.21-1.24.03-.64.39-1.1,1.07-1.09.77.02,1.2.49,1.27,1.27Z"/>
    <path class="cls-1" d="M284.04,135.56c.69.07,1.02.52,1.03,1.15,0,.8-.45,1.24-1.26,1.18-.65-.05-1.09-.44-1.06-1.1.03-.76.51-1.19,1.29-1.23Z"/>
    <path class="cls-1" d="M242.95,176.87c.7.2,1.18.61,1.07,1.42-.09.67-.59.97-1.23.92-.82-.06-1.17-.57-1.06-1.37.09-.68.53-.97,1.22-.97Z"/>
    <path class="cls-1" d="M280.83,165.83c-.08.55-.38.89-.95.86-.56-.03-.89-.37-.86-.94.03-.56.37-.89.95-.86.56.03.86.37.87.94Z"/>
    <path class="cls-1" d="M235.4,169.97c-.07.56-.38.9-.95.86-.56-.04-.9-.38-.87-.95.03-.56.37-.9.95-.87.56.03.87.37.87.95Z"/>
    <path class="cls-1" d="M275.68,170.87c-.53-.12-.87-.43-.82-.99.06-.71.52-1,1.18-.86.56.11.77.58.67,1.09-.1.52-.48.79-1.04.76Z"/>
    <path class="cls-1" d="M235.43,161.8c-.14.52-.46.86-1.02.8-.71-.08-.99-.54-.84-1.21.13-.56.6-.75,1.11-.65.54.1.77.52.74,1.06Z"/>
    <path class="cls-1" d="M279.86,156.58c.56,0,.93.29.99.82.07.68-.31,1.1-1.01,1.06-.54-.03-.86-.38-.85-.95,0-.56.33-.86.88-.93Z"/>
    <path class="cls-1" d="M230.46,158.45c-.57.03-.93-.27-1.01-.81-.08-.57.25-.93.79-1.01.57-.08.93.25,1.01.79.08.57-.26.88-.79,1.02Z"/>
    <path class="cls-1" d="M284.09,152.5c.54.08.88.38.85.94-.03.55-.37.88-.93.85-.55-.03-.88-.37-.85-.93.03-.55.35-.86.93-.86Z"/>
    <path class="cls-1" d="M238.74,173.11c.52.14.86.46.8,1.01-.08.7-.54.99-1.21.83-.56-.13-.75-.6-.65-1.1.1-.53.51-.76,1.06-.74Z"/>
    <path class="cls-1" d="M230.29,148.32c.56,0,.93.29.98.82.06.68-.31,1.1-1.01,1.06-.54-.03-.86-.38-.85-.95,0-.56.33-.85.88-.93Z"/>
    <path class="cls-1" d="M223.61,108.08c-.14.52-.45.85-1,.79-.69-.08-.98-.53-.83-1.2.13-.55.59-.74,1.1-.64.53.1.76.51.73,1.05Z"/>
    <path class="cls-1" d="M284.97,145.17c-.06.54-.36.88-.9.88-.71,0-1.03-.46-.93-1.1.07-.51.47-.82,1.02-.74.52.07.82.41.82.96Z"/>
    <path class="cls-1" d="M222.63,117.12c-.56-.07-.9-.38-.86-.95.04-.56.38-.9.95-.86.56.03.9.37.86.95-.04.56-.37.87-.95.87Z"/>
    <path class="cls-1" d="M275.75,177.28c.57.01.9.32.93.88.03.57-.31.9-.87.93-.57.03-.9-.32-.93-.87-.03-.57.31-.87.86-.94Z"/>
    <path class="cls-1" d="M288.71,115.26c.56,0,.93.29.98.81.07.68-.31,1.1-1.01,1.06-.54-.03-.86-.38-.85-.94,0-.56.33-.85.87-.93Z"/>
    <path class="cls-1" d="M227.14,136.75c.03.58-.26.94-.81,1.02-.57.08-.94-.25-1.02-.8-.09-.57.25-.94.8-1.02.57-.08.89.26,1.03.79Z"/>
    <path class="cls-1" d="M289.1,124.44c-.01.59-.33.92-.9.95-.58.03-.92-.31-.95-.88-.03-.59.32-.92.88-.95.58-.03.89.32.96.88Z"/>
    <path class="cls-1" d="M239.52,182.44c-.14.53-.45.87-1.02.78-.53-.08-.87-.45-.79-1.01.08-.53.45-.87,1.01-.78.54.08.83.44.79,1.01Z"/>
    <path class="cls-1" d="M272.57,182.78c0,.12-.32.45-.85.46-.7.02-1.05-.42-.97-1.07.06-.51.45-.83,1-.77.53.06.85.37.82,1.38Z"/>
    <path class="cls-1" d="M226.26,127.66c.55.06.87.36.89.92.02.56-.3.92-.84.96-.7.05-1.09-.36-1.03-1.05.05-.53.41-.83.97-.83Z"/>
    <path class="cls-1" d="M289.08,132.85c-.14.52-.45.86-1.01.77-.53-.08-.86-.44-.77-1,.08-.53.44-.86,1-.78.53.08.82.43.79,1Z"/>
    <path class="cls-1" d="M242.85,185.53c.54.14.88.47.8,1.04-.08.55-.45.89-1.03.8-.54-.08-.88-.45-.8-1.03.08-.55.45-.84,1.03-.81Z"/>
    <path class="cls-1" d="M268.47,186.38c.02.56-.27.94-.79,1-.67.07-1.1-.29-1.08-.99.02-.54.36-.87.92-.87.56,0,.85.33.95.86Z"/>
    <path class="cls-1" d="M247.8,190.69c-.1.53-.41.86-.96.82-.7-.05-.99-.51-.86-1.16.11-.54.56-.77,1.07-.68.51.09.79.46.76,1.02Z"/>
    <path class="cls-1" d="M256.09,190.72c-.14.53-.46.87-1.02.81-.71-.08-1-.54-.84-1.22.13-.56.6-.76,1.12-.66.54.1.77.52.75,1.07Z"/>
    <path class="cls-1" d="M264.34,190.7c-.12.53-.43.86-.99.82-.71-.06-1-.52-.86-1.18.11-.56.58-.77,1.08-.67.52.1.79.48.76,1.04Z"/>
    <path class="cls-1" d="M245.72,52.47c1.13.33,2.26.36,3.4.04.25-.25.5-.5.75-.75.35-1.11.23-2.23.11-3.35,0,0,0,0,0,0-.28-.28-.56-.55-.83-.83,0,0,0,0,0,0-1.16-.14-2.31-.2-3.45.12-.21.22-.42.43-.63.65h0c-.32,1.17-.33,2.33.01,3.5h0s0,0,0,0c.21.21.42.42.64.63Z"/>
    <path class="cls-1" d="M257.38,47.56s0,0,0,0h0c.3.29.59.58.89.87,1.06.36,2.12.36,3.17,0,.29-.29.58-.57.88-.86.41-1.14.3-2.27-.05-3.39h0s0,0,0,0c-1.6-.95-3.21-.95-4.82-.04-.37,1.13-.48,2.27-.07,3.42Z"/>
    <path class="cls-1" d="M265.69,47.62s0,0,0,0h0c.26.25.52.51.79.76,1.13.32,2.25.3,3.37-.04.22-.21.44-.43.66-.64h0s0,0,0,0c.55-3.96-.88-5.01-4.74-3.5-.38,1.13-.39,2.28-.07,3.42Z"/>
    <path class="cls-1" d="M261.65,68.49c-1.19-.29-2.38-.26-3.58-.06-.18.18-.36.36-.55.55,0,0,0,0,0,0,0,1.22,0,2.45,0,3.68,0,0,0,0,0,0,0,0,0,0,0,0,.15.15.29.29.44.44,0,0,0,0,0,0,0,0,0,0,0,0,1.27,0,2.55,0,3.82,0,0,0,0,0,0,0,0,0,0,0,0,0,.13-.13.24-.27.35-.42.24-1.24.27-2.49,0-3.73-.16-.15-.32-.3-.48-.45,0,0,0,0,0,0Z"/>
    <path class="cls-1" d="M245.56,60.69s0,0,0,0c1.23,0,2.45.02,3.68.03.19-.19.38-.38.57-.57h0s0,0,0,0c.03-1.17.06-2.35.09-3.52,0,0,0,0,0,0-.24-.24-.47-.47-.71-.71,0,0,0,0,0,0-1.18.06-2.35.12-3.53.19,0,0,0,0,0,0-.16.14-.31.28-.47.43h0c-.3,1.23-.27,2.47-.03,3.71.13.15.27.3.4.45,0,0,0,0,0,0Z"/>
    <path class="cls-1" d="M269.91,51.95c-1.17-.06-2.34-.13-3.51-.2-.25.25-.5.5-.76.76,0,0,0,0,0,0,.03,1.15.07,2.3.1,3.45l.64.64c1.2-.01,2.39-.02,3.59-.04h0s0,0,0,0c.16-.17.31-.33.47-.5.23-1.22.25-2.44-.04-3.65-.16-.15-.33-.31-.49-.46,0,0,0,0,0,0Z"/>
    <path class="cls-1" d="M245.7,47.7c-.03-1.16-.05-2.32-.08-3.48,0,0,0,0,0,0-1.36-.74-2.74-1.21-4.07-.01-.81.73-.91,1.75-.51,2.71.79,1.92,2.47,1.56,4.03,1.43h0c.21-.22.42-.43.63-.65Z"/>
    <path class="cls-1" d="M261.78,73.08c-.39,1.27-.22,2.56-.13,3.84.1.07.2.14.3.19h0c1.32.13,2.72.61,3.82-.58.74-.79.86-1.76.4-2.69-.89-1.81-2.5-1.46-4.04-1.18,0,0,0,0,0,0-.1.15-.22.29-.35.42,0,0,0,0,0,0Z"/>
    <path class="cls-1" d="M258.05,76.87s0,0,0,0c.13-1.26.26-2.53-.09-3.79,0,0,0,0,0,0-.15-.15-.29-.29-.44-.44,0,0,0,0,0,0-1.2-.3-2.41-.33-3.6.05,0,0,0,0,0,0-.12.12-.26.23-.4.33,0,0,0,0,0,0-.51,3.86.17,4.52,4.17,4.11.13-.08.25-.17.36-.27,0,0,0,0,0,0Z"/>
    <path class="cls-1" d="M253.92,72.69s0,0,0,0c0-1.24-.02-2.48-.02-3.73-.17-.17-.34-.34-.52-.52,0,0,0,0,0,0-1.2-.21-2.4-.27-3.59.11,0,0,0,0,0,0-.12.12-.26.23-.4.33,0,0,0,0,0,0-.52,3.84.16,4.53,4.13,4.13,0,0,0,0,0,0,.14-.1.27-.21.4-.33,0,0,0,0,0,0Z"/>
    <path class="cls-1" d="M265.79,64.39c-1.18-.34-2.37-.27-3.57-.14-.2.2-.4.41-.61.61h0,0c.01,1.21.02,2.42.04,3.63,0,0,0,0,0,0,0,0,0,0,0,0,.16.15.32.3.48.45,3.91.32,4.54-.32,4.1-4.15l-.44-.4s0,0,0,0Z"/>
    <path class="cls-1" d="M249.79,68.56s0,0,0,0c0-1.24,0-2.48-.01-3.72-.18-.18-.35-.35-.53-.53,0,0,0,0,0,0-1.21-.18-2.41-.29-3.58.21,0,0,0,0,0,0-.1.08-.2.15-.31.21,0,0,0,0,0,0-.7,3.8.03,4.55,4.03,4.17,0,0,0,0,0,0,.14-.1.27-.21.4-.33,0,0,0,0,0,0Z"/>
    <path class="cls-1" d="M269.92,60.37c-1.16-.5-2.37-.37-3.57-.24-.2.2-.39.39-.59.59,0,1.22.02,2.44.03,3.67,0,0,0,0,0,0,0,0,0,0,0,0l.44.4c3.98.35,4.69-.4,4-4.18-.11-.07-.21-.14-.31-.23,0,0,0,0,0,0Z"/>
    <path class="cls-1" d="M269.85,48.34s0,0,0,0c.02,1.2.04,2.4.07,3.61,0,0,0,0,0,0,0,0,0,0,0,0,.16.15.33.31.49.46,3.2.24,4.63-.64,4.25-2.7-.46-2.45-2.38-2.11-4.14-2.02h0c-.22.21-.44.43-.66.64Z"/>
    <path class="cls-1" d="M245.66,56.1s0,0,0,0c.02-1.21.04-2.42.06-3.63,0,0,0,0,0,0-.21-.21-.42-.42-.64-.63h0c-2.03-.15-4.3-.34-4.12,2.59.16,2.68,2.35,2.34,4.24,2.1,0,0,0,0,0,0,.16-.14.31-.28.47-.43,0,0,0,0,0,0Z"/>
    <path class="cls-1" d="M261.96,77.12s0,0,0,0c-.11-.05-.21-.12-.3-.19-1.19-.48-2.39-.45-3.6-.05,0,0,0,0,0,0-.11.1-.23.19-.36.27-.38,1.65-.71,3.35,1.34,4.15,2.24.87,3.51-.98,2.93-4.17Z"/>
    <path class="cls-1" d="M245.66,64.51s0,0,0,0c-.03-1.27-.06-2.55-.1-3.83,0,0,0,0,0,0-.13-.15-.27-.3-.4-.45,0,0,0,0,0,0-1.95-.31-4.04-.42-4.13,2.21-.08,2.4,1.81,2.64,3.75,2.36.19-.03.39-.05.58-.07,0,0,0,0,0,0,.1-.06.21-.13.31-.21,0,0,0,0,0,0Z"/>
    <path class="cls-1" d="M269.97,56.57c-.02,1.27-.03,2.54-.05,3.81,0,0,0,0,0,0,0,0,0,0,0,0,.1.08.2.16.31.23,1.34.17,2.73.52,3.8-.7.71-.81.83-1.77.28-2.7-.92-1.56-2.42-1.34-3.88-1.15,0,0,0,0,0,0-.16.17-.31.33-.47.5,0,0,0,0,0,0Z"/>
    <path class="cls-1" d="M278.73,54.25c-.15-1.37-.86-2.27-2.21-2.33-1.5-.07-2.42.81-2.45,2.31-.02,1.36.82,2.23,2.16,2.31,1.51.08,2.3-.84,2.5-2.29Z"/>
    <path class="cls-1" d="M237.33,54.29c.07-1.36-.81-2.11-2.12-2.36-1.35.07-2.26.76-2.39,2.09-.13,1.35.65,2.3,1.98,2.45,1.49.17,2.45-.69,2.53-2.17Z"/>
    <path class="cls-1" d="M239.12,56c-1.45.23-2.35,1.06-2.23,2.57.11,1.33,1,2.17,2.37,2.11,1.5-.07,2.36-1.03,2.25-2.52-.1-1.35-1.02-2.05-2.4-2.16Z"/>
    <path class="cls-1" d="M245.62,78.8c-.11-1.32-1.02-2.02-2.49-2.12-1.15.25-2.08.91-2.09,2.28,0,1.49.89,2.4,2.37,2.35,1.48-.05,2.33-1.03,2.2-2.51Z"/>
    <path class="cls-1" d="M272.04,77.17c1.49.12,2.3-.78,2.53-2.21-.11-1.35-.81-2.26-2.14-2.36-1.48-.11-2.42.75-2.49,2.23-.06,1.35.77,2.24,2.09,2.34Z"/>
    <path class="cls-1" d="M280.57,60.56c1.36-.04,2.05-.94,2.19-2.27-.23-1.33-.96-2.2-2.32-2.15-1.35.05-2.19.92-2.14,2.28.05,1.35.92,2.18,2.27,2.14Z"/>
    <path class="cls-1" d="M235.01,64.72c1.38.05,2.12-.82,2.35-2.17-.14-1.34-.84-2.24-2.21-2.29-1.37-.04-2.25.8-2.29,2.16-.05,1.37.8,2.25,2.16,2.3Z"/>
    <path class="cls-1" d="M280.57,52.33c1.38-.04,2.08-.95,2.22-2.29-.23-1.34-.97-2.23-2.35-2.18-1.36.05-2.21.93-2.17,2.3.05,1.37.93,2.21,2.3,2.17Z"/>
    <path class="cls-1" d="M239.02,52.43c1.5.13,2.33-.76,2.6-2.37-.18-1.27-.83-2.28-2.36-2.32-1.36-.03-2.25.75-2.38,2.09-.15,1.49.66,2.47,2.14,2.6Z"/>
    <path class="cls-1" d="M276.43,60.22c-1.51-.01-2.41.93-2.33,2.43.07,1.36,1,2.06,2.36,2.16,1.34-.22,2.21-.96,2.19-2.34-.02-1.36-.86-2.25-2.22-2.26Z"/>
    <path class="cls-1" d="M272.42,80.91c-1.49-.1-2.42.79-2.42,2.29,0,1.35.89,2.07,2.22,2.25,1.32-.15,2.21-.85,2.27-2.19.06-1.36-.75-2.26-2.08-2.35Z"/>
    <path class="cls-1" d="M239.39,64.34c-1.48-.09-2.41.77-2.47,2.24-.05,1.34.78,2.23,2.09,2.32,1.49.11,2.29-.79,2.53-2.33-.18-1.2-.82-2.15-2.16-2.23Z"/>
    <path class="cls-1" d="M272.52,68.93c1.35-.14,2.03-1.08,2.09-2.57-.27-1.16-.96-2.09-2.36-2.06-1.51.03-2.42.95-2.33,2.46.09,1.5,1.09,2.34,2.59,2.18Z"/>
    <path class="cls-1" d="M247.64,77.23c1.34-.08,2.16-.94,2.17-2.3,0-1.51-.9-2.27-2.54-2.45-1.25.27-2.23.98-2.15,2.51.08,1.49,1.03,2.33,2.52,2.24Z"/>
    <path class="cls-1" d="M264.04,80.82c-1.34-.06-2.23.74-2.38,2.05-.17,1.48.66,2.46,2.11,2.6,1.48.14,2.31-.75,2.58-2.19-.1-1.45-.83-2.4-2.31-2.47Z"/>
    <path class="cls-1" d="M255.69,80.76c-1.47.2-2.37.99-2.31,2.5.05,1.35.89,2.19,2.24,2.23,1.5.05,2.42-.81,2.45-2.31.03-1.51-.91-2.27-2.37-2.42Z"/>
    <path class="cls-1" d="M247.61,80.84c-1.5-.07-2.43.8-2.46,2.3-.03,1.36.82,2.24,2.16,2.31,1.51.09,2.3-.83,2.5-2.27-.14-1.37-.85-2.27-2.2-2.34Z"/>
    <path class="cls-1" d="M239.27,80.89c-1.33.13-2.23.83-2.28,2.19-.05,1.36.79,2.24,2.14,2.29,1.36.05,2.23-.79,2.29-2.14.06-1.37-.81-2.11-2.15-2.34Z"/>
    <path class="cls-1" d="M235.01,72.95c1.36.05,2.09-.81,2.31-2.14-.14-1.32-.83-2.21-2.18-2.25-1.35-.04-2.21.79-2.26,2.13-.05,1.35.79,2.21,2.13,2.26Z"/>
    <path class="cls-1" d="M243.25,68.44c-1.5.06-2.35,1.05-2.22,2.55.12,1.35,1.04,2.04,2.41,2.13,1.33-.2,2.22-.94,2.23-2.31,0-1.51-.9-2.43-2.41-2.37Z"/>
    <path class="cls-1" d="M268,68.4c-1.5.09-2.33,1.05-2.23,2.54.09,1.34.96,2.16,2.32,2.16,1.52,0,2.27-.93,2.44-2.56-.27-1.26-1-2.24-2.53-2.14Z"/>
    <path class="cls-1" d="M276.5,73c1.34-.08,2.03-.97,2.16-2.3-.21-1.32-.93-2.21-2.28-2.19-1.48.02-2.36.96-2.25,2.44.1,1.31,1.02,2.13,2.37,2.04Z"/>
    <path class="cls-1" d="M276.43,76.76c-1.33.14-2.23.83-2.27,2.19-.04,1.36.79,2.23,2.14,2.28,1.36.05,2.23-.79,2.28-2.14.05-1.36-.81-2.1-2.15-2.33Z"/>
    <path class="cls-1" d="M268.29,76.7c-1.5-.09-2.44.78-2.5,2.28-.05,1.37.79,2.25,2.14,2.35,1.51.1,2.32-.81,2.54-2.25-.12-1.38-.83-2.29-2.18-2.37Z"/>
    <path class="cls-1" d="M253.94,78.84c-.12-1.49-1.11-2.3-2.6-2.16-1.34.13-2.14,1.01-2.1,2.38.04,1.51.98,2.25,2.46,2.36,1.46-.24,2.36-1.07,2.24-2.57Z"/>
    <path class="cls-1" d="M239.21,77.13c1.35.03,2.09-.85,2.29-2.18-.11-1.33-.81-2.22-2.15-2.32-1.35-.09-2.27.72-2.39,2.04-.12,1.48.75,2.43,2.24,2.46Z"/>
    <path class="cls-1" d="M280.38,64.45c-1.36.11-2.17,1.01-2.04,2.39.11,1.22.94,1.89,2.2,1.95,1.32-.27,2.19-1.02,2.04-2.43-.13-1.21-.93-2.02-2.2-1.92Z"/>
    <path class="cls-1" d="M231,52.27c1.28-.14,2.08-.85,2.11-2.07.04-1.38-.79-2.24-2.17-2.27-1.27-.03-2.03.82-2.08,2.04-.07,1.41.83,2.11,2.14,2.31Z"/>
    <path class="cls-1" d="M234.79,76.97c-1.22.15-1.92,1.03-1.78,2.26.13,1.22.97,1.85,2.2,1.9,1.21-.24,2.02-.94,1.94-2.18-.08-1.36-.97-2.16-2.35-1.98Z"/>
    <path class="cls-1" d="M280.38,72.84c-1.25.08-2.01.91-1.92,2.16.08,1.25.91,2,2.17,1.92,1.26-.08,1.89-.91,1.96-2.15-.23-1.24-.94-2.02-2.2-1.94Z"/>
    <path class="cls-1" d="M284.77,52.21c-1.24-.08-2.06.65-2.15,1.88-.09,1.24.65,2.05,1.88,2.14,1.25.09,1.95-.66,2.18-1.89-.06-1.22-.67-2.05-1.91-2.13Z"/>
    <path class="cls-1" d="M230.9,60.41c1.23.06,1.92-.73,2.14-1.94-.06-1.21-.69-2.04-1.9-2.16-1.22-.12-2.09.58-2.23,1.79-.16,1.37.62,2.25,1.98,2.32Z"/>
    <path class="cls-1" d="M230.82,68.65c1.25.08,1.96-.69,2.19-1.92-.07-1.22-.7-2.05-1.95-2.13-1.25-.08-2.07.67-2.15,1.9-.08,1.25.66,2.07,1.9,2.15Z"/>
    <path class="cls-1" d="M280.47,81.09c-1.06.15-1.92.71-1.97,1.97-.05,1.24.68,2.03,1.91,2.09,1.24.06,2.03-.67,2.09-1.91.06-1.25-.7-1.93-2.04-2.15Z"/>
    <path class="cls-1" d="M230.76,72.9c-1.1.09-1.82.8-1.79,1.94.03,1.24.8,2.03,2.05,2.02,1.28,0,1.88-.86,1.96-2.08-.23-1.26-.95-1.99-2.21-1.89Z"/>
    <path class="cls-1" d="M284.44,60.52c-1.1.06-1.78.81-1.79,1.92-.01,1.25.73,1.93,1.99,2.06,1.18-.21,2.02-.85,1.94-2.1-.07-1.23-.91-1.95-2.14-1.88Z"/>
    <path class="cls-1" d="M234.94,48.25c1.35.07,2.13-.71,2.41-1.96,0-1.43-.96-1.6-1.98-1.57-1.11.03-2.57-.27-2.52,1.52.03,1.21.9,1.94,2.09,2.01Z"/>
    <path class="cls-1" d="M276.4,48.3c1.32-.02,2.32-.79,2.27-2.11-.06-1.72-1.87-.81-2.52-1.46-1.23-.04-2.22.14-2.08,1.5.13,1.33,1,2.09,2.34,2.07Z"/>
    <path class="cls-1" d="M249.15,47.58c.28.28.56.55.83.83,1.07.37,2.14.36,3.21.02,0,0,0,0,0,0,0,0,0,0,0,0,.29-.29.58-.57.86-.86h0s0,0,0,0c.38-1.14.3-2.27-.05-3.39h0,0c-1.6-.95-3.2-.95-4.8-.01h0s0,0,0,0c-.38,1.13-.46,2.27-.06,3.41Z"/>
    <path class="cls-1" d="M226.88,52.52c-1.16,0-1.81.64-1.76,1.79.05,1.17.81,1.72,1.94,1.61,1.01-.1,1.47-.79,1.49-1.78-.11-1.01-.65-1.62-1.67-1.63Z"/>
    <path class="cls-1" d="M222.47,56.77c-.86.1-1.4.69-1.38,1.58.03,1.02.64,1.63,1.66,1.59,1.03-.04,1.51-.72,1.55-1.72-.21-1.01-.81-1.58-1.83-1.46Z"/>
    <path class="cls-1" d="M288.82,60.02c1.03-.14,1.62-.71,1.57-1.74-.05-1.03-.69-1.61-1.71-1.56-1.03.04-1.6.69-1.56,1.71.04,1.03.69,1.54,1.7,1.59Z"/>
    <path class="cls-1" d="M227.03,60.81c-1-.11-1.74.37-1.88,1.4-.16,1.15.42,1.89,1.59,1.96,1.03.06,1.61-.53,1.78-1.63-.03-.9-.47-1.62-1.5-1.73Z"/>
    <path class="cls-1" d="M231.08,81.44c-1-.08-1.7.42-1.83,1.44-.15,1.14.41,1.83,1.55,2.01,1.02,0,1.72-.44,1.85-1.46.14-1.13-.39-1.89-1.56-1.99Z"/>
    <path class="cls-1" d="M222.51,65.06c-.88.08-1.41.69-1.39,1.6.02.91.56,1.49,1.46,1.53,1.05.05,1.6-.57,1.71-1.59-.15-1.05-.74-1.64-1.78-1.55Z"/>
    <path class="cls-1" d="M288.59,68.23c1.03.08,1.72-.47,1.78-1.52.06-1.05-.57-1.6-1.59-1.73-1.03.1-1.64.64-1.63,1.69.01.91.56,1.49,1.45,1.56Z"/>
    <path class="cls-1" d="M284.61,77.31c-1.03.09-1.64.63-1.66,1.66-.02,1.03.54,1.68,1.57,1.72,1.17.05,1.84-.61,1.8-1.78-.04-1.03-.7-1.54-1.7-1.6Z"/>
    <path class="cls-1" d="M226.75,77.38c-1.02.05-1.61.68-1.57,1.71.04,1.03.7,1.54,1.7,1.6,1.03-.14,1.62-.7,1.58-1.74-.04-1.03-.68-1.61-1.7-1.57Z"/>
    <path class="cls-1" d="M226.96,69.09c-1-.08-1.7.45-1.8,1.45-.11,1.13.49,1.85,1.66,1.87,1.02.02,1.56-.59,1.68-1.6-.04-.99-.53-1.64-1.54-1.72Z"/>
    <path class="cls-1" d="M284.39,69.06c-1.01.11-1.52.79-1.46,1.8.05,1.01.65,1.6,1.66,1.61,1.16,0,1.73-.67,1.78-1.79-.16-1.17-.85-1.73-1.98-1.61Z"/>
    <path class="cls-1" d="M288.56,73.3c-.86.09-1.41.68-1.39,1.57.02,1.03.62,1.64,1.65,1.61,1.03-.03,1.52-.71,1.56-1.7-.2-1.02-.8-1.59-1.82-1.48Z"/>
    <path class="cls-1" d="M284.59,48.01c.95.02,1.92-.39,1.79-1.47-.17-1.37-1.65-1.11-2.54-1.58-.9-.06-1.31.46-1.22,1.25.13,1.1.86,1.78,1.97,1.8Z"/>
    <path class="cls-1" d="M222.97,48.55c-1.06-.04-1.5.8-1.68,1.68-.2.99.47,1.36,1.33,1.51,1.01-.07,1.64-.57,1.68-1.61.04-.89-.43-1.55-1.33-1.58Z"/>
    <path class="cls-1" d="M288.47,81.64c-.88.08-1.36.74-1.28,1.63.08.88.62,1.38,1.66,1.42.67-.22,1.36-.61,1.34-1.52-.03-1.04-.72-1.61-1.72-1.53Z"/>
    <path class="cls-1" d="M222.57,81.76c-.76.05-1.26.56-1.28,1.35-.03.8.47,1.33,1.22,1.42.91.11,1.44-.44,1.6-1.36-.12-.89-.61-1.46-1.53-1.41Z"/>
    <path class="cls-1" d="M222.49,76.3c.9.12,1.52-.41,1.61-1.29.09-.9-.49-1.4-1.38-1.57-.87.09-1.44.56-1.46,1.47-.02.78.5,1.3,1.22,1.39Z"/>
    <path class="cls-1" d="M288.63,51.75c.69.02,1.11-.37.94-1.09-.19-.82-.23-1.78-1.35-2.02-.82.09-1.14.66-1.14,1.4,0,1.01.49,1.67,1.55,1.71Z"/>
    <path class="cls-1" d="M227.11,45.37c-.8.02-1.71.14-1.73,1.16-.03,1.03.83,1.24,1.66,1.18.85-.06,1.46-.51,1.61-1.4-.1-1.02-.87-.96-1.54-.94Z"/>
    <path class="cls-1" d="M253.26,56.65s0,0,0,0c0,0,0,0,0,0,.25-.26.5-.52.75-.77.35-1.1.25-2.22.1-3.34,0,0,0,0,0,0-.28-.27-.57-.54-.85-.8-1.13,0-2.26.01-3.39.02,0,0,0,0,0,0-.25.25-.5.5-.75.75-.21,1.14-.29,2.28.07,3.41.24.24.47.47.71.71,1.11.34,2.23.33,3.35.03Z"/>
    <path class="cls-1" d="M253.26,51.74c.28.27.57.54.85.8,1.08.36,2.15.34,3.23.01,0,0,0,0,0,0,0,0,0,0,0,0,.28-.28.56-.56.84-.83h0s0,0,0,0c.37-1.09.27-2.18.09-3.29,0,0,0,0,0,0-.3-.29-.59-.58-.89-.87h0c-1.11,0-2.22,0-3.33.01h0c-.29.29-.58.57-.86.86,0,0,0,0,0,0-.21,1.11-.27,2.21.06,3.31Z"/>
    <path class="cls-1" d="M261.54,51.73s0,0,0,0h0c.27.27.54.54.81.81,0,0,0,0,0,0,0,0,0,0,0,0,1.1.31,2.2.31,3.29-.03.25-.25.5-.5.76-.76.37-1.12.27-2.24.07-3.37,0,0,0,0,0,0-.26-.25-.52-.51-.79-.76h0c-1.12-.02-2.24-.04-3.36-.06-.29.29-.58.57-.88.86-.14,1.11-.25,2.21.1,3.3Z"/>
    <path class="cls-1" d="M257.53,68.97h0s0,0,0,0c.18-.18.36-.36.55-.55.01-1.18.03-2.37.04-3.55,0,0,0,0,0,0,0,0,0,0,0,0-.21-.22-.43-.43-.64-.65,0,0,0,0,0,0-1.17.01-2.35.02-3.52.03-.2.2-.4.4-.6.6h0c0,1.2.01,2.4.02,3.6,0,0,0,0,0,0,0,0,0,0,0,0,.17.17.34.34.52.52,1.21,0,2.42,0,3.63,0Z"/>
    <path class="cls-1" d="M253.36,64.85c.2-.2.4-.4.6-.6h0c.03-1.17.05-2.33.08-3.5-.24-.23-.48-.46-.72-.69,0,0,0,0,0,0,0,0,0,0,0,0-1.16.03-2.33.05-3.49.08h0c-.19.19-.38.38-.57.57,0,1.2,0,2.39,0,3.59,0,0,0,0,0,0,0,0,0,0,0,0,.18.18.35.35.53.53,1.19,0,2.39.01,3.58.02Z"/>
    <path class="cls-1" d="M262.29,55.9s0,0,0,0c0,0,0,0,0,0-.26.25-.53.5-.79.75,0,0,0,0,0,0-.16,1.15-.24,2.29.1,3.43.22.22.45.45.67.67,1.16.33,2.33.3,3.49-.02.2-.2.39-.39.59-.59.34-1.17.32-2.35.03-3.53h0l-.64-.64c-1.15-.29-2.3-.29-3.45-.07Z"/>
    <path class="cls-1" d="M262.27,60.74s0,0,0,0c-.22-.22-.45-.45-.67-.67,0,0,0,0,0,0-1.16-.27-2.32-.26-3.48-.04,0,0,0,0,0,0-.24.24-.48.48-.72.72,0,0,0,0,0,0-.21,1.16-.26,2.31.08,3.46.21.22.43.43.64.65,0,0,0,0,0,0,1.17.31,2.33.31,3.5-.02h0c.2-.2.4-.41.61-.61.34-1.16.31-2.33.05-3.51Z"/>
    <path class="cls-1" d="M257.4,60.76c.24-.24.48-.48.72-.72.35-1.12.26-2.25.1-3.38-.27-.26-.54-.51-.81-.77-1.13,0-2.27,0-3.4,0,0,0,0,0,0,0-.25.26-.5.52-.75.77,0,0,0,0,0,0-.23,1.14-.26,2.28.05,3.41,0,0,0,0,0,0,.24.23.48.46.72.69,1.12.33,2.24.33,3.37,0Z"/>
    <path class="cls-1" d="M257.41,55.89c.27.26.54.51.81.77,1.09.32,2.19.33,3.28,0,.26-.25.53-.5.79-.75,0,0,0,0,0,0,.32-1.11.27-2.23.06-3.36,0,0,0,0,0,0-.27-.27-.54-.54-.81-.81h0c-1.12,0-2.24,0-3.36-.01h0c-.28.28-.56.56-.84.83,0,0,0,0,0,0-.19,1.12-.24,2.23.07,3.34Z"/>
  </g>
  <g>
    <path class="cls-1" d="M171.32,108.41c-1.33-.13-2.22-.82-2.26-2.17-.04-1.35.78-2.22,2.13-2.27,1.35-.05,2.22.78,2.27,2.13.05,1.36-.81,2.1-2.14,2.32Z"/>
    <path class="cls-1" d="M165.28,73.05c-.14,1.34-.83,2.24-2.2,2.29-1.37.04-2.25-.79-2.29-2.15-.05-1.37.79-2.24,2.15-2.3,1.38-.06,2.11.82,2.34,2.16Z"/>
    <path class="cls-1" d="M179.59,108.47c-1.48-.25-2.36-1-2.3-2.38.06-1.36.93-2.21,2.31-2.16,1.36.05,2.2.93,2.16,2.31-.04,1.4-1,2.02-2.17,2.23Z"/>
    <path class="cls-1" d="M190.04,106.23c-.23,1.34-.97,2.2-2.34,2.14-1.35-.06-2.19-.93-2.13-2.29.05-1.35.93-2.18,2.29-2.13,1.36.05,2.05.95,2.18,2.28Z"/>
    <path class="cls-1" d="M165.31,64.87c-.27,1.41-1.01,2.28-2.36,2.22-1.47-.08-2.33-1.03-2.16-2.51.15-1.31,1.08-2.09,2.42-1.97,1.34.12,1.96,1.07,2.1,2.26Z"/>
    <path class="cls-1" d="M177.64,110.24c-.13,1.33-.82,2.22-2.18,2.27-1.36.04-2.23-.79-2.27-2.13-.05-1.36.78-2.22,2.13-2.28,1.37-.05,2.1.81,2.32,2.14Z"/>
    <path class="cls-1" d="M163.06,79.13c1.33.23,2.19.96,2.14,2.32-.05,1.34-.92,2.17-2.27,2.12-1.34-.05-2.17-.92-2.12-2.27.05-1.36.94-2.04,2.26-2.17Z"/>
    <path class="cls-1" d="M181.76,114.49c-.22,1.33-.96,2.19-2.31,2.13-1.34-.06-2.17-.92-2.12-2.27.05-1.34.92-2.17,2.27-2.12,1.35.05,2.04.94,2.16,2.26Z"/>
    <path class="cls-1" d="M185.9,110.36c-.22,1.33-.96,2.2-2.32,2.14-1.35-.05-2.18-.92-2.13-2.28.05-1.35.92-2.18,2.28-2.13,1.36.04,2.05.94,2.18,2.27Z"/>
    <path class="cls-1" d="M162.92,91.86c-1.36-.26-2.1-1.09-1.98-2.43.1-1.18.85-2.01,2.1-1.97,1.35.04,2.18.89,2.14,2.24-.04,1.35-.93,2.05-2.26,2.16Z"/>
    <path class="cls-1" d="M191.91,108.2c1.35.26,2.12.96,2.04,2.22-.09,1.24-.91,2-2.16,1.91-1.24-.08-1.99-.9-1.92-2.16.07-1.27.96-1.84,2.04-1.98Z"/>
    <path class="cls-1" d="M173.36,114.49c-.2,1.22-.87,2.02-2.1,1.99-1.37-.03-2.17-.91-2.04-2.28.11-1.21.96-1.94,2.2-1.84,1.22.09,1.86.91,1.95,2.12Z"/>
    <path class="cls-1" d="M189.88,114.4c-.12,1.22-.77,2.05-1.99,2.09-1.37.05-2.21-.79-2.16-2.16.04-1.22.86-1.98,2.09-1.95,1.23.02,1.9.81,2.06,2.03Z"/>
    <path class="cls-1" d="M159.07,87.56c-1.31-.08-2.14-.69-2.21-1.94-.08-1.24.66-2.05,1.89-2.13,1.24-.08,2.05.66,2.13,1.89.09,1.26-.71,1.92-1.81,2.18Z"/>
    <path class="cls-1" d="M165.09,118.48c.21-1.23.89-1.99,2.14-1.93,1.23.07,1.97.86,1.91,2.1-.06,1.23-.86,1.97-2.1,1.91-1.24-.06-1.86-.87-1.95-2.09Z"/>
    <path class="cls-1" d="M169.22,110.18c-.07,1.24-.7,2.08-1.96,2.16-1.26.08-2.09-.67-2.17-1.92-.09-1.26.67-2.08,1.91-2.17,1.26-.09,1.97.69,2.21,1.93Z"/>
    <path class="cls-1" d="M160.9,93.82c-.19,1.26-.89,2.03-2.16,1.94-1.26-.09-1.97-.93-1.86-2.19.1-1.11.84-1.8,1.97-1.79,1.28.01,1.93.8,2.05,2.04Z"/>
    <path class="cls-1" d="M158.68,66.88c1.31.08,2.16.71,2.24,1.92.09,1.36-.72,2.22-2.09,2.22-1.22,0-1.98-.79-2.01-2.02-.03-1.25.78-1.88,1.86-2.13Z"/>
    <path class="cls-1" d="M183.65,116.47c1.21.14,2.03.8,2.05,2.03.02,1.37-.83,2.19-2.2,2.12-1.21-.07-1.96-.89-1.91-2.12.05-1.23.84-1.88,2.06-2.02Z"/>
    <path class="cls-1" d="M160.95,77.32c-.21,1.24-.91,2.02-2.16,1.96-1.24-.06-2-.87-1.94-2.12.06-1.24.86-2,2.12-1.94,1.25.06,1.88.88,1.98,2.1Z"/>
    <path class="cls-1" d="M171.44,124.75c-1.32-.1-2.13-.73-2.19-1.97-.05-1.24.69-2.04,1.92-2.1,1.24-.06,2.04.69,2.1,1.92.07,1.26-.74,1.91-1.84,2.15Z"/>
    <path class="cls-1" d="M163.07,99.99c-1.23-.1-2.06-.74-2.11-2-.06-1.26.7-2.07,1.95-2.13,1.26-.06,2.07.71,2.13,1.95.06,1.26-.72,1.96-1.97,2.18Z"/>
    <path class="cls-1" d="M175.44,116.46c1.22.18,2.02.85,2.01,2.09-.02,1.38-.89,2.18-2.26,2.06-1.2-.1-1.95-.94-1.86-2.18.09-1.22.9-1.86,2.11-1.97Z"/>
    <path class="cls-1" d="M179.4,120.62c1.23.07,2.07.7,2.15,1.95.08,1.26-.67,2.08-1.91,2.17-1.26.09-2.08-.67-2.16-1.91-.09-1.26.69-1.97,1.92-2.21Z"/>
    <path class="cls-1" d="M189.82,122.71c-.16,1.22-.82,2-2.06,1.98-1.24-.02-1.99-.79-1.97-2.02.01-1.24.78-1.99,2.02-1.98,1.24.01,1.88.8,2.02,2.02Z"/>
    <path class="cls-1" d="M177.44,126.87c-.18,1.23-.86,2-2.1,1.97-1.24-.04-1.99-.82-1.96-2.07.04-1.24.82-1.99,2.07-1.96,1.25.03,1.88.84,1.99,2.06Z"/>
    <path class="cls-1" d="M162.98,104.12c1.23.13,2.02.78,2.03,2.03,0,1.24-.75,2.02-1.99,2.03-1.24.01-2.01-.75-2.03-1.99-.02-1.25.77-1.91,1.99-2.07Z"/>
    <path class="cls-1" d="M183.63,128.86c-1.22-.16-2-.82-1.98-2.06.02-1.24.79-1.99,2.02-1.98,1.24.01,1.99.78,1.98,2.02-.01,1.24-.8,1.89-2.02,2.02Z"/>
    <path class="cls-1" d="M181.55,130.8c-.2,1.28-.82,2.14-2.07,2.11-1.23-.03-1.96-.86-1.94-2.09.02-1.11.76-1.79,1.86-1.84,1.26-.06,1.91.72,2.14,1.83Z"/>
    <path class="cls-1" d="M164.99,114.48c-.22,1.18-.9,2-2.15,1.89-1.07-.09-1.82-.84-1.77-1.96.05-1.24.86-2.01,2.11-1.91,1.08.08,1.69.85,1.82,1.98Z"/>
    <path class="cls-1" d="M193.9,118.61c-.23,1.18-.91,1.99-2.16,1.89-1.07-.09-1.82-.85-1.77-1.97.06-1.24.87-2.01,2.11-1.91,1.08.09,1.69.86,1.82,1.99Z"/>
    <path class="cls-1" d="M195.67,108.14c-1.06-.25-1.7-.94-1.64-2.03.07-1.22.79-2.04,2.06-1.88,1.33.17,1.16,1.33,1.14,2.28-.01.99-.39,1.68-1.57,1.63Z"/>
    <path class="cls-1" d="M173.01,130.87c-.08,1.14-.64,1.82-1.81,1.8-1.01-.02-1.61-.63-1.65-1.64-.04-1.1.49-1.92,1.64-1.98,1.16-.06,1.69.74,1.82,1.82Z"/>
    <path class="cls-1" d="M149.01,102.05c.09-1,.63-1.63,1.69-1.59.9.04,1.47.61,1.48,1.52,0,1.05-.61,1.66-1.67,1.62-.91-.03-1.4-.61-1.5-1.55Z"/>
    <path class="cls-1" d="M158.83,100.32c1.02.04,1.67.55,1.74,1.59.07,1.03-.47,1.73-1.5,1.82-1.16.1-1.89-.51-1.89-1.71,0-1.04.62-1.59,1.65-1.7Z"/>
    <path class="cls-1" d="M154.8,96.23c1.04.14,1.64.71,1.59,1.75-.05,1.03-.69,1.62-1.72,1.57-1.03-.05-1.61-.69-1.57-1.72.04-1.05.7-1.54,1.71-1.6Z"/>
    <path class="cls-1" d="M179.55,157.36c-1-.08-1.63-.6-1.61-1.63.02-1.02.65-1.6,1.68-1.57.88.03,1.44.59,1.49,1.47.06,1.02-.52,1.59-1.55,1.73Z"/>
    <path class="cls-1" d="M171.27,154.14c1.01.13,1.63.68,1.57,1.71-.06,1.02-.73,1.58-1.75,1.49-.87-.07-1.41-.64-1.42-1.53-.01-1.04.6-1.56,1.6-1.66Z"/>
    <path class="cls-1" d="M150.64,92.16c1.02.14,1.63.7,1.55,1.73-.08,1.02-.76,1.57-1.77,1.47-.86-.08-1.4-.66-1.4-1.56,0-1.03.62-1.55,1.62-1.64Z"/>
    <path class="cls-1" d="M154.89,91.32c-1.01,0-1.7-.48-1.8-1.48-.11-1.13.5-1.85,1.66-1.87,1.01-.02,1.62.58,1.66,1.6.04,1.02-.53,1.59-1.52,1.75Z"/>
    <path class="cls-1" d="M185.27,151.73c-.19,1.03-.8,1.61-1.82,1.48-1-.13-1.53-.83-1.37-1.85.13-.87.73-1.38,1.63-1.33,1.04.06,1.52.71,1.56,1.7Z"/>
    <path class="cls-1" d="M154.68,107.82c-1.02-.15-1.62-.71-1.57-1.73.05-1.02.69-1.6,1.7-1.55,1.02.04,1.6.68,1.55,1.7-.04,1.02-.69,1.53-1.69,1.58Z"/>
    <path class="cls-1" d="M175.28,153.26c-1.04-.2-1.63-.82-1.5-1.84.13-1.02.84-1.56,1.88-1.4.88.14,1.4.74,1.35,1.65-.06,1.05-.72,1.55-1.73,1.59Z"/>
    <path class="cls-1" d="M167.02,153.24c-1.03-.19-1.61-.8-1.48-1.82.13-1,.83-1.54,1.85-1.38.87.13,1.38.73,1.33,1.63-.06,1.04-.71,1.52-1.7,1.57Z"/>
    <path class="cls-1" d="M152.26,85.41c-.16,1.15-.72,1.77-1.76,1.7-1.03-.07-1.58-.76-1.49-1.78.08-.87.66-1.41,1.56-1.42,1.06-.01,1.52.67,1.68,1.51Z"/>
    <path class="cls-1" d="M189.39,147.46c-.08,1-.6,1.61-1.63,1.62-.89,0-1.47-.54-1.56-1.4-.1-1.01.45-1.69,1.46-1.77,1.02-.08,1.59.52,1.73,1.55Z"/>
    <path class="cls-1" d="M158.99,111.99c-1.01-.02-1.7-.5-1.78-1.51-.1-1.15.53-1.86,1.7-1.86,1.02,0,1.62.61,1.64,1.63.03,1.02-.55,1.59-1.56,1.74Z"/>
    <path class="cls-1" d="M154.72,79.67c1.01.06,1.65.58,1.7,1.61.05,1.02-.49,1.7-1.51,1.77-1.15.08-1.86-.54-1.85-1.72,0-1.03.65-1.56,1.66-1.65Z"/>
    <path class="cls-1" d="M179.71,149.15c-1.14-.06-1.78-.57-1.82-1.6-.04-1.02.54-1.65,1.56-1.7,1.02-.04,1.64.54,1.7,1.56.05,1.04-.6,1.54-1.44,1.73Z"/>
    <path class="cls-1" d="M171.32,149.14c-.99-.06-1.64-.56-1.69-1.58-.04-1.02.54-1.65,1.55-1.7,1.01-.04,1.65.54,1.7,1.55.05,1.02-.55,1.58-1.56,1.73Z"/>
    <path class="cls-1" d="M164.61,147.55c-.16,1.03-.75,1.62-1.76,1.52-1.01-.1-1.55-.79-1.42-1.8.11-.86.7-1.39,1.58-1.36,1.03.03,1.54.66,1.6,1.65Z"/>
    <path class="cls-1" d="M154.79,112.79c1.05.15,1.63.74,1.56,1.78-.06.88-.63,1.45-1.53,1.47-1.04.02-1.68-.57-1.69-1.61,0-1.05.65-1.57,1.66-1.65Z"/>
    <path class="cls-1" d="M185.31,143.41c-.15,1.02-.71,1.62-1.74,1.57-1.02-.05-1.6-.69-1.56-1.71.05-1.02.68-1.6,1.71-1.56,1.03.04,1.53.7,1.58,1.7Z"/>
    <path class="cls-1" d="M177.07,143.29c-.05,1.01-.56,1.67-1.6,1.72-1.04.04-1.68-.53-1.73-1.58-.05-1.04.54-1.68,1.58-1.73,1.04-.05,1.62.55,1.76,1.59Z"/>
    <path class="cls-1" d="M152.25,77.35c-.19,1.04-.81,1.63-1.83,1.5-1.02-.13-1.55-.84-1.4-1.87.13-.88.74-1.4,1.64-1.35,1.05.06,1.54.71,1.59,1.72Z"/>
    <path class="cls-1" d="M167.2,145.03c-1.14-.17-1.74-.73-1.69-1.75.05-1.02.69-1.6,1.7-1.55,1.01.05,1.58.68,1.55,1.7-.03,1.05-.74,1.48-1.56,1.6Z"/>
    <path class="cls-1" d="M189.45,139.16c-.17,1.14-.73,1.74-1.75,1.69-1.02-.05-1.6-.69-1.55-1.71.05-1.02.68-1.59,1.7-1.55,1.05.04,1.49.73,1.6,1.57Z"/>
    <path class="cls-1" d="M156.45,73.2c-.13,1.03-.7,1.64-1.73,1.6-1.19-.04-1.78-.78-1.65-1.93.11-1.02.84-1.54,1.85-1.45,1.03.09,1.52.77,1.54,1.78Z"/>
    <path class="cls-1" d="M179.63,140.92c-1.01-.01-1.68-.5-1.79-1.51-.11-1,.4-1.72,1.42-1.84,1.14-.14,1.88.43,1.93,1.61.04,1.02-.55,1.59-1.56,1.74Z"/>
    <path class="cls-1" d="M158.94,120.26c-1.17-.16-1.77-.74-1.72-1.77.05-1.04.7-1.61,1.73-1.57,1.04.05,1.6.69,1.57,1.73-.04,1.07-.74,1.5-1.58,1.61Z"/>
    <path class="cls-1" d="M172.95,139.31c-.14,1.01-.7,1.61-1.71,1.57-1.17-.04-1.75-.77-1.63-1.9.11-1,.82-1.52,1.82-1.42,1.01.1,1.49.76,1.52,1.75Z"/>
    <path class="cls-1" d="M162.9,137.58c1.02.05,1.69.55,1.71,1.61.02,1.04-.6,1.65-1.65,1.66-.91,0-1.49-.56-1.58-1.44-.1-1.04.48-1.64,1.52-1.83Z"/>
    <path class="cls-1" d="M156.35,122.57c-.03.99-.52,1.65-1.55,1.71-.89.05-1.49-.45-1.63-1.31-.16-1.02.36-1.72,1.36-1.85,1.01-.14,1.62.44,1.82,1.46Z"/>
    <path class="cls-1" d="M161.3,122.7c.08-1.02.6-1.66,1.63-1.68,1.18-.03,1.82.66,1.74,1.82-.06,1.02-.72,1.58-1.74,1.54-1.03-.04-1.55-.67-1.63-1.68Z"/>
    <path class="cls-1" d="M193.55,135.15c-.16,1.06-.77,1.65-1.8,1.55-1.04-.1-1.58-.81-1.45-1.84.11-.88.71-1.42,1.62-1.39,1.05.03,1.57.67,1.63,1.68Z"/>
    <path class="cls-1" d="M183.86,136.8c-1.14-.03-1.8-.53-1.89-1.55-.09-1.01.43-1.72,1.45-1.83,1.14-.12,1.87.47,1.91,1.66.03,1.04-.61,1.56-1.47,1.72Z"/>
    <path class="cls-1" d="M158.67,125.17c1.13.07,1.78.57,1.82,1.59.04,1.01-.54,1.65-1.56,1.69-1.01.04-1.64-.54-1.69-1.56-.06-1.04.6-1.53,1.43-1.73Z"/>
    <path class="cls-1" d="M168.85,126.91c-.13,1.04-.71,1.64-1.74,1.61-1.19-.04-1.79-.78-1.66-1.94.11-1.03.84-1.54,1.86-1.45,1.03.1,1.52.77,1.54,1.78Z"/>
    <path class="cls-1" d="M193.59,126.77c-.06,1.02-.57,1.68-1.62,1.72-1.04.04-1.68-.55-1.73-1.59-.04-1.04.54-1.68,1.59-1.73,1.05-.04,1.62.56,1.75,1.6Z"/>
    <path class="cls-1" d="M176.98,159.96c-.13.91-.63,1.49-1.54,1.5-1.05,0-1.68-.61-1.62-1.66.06-1.05.76-1.6,1.8-1.47.89.11,1.34.74,1.36,1.63Z"/>
    <path class="cls-1" d="M173.67,135.1c.08-1.03.6-1.68,1.64-1.7,1.19-.03,1.83.66,1.76,1.84-.06,1.03-.72,1.59-1.76,1.55-1.04-.04-1.56-.67-1.65-1.69Z"/>
    <path class="cls-1" d="M164.67,131.02c-.14,1.04-.71,1.64-1.75,1.59-1.03-.05-1.62-.69-1.57-1.72.05-1.03.69-1.61,1.72-1.57,1.04.04,1.54.7,1.6,1.71Z"/>
    <path class="cls-1" d="M187.92,132.66c-1.02,0-1.7-.47-1.82-1.49-.12-1,.37-1.73,1.39-1.87,1.14-.15,1.89.41,1.96,1.59.06,1.02-.53,1.6-1.53,1.77Z"/>
    <path class="cls-1" d="M168.82,134.92c-.06,1.12-.56,1.78-1.57,1.83-1.15.06-1.82-.59-1.79-1.75.03-1.01.67-1.58,1.68-1.58,1.03,0,1.52.64,1.68,1.49Z"/>
    <path class="cls-1" d="M158.78,133.47c1,.05,1.66.55,1.68,1.58.02,1.03-.6,1.63-1.63,1.63-.9,0-1.47-.55-1.55-1.42-.1-1.02.47-1.62,1.5-1.8Z"/>
    <path class="cls-1" d="M156.34,130.88c-.03.87-.43,1.53-1.33,1.58-.99.05-1.69-.51-1.68-1.55.01-.88.63-1.41,1.49-1.45.93-.05,1.37.55,1.51,1.42Z"/>
    <path class="cls-1" d="M160.47,143.48c-.16.86-.61,1.45-1.54,1.38-.86-.07-1.48-.59-1.47-1.48.01-1.04.72-1.6,1.71-1.52.89.07,1.29.74,1.3,1.62Z"/>
    <path class="cls-1" d="M150.66,70.63c-.87-.05-1.59-.43-1.54-1.35.06-1.04.99-1.35,1.86-1.52.85-.16,1.28.39,1.29,1.16,0,1.01-.58,1.59-1.6,1.71Z"/>
    <path class="cls-1" d="M167.03,158.42c1.02.18,1.59.68,1.5,1.58-.08.88-.7,1.4-1.59,1.29-.72-.09-1.23-.6-1.23-1.38,0-.94.64-1.3,1.32-1.49Z"/>
    <path class="cls-1" d="M152.02,126.72c-.12.97-.6,1.53-1.51,1.47-.76-.04-1.24-.55-1.26-1.33-.03-.79.46-1.31,1.19-1.4.92-.11,1.4.46,1.59,1.26Z"/>
    <path class="cls-1" d="M146.53,99.28c-.79-.03-1.31-.47-1.39-1.2-.1-.89.4-1.48,1.31-1.53.78-.05,1.3.45,1.38,1.18.1.9-.42,1.42-1.3,1.55Z"/>
    <path class="cls-1" d="M156.15,139.17c-.04.81-.49,1.34-1.23,1.43-.91.1-1.51-.42-1.57-1.34-.05-.8.46-1.33,1.21-1.42.91-.11,1.45.43,1.59,1.33Z"/>
    <path class="cls-1" d="M146.49,71.71c.86.11,1.43.59,1.37,1.51-.05.76-.56,1.27-1.34,1.26-.92,0-1.46-.57-1.4-1.49.04-.76.56-1.2,1.38-1.29Z"/>
    <path class="cls-1" d="M152.03,118.46c-.01.79-.42,1.35-1.17,1.48-.93.16-1.53-.36-1.64-1.27-.09-.79.39-1.35,1.14-1.48.93-.16,1.46.38,1.67,1.27Z"/>
    <path class="cls-1" d="M163.03,154.32c.88.16,1.45.65,1.37,1.55-.08.88-.7,1.39-1.59,1.28-.72-.09-1.23-.6-1.22-1.37.01-.9.57-1.36,1.44-1.46Z"/>
    <path class="cls-1" d="M147.87,89.74c-.2.88-.72,1.4-1.63,1.25-.74-.13-1.21-.67-1.12-1.45.1-.89.69-1.4,1.61-1.24.75.13,1.13.67,1.15,1.45Z"/>
    <path class="cls-1" d="M158.65,150.2c.9.02,1.45.42,1.58,1.17.16.92-.36,1.52-1.26,1.63-.79.1-1.33-.38-1.47-1.14-.18-.95.42-1.42,1.15-1.66Z"/>
    <path class="cls-1" d="M156.12,147.38c-.01.77-.4,1.31-1.14,1.44-.9.15-1.49-.34-1.6-1.23-.09-.77.37-1.31,1.11-1.44.91-.16,1.42.37,1.63,1.23Z"/>
    <path class="cls-1" d="M150.51,108.83c1.02.19,1.6.69,1.51,1.59-.09.88-.71,1.41-1.6,1.29-.72-.09-1.23-.61-1.23-1.39,0-.94.65-1.31,1.33-1.49Z"/>
    <path class="cls-1" d="M146.53,82.78c-.8-.04-1.33-.48-1.41-1.22-.1-.9.41-1.5,1.33-1.55.79-.05,1.32.46,1.4,1.2.11.91-.43,1.43-1.32,1.58Z"/>
    <path class="cls-1" d="M149.53,135.11c.04-.76.34-1.35,1.17-1.33.76.02,1.24.51,1.25,1.29.02.79-.47,1.29-1.22,1.33-.81.04-1.17-.52-1.21-1.29Z"/>
    <path class="cls-1" d="M195.68,115.98c-1.01-.15-1.36-.77-1.34-1.63.02-.73.34-1.34,1.13-1.43.93-.12,1.1.59,1.15,1.29.05.78-.02,1.54-.94,1.77Z"/>
    <path class="cls-1" d="M147.84,106.12c-.04.78-.46,1.3-1.21,1.35-.81.06-1.21-.5-1.22-1.27-.01-.75.3-1.35,1.14-1.35.77,0,1.19.5,1.29,1.27Z"/>
    <path class="cls-1" d="M158.72,158.49c.78,0,1.33.38,1.5,1.13.13.57-.2.98-.79.94-.67-.04-1.47-.03-1.68-.87-.18-.71.35-1.04.98-1.2Z"/>
    <path class="cls-1" d="M151.54,143.4c-.06.54-.36.88-.91.89-.71,0-1.04-.46-.94-1.11.08-.51.48-.83,1.03-.75.52.08.83.41.82.97Z"/>
    <path class="cls-1" d="M143.25,85.47c0,.57-.32.9-.87.93-.57.03-.9-.31-.93-.86-.03-.57.31-.9.86-.93.57-.03.86.32.94.86Z"/>
    <path class="cls-1" d="M151.52,151.59c0,.58-.33.91-.88.94-.57.03-.91-.32-.94-.87-.03-.57.31-.91.87-.94.58-.03.87.32.95.87Z"/>
    <path class="cls-1" d="M145.53,114.4c.05-.55.36-.89.91-.9.72-.01,1.05.45.96,1.11-.07.52-.47.83-1.03.76-.53-.07-.84-.4-.84-.96Z"/>
    <path class="cls-1" d="M143.26,93.85c-.15.55-.46.9-1.02.81-.53-.08-.87-.44-.78-1,.08-.53.44-.86,1-.78.54.08.81.44.8.97Z"/>
    <path class="cls-1" d="M147.41,122.62c.02.55-.27.93-.78.99-.66.07-1.09-.29-1.06-.98.02-.53.36-.86.91-.86.56,0,.84.33.94.85Z"/>
    <path class="cls-1" d="M154.72,156.69c-.56-.02-.9-.34-.92-.88-.02-.71.42-1.06,1.09-.98.52.06.84.45.78,1.01-.06.54-.38.85-.95.85Z"/>
    <path class="cls-1" d="M147.39,130.85c.03.57-.27.93-.81,1.01-.57.08-.93-.26-1.01-.79-.09-.57.25-.93.79-1.01.57-.09.88.26,1.03.79Z"/>
    <path class="cls-1" d="M189.37,59.08c.3-.3.61-.61.91-.91.65-1.33,0-2.64-.08-3.96,0,0,0,0,0,0h0c-4.53-.95-5.76.04-4.91,3.95.3.31.61.62.91.94,1.06.45,2.11.45,3.17,0Z"/>
    <path class="cls-1" d="M177.05,63.13c.25-.25.5-.5.76-.76.04-1.11.07-2.23.11-3.34,0,0,0,0,0,0-.29-.27-.57-.54-.86-.81,0,0,0,0,0,0,0,0,0,0,0,0-3.75-.27-4.52.53-4.04,4.23.22.21.43.42.65.64,1.13.32,2.26.35,3.39.04Z"/>
    <path class="cls-1" d="M181.1,59.06c-.16,1.09-.27,2.17.08,3.25.29.29.58.58.87.87,1.06.32,2.12.32,3.18,0l.89-.87c.34-1.07.26-2.14.08-3.22,0,0,0,0,0,0-.3-.31-.61-.62-.91-.94-1.09.02-2.18.03-3.27.05-.31.29-.61.57-.92.86,0,0,0,0,0,0Z"/>
    <path class="cls-1" d="M193.61,58.21c-1.11-.02-2.22-.03-3.33-.05,0,0,0,0,0,0-.3.3-.61.61-.91.91-.15,1.09-.24,2.18.09,3.25h0s0,0,0,0c.28.27.56.55.85.83,1.09.31,2.19.3,3.27-.03.25-.25.51-.49.76-.74,0,0,0,0,0,0,0,0,0,0,0,0,.34-1.11.3-2.23.05-3.35-.26-.28-.52-.55-.78-.83,0,0,0,0,0,0Z"/>
    <path class="cls-1" d="M189.54,70.72c-1.16-.02-2.32-.04-3.48-.07-.25.25-.49.49-.74.74,0,0,0,0,0,0,.03,1.16.06,2.32.09,3.47.21.21.41.41.62.62,1.18,0,2.36,0,3.54-.01h0s0,0,0,0c.19-.19.37-.38.56-.57h0c.01-1.18.03-2.36.04-3.54-.21-.21-.42-.43-.63-.64h0Z"/>
    <path class="cls-1" d="M177.72,75.46h0c1.19,0,2.38,0,3.57.01.2-.2.4-.4.6-.6h0c.03-1.16.06-2.33.09-3.49,0,0,0,0,0,0-.24-.24-.48-.48-.73-.73,0,0,0,0,0,0-1.17.03-2.33.06-3.5.1h0c-.19.19-.39.39-.58.58h0c0,1.19,0,2.38.01,3.57.18.18.36.37.54.55,0,0,0,0,0,0Z"/>
    <path class="cls-1" d="M189.58,79.16c-1.19-.34-2.38-.29-3.59-.09-.17.17-.34.34-.51.51,0,0,0,0,0,0-.01,1.24-.02,2.48-.03,3.72,0,0,0,0,0,0,0,0,0,0,0,0,.13.13.27.24.41.34,3.95.32,4.55-.28,4.14-4.12-.15-.11-.29-.23-.42-.36,0,0,0,0,0,0Z"/>
    <path class="cls-1" d="M181.85,83.31s0,0,0,0c-.01-1.24-.02-2.48-.03-3.72l-.51-.51s0,0,0,0c-1.2-.21-2.4-.24-3.58.08,0,0,0,0,0,0-.14.14-.28.26-.43.38,0,0,0,0,0,0-.39,3.85.2,4.44,4.15,4.12.15-.1.29-.22.41-.34,0,0,0,0,0,0Z"/>
    <path class="cls-1" d="M189.57,75.47c0,1.23,0,2.46.01,3.7,0,0,0,0,0,0,0,0,0,0,0,0,.13.13.27.25.42.36,1.64.17,3.43.61,4.2-1.51.76-2.11-.77-3.26-4.07-3.12h0c-.19.19-.37.38-.56.57,0,0,0,0,0,0Z"/>
    <path class="cls-1" d="M177.72,79.15s0,0,0,0c0-1.23,0-2.46,0-3.69,0,0,0,0,0,0-.18-.18-.36-.37-.54-.55h0c-3.29-.17-4.84.98-4.08,3.1.76,2.13,2.54,1.7,4.19,1.52,0,0,0,0,0,0,.15-.11.3-.24.43-.38,0,0,0,0,0,0Z"/>
    <path class="cls-1" d="M173.6,66.7s0,0,0,0c.02-1.2.04-2.41.06-3.61,0,0,0,0,0,0-.22-.21-.43-.42-.65-.64-1.74-.08-3.67-.43-4.13,2.01-.38,2.04,1.02,2.91,4.22,2.7.16-.15.33-.31.49-.46,0,0,0,0,0,0Z"/>
    <path class="cls-1" d="M193.69,66.64c-1.16-.05-2.32-.1-3.48-.14-.26.26-.52.52-.78.78h0c.04,1.15.07,2.3.11,3.44.21.21.42.43.63.64,3.84.18,4.34-.33,4.08-4.16-.19-.19-.38-.37-.57-.56h0Z"/>
    <path class="cls-1" d="M177.75,70.75h0c.03-1.17.06-2.34.09-3.5h0c-.24-.24-.48-.48-.72-.72h0c-1.17.06-2.35.11-3.52.17,0,0,0,0,0,0-.16.15-.33.31-.49.46-.35,3.81.2,4.38,4.06,4.18h0c.19-.19.39-.39.58-.58h0Z"/>
    <path class="cls-1" d="M185.45,83.31c-1.2-.33-2.4-.33-3.59,0,0,0,0,0,0,0-.13.13-.27.24-.41.34-.35,2.05-.58,4.29,2.36,4.18,2.71-.1,2.39-2.27,2.07-4.18,0,0,0,0,0,0-.15-.1-.28-.22-.41-.34,0,0,0,0,0,0Z"/>
    <path class="cls-1" d="M193.61,58.21c.26.28.52.55.78.83,1.23.15,2.63.65,3.31-.89.44-.99.36-2.1-.39-3.02-1.1-1.35-2.35-1.06-3.64-.33-.35,1.13-.39,2.27-.07,3.41Z"/>
    <path class="cls-1" d="M194.34,62.39s0,0,0,0c-.25.25-.51.49-.76.74,0,0,0,0,0,0,.04,1.17.08,2.34.11,3.51h0,0c.19.19.38.37.57.56,1.82.18,3.63.45,3.67-2.31.05-2.73-1.78-2.56-3.59-2.49Z"/>
    <path class="cls-1" d="M167.34,71.27c1.32-.1,2.03-1.01,2.13-2.38-.24-1.43-1.06-2.33-2.55-2.2-1.32.11-2.15,1-2.08,2.36.07,1.48,1.02,2.34,2.5,2.22Z"/>
    <path class="cls-1" d="M167.33,87.74c1.32-.13,2.01-1.03,2.09-2.37-.25-1.3-.99-2.18-2.34-2.11-1.47.07-2.33,1.03-2.17,2.51.15,1.31,1.08,2.1,2.42,1.97Z"/>
    <path class="cls-1" d="M183.72,99.78c-1.36-.04-2.25.78-2.32,2.11-.07,1.49.83,2.42,2.32,2.4,1.35-.02,2.06-.92,2.23-2.25-.17-1.33-.87-2.21-2.23-2.25Z"/>
    <path class="cls-1" d="M175.48,99.74c-1.33.1-2.22.8-2.33,2.13-.11,1.35.7,2.27,2.01,2.4,1.48.14,2.43-.73,2.48-2.22.04-1.35-.84-2.09-2.16-2.31Z"/>
    <path class="cls-1" d="M166.94,99.86c-1.34.14-2.14,1.06-1.98,2.44.14,1.21.98,1.97,2.22,1.92,1.38-.06,2.07-.95,2.18-2.29-.27-1.35-1.04-2.21-2.42-2.07Z"/>
    <path class="cls-1" d="M173.59,73.15c0-1.5-.9-2.26-2.36-2.42-1.45.2-2.37.99-2.3,2.48.07,1.47,1.02,2.32,2.5,2.23,1.33-.08,2.15-.94,2.16-2.29Z"/>
    <path class="cls-1" d="M187.74,95.58c-1.18.17-2.13.8-2.23,2.16-.1,1.36.7,2.29,2.03,2.41,1.49.14,2.44-.74,2.49-2.23.04-1.36-.84-2.1-2.29-2.34Z"/>
    <path class="cls-1" d="M179.66,95.62c-1.37-.09-2.3.72-2.41,2.06-.13,1.5.76,2.46,2.27,2.49,1.37.03,2.11-.87,2.32-2.21-.11-1.35-.82-2.25-2.18-2.35Z"/>
    <path class="cls-1" d="M171.34,95.67c-1.37-.05-2.25.79-2.31,2.16-.06,1.38.82,2.13,2.17,2.36,1.35-.13,2.25-.83,2.3-2.21.05-1.38-.79-2.26-2.16-2.31Z"/>
    <path class="cls-1" d="M189.66,93.61c-.1,1.35.7,2.27,2.02,2.39,1.48.14,2.43-.74,2.47-2.22.04-1.35-.84-2.08-2.16-2.31-1.33.11-2.23.8-2.33,2.14Z"/>
    <path class="cls-1" d="M183.84,91.47c-1.49-.1-2.43.76-2.49,2.25-.06,1.36.78,2.24,2.1,2.34,1.5.12,2.31-.79,2.54-2.22-.11-1.36-.81-2.27-2.15-2.37Z"/>
    <path class="cls-1" d="M167.29,79.51c1.35-.1,2.06-.99,2.16-2.35-.21-1.34-.95-2.22-2.32-2.19-1.51.04-2.38,1-2.25,2.49.12,1.33,1.05,2.14,2.41,2.04Z"/>
    <path class="cls-1" d="M175.48,96.11c1.17-.18,2.11-.82,2.19-2.17.08-1.48-.77-2.43-2.25-2.45-1.48-.02-2.36.91-2.31,2.39.04,1.33.93,2.05,2.37,2.23Z"/>
    <path class="cls-1" d="M167.06,95.98c1.36.05,2.23-.79,2.29-2.14.06-1.37-.81-2.11-2.15-2.33-1.33.13-2.23.82-2.27,2.18-.05,1.36.79,2.23,2.14,2.28Z"/>
    <path class="cls-1" d="M187.86,87.33c-1.36-.08-2.26.75-2.38,2.08-.14,1.5.76,2.33,2.2,2.58,1.38-.09,2.3-.79,2.41-2.13.12-1.49-.73-2.45-2.22-2.53Z"/>
    <path class="cls-1" d="M179.62,87.31c-1.51-.03-2.44.86-2.41,2.37.03,1.5,1.01,2.37,2.51,2.27,1.35-.09,2.06-1.01,2.18-2.5-.23-1.16-.89-2.11-2.28-2.14Z"/>
    <path class="cls-1" d="M171.27,87.37c-1.51.03-2.39.98-2.27,2.48.1,1.34,1.03,2.15,2.4,2.06,1.36-.09,2.06-.98,2.18-2.33-.21-1.34-.94-2.23-2.3-2.21Z"/>
    <path class="cls-1" d="M171.18,79.01c-1.21.2-2.15.85-2.22,2.21-.07,1.49.8,2.42,2.29,2.46,1.36.03,2.23-.81,2.31-2.15.09-1.51-.83-2.3-2.39-2.52Z"/>
    <path class="cls-1" d="M191.98,83.21c-1.5-.02-2.41.88-2.36,2.37.05,1.49,1.03,2.34,2.51,2.22,1.33-.11,2.03-1.02,2.12-2.37-.2-1.32-.91-2.21-2.27-2.22Z"/>
    <path class="cls-1" d="M175.46,83.18c-1.52-.03-2.28.92-2.44,2.37.2,1.37.93,2.26,2.3,2.28,1.51.02,2.41-.89,2.39-2.4-.02-1.36-.89-2.22-2.25-2.25Z"/>
    <path class="cls-1" d="M191.98,99.83c-1.35-.05-2.22.78-2.27,2.13-.05,1.36.81,2.09,2.14,2.32,1.32-.13,2.21-.82,2.26-2.18.04-1.35-.78-2.22-2.13-2.27Z"/>
    <path class="cls-1" d="M196.07,70.79c-1.49-.02-2.35.87-2.36,2.35,0,1.34.82,2.19,2.14,2.29,1.48.11,2.02-.85,2.03-2.21.02-1.28-.28-2.4-1.81-2.43Z"/>
    <path class="cls-1" d="M195.91,79.07c-1.3.2-2.17.94-2.15,2.32.02,1.37.86,2.23,2.23,2.25,1.56.01,1.91-1.11,1.88-2.43-.03-1.26-.57-2.06-1.95-2.14Z"/>
    <path class="cls-1" d="M195.74,87.47c-1.24.08-1.95.96-1.93,2.2.02,1.23.76,2.08,2,2.14,1.38.07,1.44-1.04,1.5-2.12-.07-1.02.05-2.32-1.56-2.22Z"/>
    <path class="cls-1" d="M195.94,95.78c-1.25-.04-2.01.79-2.08,2.01-.06,1.22.6,2.12,1.87,2.19,1.33.07,1.5-.98,1.55-2.02-.03-.99.03-2.13-1.34-2.18Z"/>
    <path class="cls-1" d="M167.16,63.05c1.22-.05,1.98-.71,2.21-1.91-.15-.98-.81-1.14-1.51-.84-.92.38-2.41.17-2.46,1.6-.03.89.94,1.18,1.76,1.15Z"/>
    <path class="cls-1" d="M181.16,67.27c.27-.26.53-.52.8-.77.03-1.11.07-2.21.1-3.32,0,0,0,0,0,0-.29-.29-.58-.58-.87-.87-1.13.02-2.26.05-3.38.07h0c-.25.25-.5.5-.76.76-.21,1.14-.29,2.27.07,3.4.24.24.48.48.72.72,1.1.33,2.21.34,3.32.02Z"/>
    <path class="cls-1" d="M190.3,63.16s0,0,0,0c-.28-.28-.57-.55-.85-.83h0c-1.11,0-2.22-.02-3.33-.02l-.89.87c-.14,1.1-.24,2.21.09,3.3,0,0,0,0,0,0h0c.28.27.55.54.83.81,1.09.31,2.18.31,3.27-.02.26-.26.52-.52.78-.78.36-1.1.26-2.22.1-3.33Z"/>
    <path class="cls-1" d="M186.16,67.29s0,0,0,0c-.28-.27-.55-.54-.83-.81h0c-1.12,0-2.25.01-3.37.02-.27.26-.53.52-.8.77-.18,1.13-.26,2.26.09,3.38.24.24.48.48.73.73,1.12.32,2.23.33,3.35,0,.25-.25.49-.49.74-.74.35-1.11.26-2.24.1-3.36Z"/>
    <path class="cls-1" d="M181.88,74.88c-.2.2-.4.4-.6.6h0c0,1.2.01,2.4.02,3.6,0,0,0,0,0,0,0,0,0,0,0,0l.51.51c1.22,0,2.44,0,3.67,0h0s0,0,0,0c.17-.17.34-.34.51-.51.01-1.2.03-2.4.04-3.6h0c-.21-.21-.41-.41-.62-.62-1.18,0-2.35.01-3.53.02Z"/>
    <path class="cls-1" d="M177.91,59.03c1.06.32,2.13.33,3.19.02.31-.29.61-.57.92-.86.02-1.05.79-2.74-.98-2.69-1.62.05-3.84.11-4,2.71,0,0,0,0,0,0,.29.27.57.54.86.81Z"/>
    <path class="cls-1" d="M143.25,77.11c.02.59-.27.95-.8,1.03-.56.08-.92-.25-1-.79-.08-.56.26-.92.79-1,.57-.09.87.27,1.02.77Z"/>
  </g>
  <g>
    <path class="cls-1" d="M339.05,108.41c1.33-.13,2.22-.82,2.26-2.17.04-1.35-.78-2.22-2.13-2.27-1.35-.05-2.22.78-2.27,2.13-.05,1.36.81,2.1,2.14,2.32Z"/>
    <path class="cls-1" d="M345.09,73.05c.14,1.34.83,2.24,2.2,2.29,1.37.04,2.25-.79,2.29-2.15.05-1.37-.79-2.24-2.15-2.3-1.38-.06-2.11.82-2.34,2.16Z"/>
    <path class="cls-1" d="M330.78,108.47c1.48-.25,2.36-1,2.3-2.38-.06-1.36-.93-2.21-2.31-2.16-1.36.05-2.2.93-2.16,2.31.04,1.4,1,2.02,2.17,2.23Z"/>
    <path class="cls-1" d="M320.33,106.23c.23,1.34.97,2.2,2.34,2.14,1.35-.06,2.19-.93,2.13-2.29-.05-1.35-.93-2.18-2.29-2.13-1.36.05-2.05.95-2.18,2.28Z"/>
    <path class="cls-1" d="M345.06,64.87c.27,1.41,1.01,2.28,2.36,2.22,1.47-.08,2.33-1.03,2.16-2.51-.15-1.31-1.08-2.09-2.42-1.97-1.34.12-1.96,1.07-2.1,2.26Z"/>
    <path class="cls-1" d="M332.73,110.24c.13,1.33.82,2.22,2.18,2.27,1.36.04,2.23-.79,2.27-2.13.05-1.36-.78-2.22-2.13-2.28-1.37-.05-2.1.81-2.32,2.14Z"/>
    <path class="cls-1" d="M347.31,79.13c-1.33.23-2.19.96-2.14,2.32.05,1.34.92,2.17,2.27,2.12,1.34-.05,2.17-.92,2.12-2.27-.05-1.36-.94-2.04-2.26-2.17Z"/>
    <path class="cls-1" d="M328.61,114.49c.22,1.33.96,2.19,2.31,2.13,1.34-.06,2.17-.92,2.12-2.27-.05-1.34-.92-2.17-2.27-2.12-1.35.05-2.04.94-2.16,2.26Z"/>
    <path class="cls-1" d="M324.47,110.36c.22,1.33.96,2.2,2.32,2.14,1.35-.05,2.18-.92,2.13-2.28-.05-1.35-.92-2.18-2.28-2.13-1.36.04-2.05.94-2.18,2.27Z"/>
    <path class="cls-1" d="M347.45,91.86c1.36-.26,2.1-1.09,1.98-2.43-.1-1.18-.85-2.01-2.1-1.97-1.35.04-2.18.89-2.14,2.24.04,1.35.93,2.05,2.26,2.16Z"/>
    <path class="cls-1" d="M318.46,108.2c-1.35.26-2.12.96-2.04,2.22.09,1.24.91,2,2.16,1.91,1.24-.08,1.99-.9,1.92-2.16-.07-1.27-.96-1.84-2.04-1.98Z"/>
    <path class="cls-1" d="M337.01,114.49c.2,1.22.87,2.02,2.1,1.99,1.37-.03,2.17-.91,2.04-2.28-.11-1.21-.96-1.94-2.2-1.84-1.22.09-1.86.91-1.95,2.12Z"/>
    <path class="cls-1" d="M320.49,114.4c.12,1.22.77,2.05,1.99,2.09,1.37.05,2.21-.79,2.16-2.16-.04-1.22-.86-1.98-2.09-1.95-1.23.02-1.9.81-2.06,2.03Z"/>
    <path class="cls-1" d="M351.3,87.56c1.31-.08,2.14-.69,2.21-1.94.08-1.24-.66-2.05-1.89-2.13-1.24-.08-2.05.66-2.13,1.89-.09,1.26.71,1.92,1.81,2.18Z"/>
    <path class="cls-1" d="M345.28,118.48c-.21-1.23-.89-1.99-2.14-1.93-1.23.07-1.97.86-1.91,2.1.06,1.23.86,1.97,2.1,1.91,1.24-.06,1.86-.87,1.95-2.09Z"/>
    <path class="cls-1" d="M341.15,110.18c.07,1.24.7,2.08,1.96,2.16,1.26.08,2.09-.67,2.17-1.92.09-1.26-.67-2.08-1.91-2.17-1.26-.09-1.97.69-2.21,1.93Z"/>
    <path class="cls-1" d="M349.47,93.82c.19,1.26.89,2.03,2.16,1.94,1.26-.09,1.97-.93,1.86-2.19-.1-1.11-.84-1.8-1.97-1.79-1.28.01-1.93.8-2.05,2.04Z"/>
    <path class="cls-1" d="M351.69,66.88c-1.31.08-2.16.71-2.24,1.92-.09,1.36.72,2.22,2.09,2.22,1.22,0,1.98-.79,2.01-2.02.03-1.25-.78-1.88-1.86-2.13Z"/>
    <path class="cls-1" d="M326.72,116.47c-1.21.14-2.03.8-2.05,2.03-.02,1.37.83,2.19,2.2,2.12,1.21-.07,1.96-.89,1.91-2.12-.05-1.23-.84-1.88-2.06-2.02Z"/>
    <path class="cls-1" d="M349.42,77.32c.21,1.24.91,2.02,2.16,1.96,1.24-.06,2-.87,1.94-2.12-.06-1.24-.86-2-2.12-1.94-1.25.06-1.88.88-1.98,2.1Z"/>
    <path class="cls-1" d="M338.93,124.75c1.32-.1,2.13-.73,2.19-1.97.05-1.24-.69-2.04-1.92-2.1-1.24-.06-2.04.69-2.1,1.92-.07,1.26.74,1.91,1.84,2.15Z"/>
    <path class="cls-1" d="M347.3,99.99c1.23-.1,2.06-.74,2.11-2,.06-1.26-.7-2.07-1.95-2.13-1.26-.06-2.07.71-2.13,1.95-.06,1.26.72,1.96,1.97,2.18Z"/>
    <path class="cls-1" d="M334.93,116.46c-1.22.18-2.02.85-2.01,2.09.02,1.38.89,2.18,2.26,2.06,1.2-.1,1.95-.94,1.86-2.18-.09-1.22-.9-1.86-2.11-1.97Z"/>
    <path class="cls-1" d="M330.97,120.62c-1.23.07-2.07.7-2.15,1.95-.08,1.26.67,2.08,1.91,2.17,1.26.09,2.08-.67,2.16-1.91.09-1.26-.69-1.97-1.92-2.21Z"/>
    <path class="cls-1" d="M320.55,122.71c.16,1.22.82,2,2.06,1.98,1.24-.02,1.99-.79,1.97-2.02-.01-1.24-.78-1.99-2.02-1.98-1.24.01-1.88.8-2.02,2.02Z"/>
    <path class="cls-1" d="M332.93,126.87c.18,1.23.86,2,2.1,1.97,1.24-.04,1.99-.82,1.96-2.07-.04-1.24-.82-1.99-2.07-1.96-1.25.03-1.88.84-1.99,2.06Z"/>
    <path class="cls-1" d="M347.39,104.12c-1.23.13-2.02.78-2.03,2.03,0,1.24.75,2.02,1.99,2.03,1.24.01,2.01-.75,2.03-1.99.02-1.25-.77-1.91-1.99-2.07Z"/>
    <path class="cls-1" d="M326.74,128.86c1.22-.16,2-.82,1.98-2.06-.02-1.24-.79-1.99-2.02-1.98-1.24.01-1.99.78-1.98,2.02.01,1.24.8,1.89,2.02,2.02Z"/>
    <path class="cls-1" d="M328.82,130.8c.2,1.28.82,2.14,2.07,2.11,1.23-.03,1.96-.86,1.94-2.09-.02-1.11-.76-1.79-1.86-1.84-1.26-.06-1.91.72-2.14,1.83Z"/>
    <path class="cls-1" d="M345.38,114.48c.22,1.18.9,2,2.15,1.89,1.07-.09,1.82-.84,1.77-1.96-.05-1.24-.86-2.01-2.11-1.91-1.08.08-1.69.85-1.82,1.98Z"/>
    <path class="cls-1" d="M316.47,118.61c.23,1.18.91,1.99,2.16,1.89,1.07-.09,1.82-.85,1.77-1.97-.06-1.24-.87-2.01-2.11-1.91-1.08.09-1.69.86-1.82,1.99Z"/>
    <path class="cls-1" d="M314.7,108.14c1.06-.25,1.7-.94,1.64-2.03-.07-1.22-.79-2.04-2.06-1.88-1.33.17-1.16,1.33-1.14,2.28.01.99.39,1.68,1.57,1.63Z"/>
    <path class="cls-1" d="M337.36,130.87c.08,1.14.64,1.82,1.81,1.8,1.01-.02,1.61-.63,1.65-1.64.04-1.1-.49-1.92-1.64-1.98-1.16-.06-1.69.74-1.82,1.82Z"/>
    <path class="cls-1" d="M361.36,102.05c-.09-1-.63-1.63-1.69-1.59-.9.04-1.47.61-1.48,1.52,0,1.05.61,1.66,1.67,1.62.91-.03,1.4-.61,1.5-1.55Z"/>
    <path class="cls-1" d="M351.54,100.32c-1.02.04-1.67.55-1.74,1.59-.07,1.03.47,1.73,1.5,1.82,1.16.1,1.89-.51,1.89-1.71,0-1.04-.62-1.59-1.65-1.7Z"/>
    <path class="cls-1" d="M355.57,96.23c-1.04.14-1.64.71-1.59,1.75.05,1.03.69,1.62,1.72,1.57,1.03-.05,1.61-.69,1.57-1.72-.04-1.05-.7-1.54-1.71-1.6Z"/>
    <path class="cls-1" d="M330.82,157.36c1-.08,1.63-.6,1.61-1.63-.02-1.02-.65-1.6-1.68-1.57-.88.03-1.44.59-1.49,1.47-.06,1.02.52,1.59,1.55,1.73Z"/>
    <path class="cls-1" d="M339.1,154.14c-1.01.13-1.63.68-1.57,1.71.06,1.02.73,1.58,1.75,1.49.87-.07,1.41-.64,1.42-1.53.01-1.04-.6-1.56-1.6-1.66Z"/>
    <path class="cls-1" d="M359.73,92.16c-1.02.14-1.63.7-1.55,1.73.08,1.02.76,1.57,1.77,1.47.86-.08,1.4-.66,1.4-1.56,0-1.03-.62-1.55-1.62-1.64Z"/>
    <path class="cls-1" d="M355.48,91.32c1.01,0,1.7-.48,1.8-1.48.11-1.13-.5-1.85-1.66-1.87-1.01-.02-1.62.58-1.66,1.6-.04,1.02.53,1.59,1.52,1.75Z"/>
    <path class="cls-1" d="M325.1,151.73c.19,1.03.8,1.61,1.82,1.48,1-.13,1.53-.83,1.37-1.85-.13-.87-.73-1.38-1.63-1.33-1.04.06-1.52.71-1.56,1.7Z"/>
    <path class="cls-1" d="M355.69,107.82c1.02-.15,1.62-.71,1.57-1.73-.05-1.02-.69-1.6-1.7-1.55-1.02.04-1.6.68-1.55,1.7.04,1.02.69,1.53,1.69,1.58Z"/>
    <path class="cls-1" d="M335.09,153.26c1.04-.2,1.63-.82,1.5-1.84-.13-1.02-.84-1.56-1.88-1.4-.88.14-1.4.74-1.35,1.65.06,1.05.72,1.55,1.73,1.59Z"/>
    <path class="cls-1" d="M343.35,153.24c1.03-.19,1.61-.8,1.48-1.82-.13-1-.83-1.54-1.85-1.38-.87.13-1.38.73-1.33,1.63.06,1.04.71,1.52,1.7,1.57Z"/>
    <path class="cls-1" d="M358.11,85.41c.16,1.15.72,1.77,1.76,1.7,1.03-.07,1.58-.76,1.49-1.78-.08-.87-.66-1.41-1.56-1.42-1.06-.01-1.52.67-1.68,1.51Z"/>
    <path class="cls-1" d="M320.98,147.46c.08,1,.6,1.61,1.63,1.62.89,0,1.47-.54,1.56-1.4.1-1.01-.45-1.69-1.46-1.77-1.02-.08-1.59.52-1.73,1.55Z"/>
    <path class="cls-1" d="M351.38,111.99c1.01-.02,1.7-.5,1.78-1.51.1-1.15-.53-1.86-1.7-1.86-1.02,0-1.62.61-1.64,1.63-.03,1.02.55,1.59,1.56,1.74Z"/>
    <path class="cls-1" d="M355.65,79.67c-1.01.06-1.65.58-1.7,1.61-.05,1.02.49,1.7,1.51,1.77,1.15.08,1.86-.54,1.85-1.72,0-1.03-.65-1.56-1.66-1.65Z"/>
    <path class="cls-1" d="M330.66,149.15c1.14-.06,1.78-.57,1.82-1.6.04-1.02-.54-1.65-1.56-1.7-1.02-.04-1.64.54-1.7,1.56-.05,1.04.6,1.54,1.44,1.73Z"/>
    <path class="cls-1" d="M339.05,149.14c.99-.06,1.64-.56,1.69-1.58.04-1.02-.54-1.65-1.55-1.7-1.01-.04-1.65.54-1.7,1.55-.05,1.02.55,1.58,1.56,1.73Z"/>
    <path class="cls-1" d="M345.76,147.55c.16,1.03.75,1.62,1.76,1.52,1.01-.1,1.55-.79,1.42-1.8-.11-.86-.7-1.39-1.58-1.36-1.03.03-1.54.66-1.6,1.65Z"/>
    <path class="cls-1" d="M355.58,112.79c-1.05.15-1.63.74-1.56,1.78.06.88.63,1.45,1.53,1.47,1.04.02,1.68-.57,1.69-1.61,0-1.05-.65-1.57-1.66-1.65Z"/>
    <path class="cls-1" d="M325.06,143.41c.15,1.02.71,1.62,1.74,1.57,1.02-.05,1.6-.69,1.56-1.71-.05-1.02-.68-1.6-1.71-1.56-1.03.04-1.53.7-1.58,1.7Z"/>
    <path class="cls-1" d="M333.3,143.29c.05,1.01.56,1.67,1.6,1.72,1.04.04,1.68-.53,1.73-1.58.05-1.04-.54-1.68-1.58-1.73-1.04-.05-1.62.55-1.76,1.59Z"/>
    <path class="cls-1" d="M358.12,77.35c.19,1.04.81,1.63,1.83,1.5,1.02-.13,1.55-.84,1.4-1.87-.13-.88-.74-1.4-1.64-1.35-1.05.06-1.54.71-1.59,1.72Z"/>
    <path class="cls-1" d="M343.17,145.03c1.14-.17,1.74-.73,1.69-1.75-.05-1.02-.69-1.6-1.7-1.55-1.01.05-1.58.68-1.55,1.7.03,1.05.74,1.48,1.56,1.6Z"/>
    <path class="cls-1" d="M320.92,139.16c.17,1.14.73,1.74,1.75,1.69,1.02-.05,1.6-.69,1.55-1.71-.05-1.02-.68-1.59-1.7-1.55-1.05.04-1.49.73-1.6,1.57Z"/>
    <path class="cls-1" d="M353.92,73.2c.13,1.03.7,1.64,1.73,1.6,1.19-.04,1.78-.78,1.65-1.93-.11-1.02-.84-1.54-1.85-1.45-1.03.09-1.52.77-1.54,1.78Z"/>
    <path class="cls-1" d="M330.74,140.92c1.01-.01,1.68-.5,1.79-1.51.11-1-.4-1.72-1.42-1.84-1.14-.14-1.88.43-1.93,1.61-.04,1.02.55,1.59,1.56,1.74Z"/>
    <path class="cls-1" d="M351.43,120.26c1.17-.16,1.77-.74,1.72-1.77-.05-1.04-.7-1.61-1.73-1.57-1.04.05-1.6.69-1.57,1.73.04,1.07.74,1.5,1.58,1.61Z"/>
    <path class="cls-1" d="M337.42,139.31c.14,1.01.7,1.61,1.71,1.57,1.17-.04,1.75-.77,1.63-1.9-.11-1-.82-1.52-1.82-1.42-1.01.1-1.49.76-1.52,1.75Z"/>
    <path class="cls-1" d="M347.47,137.58c-1.02.05-1.69.55-1.71,1.61-.02,1.04.6,1.65,1.65,1.66.91,0,1.49-.56,1.58-1.44.1-1.04-.48-1.64-1.52-1.83Z"/>
    <path class="cls-1" d="M354.02,122.57c.03.99.52,1.65,1.55,1.71.89.05,1.49-.45,1.63-1.31.16-1.02-.36-1.72-1.36-1.85-1.01-.14-1.62.44-1.82,1.46Z"/>
    <path class="cls-1" d="M349.07,122.7c-.08-1.02-.6-1.66-1.63-1.68-1.18-.03-1.82.66-1.74,1.82.06,1.02.72,1.58,1.74,1.54,1.03-.04,1.55-.67,1.63-1.68Z"/>
    <path class="cls-1" d="M316.82,135.15c.16,1.06.77,1.65,1.8,1.55,1.04-.1,1.58-.81,1.45-1.84-.11-.88-.71-1.42-1.62-1.39-1.05.03-1.57.67-1.63,1.68Z"/>
    <path class="cls-1" d="M326.51,136.8c1.14-.03,1.8-.53,1.89-1.55.09-1.01-.43-1.72-1.45-1.83-1.14-.12-1.87.47-1.91,1.66-.03,1.04.61,1.56,1.47,1.72Z"/>
    <path class="cls-1" d="M351.7,125.17c-1.13.07-1.78.57-1.82,1.59-.04,1.01.54,1.65,1.56,1.69,1.01.04,1.64-.54,1.69-1.56.06-1.04-.6-1.53-1.43-1.73Z"/>
    <path class="cls-1" d="M341.52,126.91c.13,1.04.71,1.64,1.74,1.61,1.19-.04,1.79-.78,1.66-1.94-.11-1.03-.84-1.54-1.86-1.45-1.03.1-1.52.77-1.54,1.78Z"/>
    <path class="cls-1" d="M316.78,126.77c.06,1.02.57,1.68,1.62,1.72,1.04.04,1.68-.55,1.73-1.59.04-1.04-.54-1.68-1.59-1.73-1.05-.04-1.62.56-1.75,1.6Z"/>
    <path class="cls-1" d="M333.39,159.96c.13.91.63,1.49,1.54,1.5,1.05,0,1.68-.61,1.62-1.66-.06-1.05-.76-1.6-1.8-1.47-.89.11-1.34.74-1.36,1.63Z"/>
    <path class="cls-1" d="M336.7,135.1c-.08-1.03-.6-1.68-1.64-1.7-1.19-.03-1.83.66-1.76,1.84.06,1.03.72,1.59,1.76,1.55,1.04-.04,1.56-.67,1.65-1.69Z"/>
    <path class="cls-1" d="M345.7,131.02c.14,1.04.71,1.64,1.75,1.59,1.03-.05,1.62-.69,1.57-1.72-.05-1.03-.69-1.61-1.72-1.57-1.04.04-1.54.7-1.6,1.71Z"/>
    <path class="cls-1" d="M322.45,132.66c1.02,0,1.7-.47,1.82-1.49.12-1-.37-1.73-1.39-1.87-1.14-.15-1.89.41-1.96,1.59-.06,1.02.53,1.6,1.53,1.77Z"/>
    <path class="cls-1" d="M341.55,134.92c.06,1.12.56,1.78,1.57,1.83,1.15.06,1.82-.59,1.79-1.75-.03-1.01-.67-1.58-1.68-1.58-1.03,0-1.52.64-1.68,1.49Z"/>
    <path class="cls-1" d="M351.59,133.47c-1,.05-1.66.55-1.68,1.58-.02,1.03.6,1.63,1.63,1.63.9,0,1.47-.55,1.55-1.42.1-1.02-.47-1.62-1.5-1.8Z"/>
    <path class="cls-1" d="M354.03,130.88c.03.87.43,1.53,1.33,1.58.99.05,1.69-.51,1.68-1.55-.01-.88-.63-1.41-1.49-1.45-.93-.05-1.37.55-1.51,1.42Z"/>
    <path class="cls-1" d="M349.9,143.48c.16.86.61,1.45,1.54,1.38.86-.07,1.48-.59,1.47-1.48-.01-1.04-.72-1.6-1.71-1.52-.89.07-1.29.74-1.3,1.62Z"/>
    <path class="cls-1" d="M359.71,70.63c.87-.05,1.59-.43,1.54-1.35-.06-1.04-.99-1.35-1.86-1.52-.85-.16-1.28.39-1.29,1.16,0,1.01.58,1.59,1.6,1.71Z"/>
    <path class="cls-1" d="M343.34,158.42c-1.02.18-1.59.68-1.5,1.58.08.88.7,1.4,1.59,1.29.72-.09,1.23-.6,1.23-1.38,0-.94-.64-1.3-1.32-1.49Z"/>
    <path class="cls-1" d="M358.35,126.72c.12.97.6,1.53,1.51,1.47.76-.04,1.24-.55,1.26-1.33.03-.79-.46-1.31-1.19-1.4-.92-.11-1.4.46-1.59,1.26Z"/>
    <path class="cls-1" d="M363.84,99.28c.79-.03,1.31-.47,1.39-1.2.1-.89-.4-1.48-1.31-1.53-.78-.05-1.3.45-1.38,1.18-.1.9.42,1.42,1.3,1.55Z"/>
    <path class="cls-1" d="M354.22,139.17c.04.81.49,1.34,1.23,1.43.91.1,1.51-.42,1.57-1.34.05-.8-.46-1.33-1.21-1.42-.91-.11-1.45.43-1.59,1.33Z"/>
    <path class="cls-1" d="M363.88,71.71c-.86.11-1.43.59-1.37,1.51.05.76.56,1.27,1.34,1.26.92,0,1.46-.57,1.4-1.49-.04-.76-.56-1.2-1.38-1.29Z"/>
    <path class="cls-1" d="M358.34,118.46c.01.79.42,1.35,1.17,1.48.93.16,1.53-.36,1.64-1.27.09-.79-.39-1.35-1.14-1.48-.93-.16-1.46.38-1.67,1.27Z"/>
    <path class="cls-1" d="M347.34,154.32c-.88.16-1.45.65-1.37,1.55.08.88.7,1.39,1.59,1.28.72-.09,1.23-.6,1.22-1.37-.01-.9-.57-1.36-1.44-1.46Z"/>
    <path class="cls-1" d="M362.5,89.74c.2.88.72,1.4,1.63,1.25.74-.13,1.21-.67,1.12-1.45-.1-.89-.69-1.4-1.61-1.24-.75.13-1.13.67-1.15,1.45Z"/>
    <path class="cls-1" d="M351.72,150.2c-.9.02-1.45.42-1.58,1.17-.16.92.36,1.52,1.26,1.63.79.1,1.33-.38,1.47-1.14.18-.95-.42-1.42-1.15-1.66Z"/>
    <path class="cls-1" d="M354.25,147.38c.01.77.4,1.31,1.14,1.44.9.15,1.49-.34,1.6-1.23.09-.77-.37-1.31-1.11-1.44-.91-.16-1.42.37-1.63,1.23Z"/>
    <path class="cls-1" d="M359.86,108.83c-1.02.19-1.6.69-1.51,1.59.09.88.71,1.41,1.6,1.29.72-.09,1.23-.61,1.23-1.39,0-.94-.65-1.31-1.33-1.49Z"/>
    <path class="cls-1" d="M363.84,82.78c.8-.04,1.33-.48,1.41-1.22.1-.9-.41-1.5-1.33-1.55-.79-.05-1.32.46-1.4,1.2-.11.91.43,1.43,1.32,1.58Z"/>
    <path class="cls-1" d="M360.84,135.11c-.04-.76-.34-1.35-1.17-1.33-.76.02-1.24.51-1.25,1.29-.02.79.47,1.29,1.22,1.33.81.04,1.17-.52,1.21-1.29Z"/>
    <path class="cls-1" d="M314.69,115.98c1.01-.15,1.36-.77,1.34-1.63-.02-.73-.34-1.34-1.13-1.43-.93-.12-1.1.59-1.15,1.29-.05.78.02,1.54.94,1.77Z"/>
    <path class="cls-1" d="M362.53,106.12c.04.78.46,1.3,1.21,1.35.81.06,1.21-.5,1.22-1.27.01-.75-.3-1.35-1.14-1.35-.77,0-1.19.5-1.29,1.27Z"/>
    <path class="cls-1" d="M351.65,158.49c-.78,0-1.33.38-1.5,1.13-.13.57.2.98.79.94.67-.04,1.47-.03,1.68-.87.18-.71-.35-1.04-.98-1.2Z"/>
    <path class="cls-1" d="M358.83,143.4c.06.54.36.88.91.89.71,0,1.04-.46.94-1.11-.08-.51-.48-.83-1.03-.75-.52.08-.83.41-.82.97Z"/>
    <path class="cls-1" d="M367.12,85.47c0,.57.32.9.87.93.57.03.9-.31.93-.86.03-.57-.31-.9-.86-.93-.57-.03-.86.32-.94.86Z"/>
    <path class="cls-1" d="M358.85,151.59c0,.58.33.91.88.94.57.03.91-.32.94-.87.03-.57-.31-.91-.87-.94-.58-.03-.87.32-.95.87Z"/>
    <path class="cls-1" d="M364.84,114.4c-.05-.55-.36-.89-.91-.9-.72-.01-1.05.45-.96,1.11.07.52.47.83,1.03.76.53-.07.84-.4.84-.96Z"/>
    <path class="cls-1" d="M367.11,93.85c.15.55.46.9,1.02.81.53-.08.87-.44.78-1-.08-.53-.44-.86-1-.78-.54.08-.81.44-.8.97Z"/>
    <path class="cls-1" d="M362.96,122.62c-.02.55.27.93.78.99.66.07,1.09-.29,1.06-.98-.02-.53-.36-.86-.91-.86-.56,0-.84.33-.94.85Z"/>
    <path class="cls-1" d="M355.65,156.69c.56-.02.9-.34.92-.88.02-.71-.42-1.06-1.09-.98-.52.06-.84.45-.78,1.01.06.54.38.85.95.85Z"/>
    <path class="cls-1" d="M362.97,130.85c-.03.57.27.93.81,1.01.57.08.93-.26,1.01-.79.09-.57-.25-.93-.79-1.01-.57-.09-.88.26-1.03.79Z"/>
    <path class="cls-1" d="M321,59.08c-.3-.3-.61-.61-.91-.91-.65-1.33,0-2.64.08-3.96,0,0,0,0,0,0h0c4.53-.95,5.76.04,4.91,3.95-.3.31-.61.62-.91.94-1.06.45-2.11.45-3.17,0Z"/>
    <path class="cls-1" d="M333.32,63.13c-.25-.25-.5-.5-.76-.76-.04-1.11-.07-2.23-.11-3.34,0,0,0,0,0,0,.29-.27.57-.54.86-.81,0,0,0,0,0,0,0,0,0,0,0,0,3.75-.27,4.52.53,4.04,4.23-.22.21-.43.42-.65.64-1.13.32-2.26.35-3.39.04Z"/>
    <path class="cls-1" d="M329.27,59.06c.16,1.09.27,2.17-.08,3.25-.29.29-.58.58-.87.87-1.06.32-2.12.32-3.18,0l-.89-.87c-.34-1.07-.26-2.14-.08-3.22,0,0,0,0,0,0,.3-.31.61-.62.91-.94,1.09.02,2.18.03,3.27.05.31.29.61.57.92.86,0,0,0,0,0,0Z"/>
    <path class="cls-1" d="M316.76,58.21c1.11-.02,2.22-.03,3.33-.05,0,0,0,0,0,0,.3.3.61.61.91.91.15,1.09.24,2.18-.09,3.25h0s0,0,0,0c-.28.27-.56.55-.85.83-1.09.31-2.19.3-3.27-.03-.25-.25-.51-.49-.76-.74,0,0,0,0,0,0,0,0,0,0,0,0-.34-1.11-.3-2.23-.05-3.35.26-.28.52-.55.78-.83,0,0,0,0,0,0Z"/>
    <path class="cls-1" d="M320.83,70.72c1.16-.02,2.32-.04,3.48-.07.25.25.49.49.74.74,0,0,0,0,0,0-.03,1.16-.06,2.32-.09,3.47-.21.21-.41.41-.62.62-1.18,0-2.36,0-3.54-.01h0s0,0,0,0c-.19-.19-.37-.38-.56-.57h0c-.01-1.18-.03-2.36-.04-3.54.21-.21.42-.43.63-.64h0Z"/>
    <path class="cls-1" d="M332.65,75.46h0c-1.19,0-2.38,0-3.57.01-.2-.2-.4-.4-.6-.6h0c-.03-1.16-.06-2.33-.09-3.49,0,0,0,0,0,0,.24-.24.48-.48.73-.73,0,0,0,0,0,0,1.17.03,2.33.06,3.5.1h0c.19.19.39.39.58.58h0c0,1.19,0,2.38-.01,3.57-.18.18-.36.37-.54.55,0,0,0,0,0,0Z"/>
    <path class="cls-1" d="M320.79,79.16c1.19-.34,2.38-.29,3.59-.09.17.17.34.34.51.51,0,0,0,0,0,0,.01,1.24.02,2.48.03,3.72,0,0,0,0,0,0,0,0,0,0,0,0-.13.13-.27.24-.41.34-3.95.32-4.55-.28-4.14-4.12.15-.11.29-.23.42-.36,0,0,0,0,0,0Z"/>
    <path class="cls-1" d="M328.52,83.31s0,0,0,0c.01-1.24.02-2.48.03-3.72l.51-.51s0,0,0,0c1.2-.21,2.4-.24,3.58.08,0,0,0,0,0,0,.14.14.28.26.43.38,0,0,0,0,0,0,.39,3.85-.2,4.44-4.15,4.12-.15-.1-.29-.22-.41-.34,0,0,0,0,0,0Z"/>
    <path class="cls-1" d="M320.8,75.47c0,1.23,0,2.46-.01,3.7,0,0,0,0,0,0,0,0,0,0,0,0-.13.13-.27.25-.42.36-1.64.17-3.43.61-4.2-1.51-.76-2.11.77-3.26,4.07-3.12h0c.19.19.37.38.56.57,0,0,0,0,0,0Z"/>
    <path class="cls-1" d="M332.65,79.15s0,0,0,0c0-1.23,0-2.46,0-3.69,0,0,0,0,0,0,.18-.18.36-.37.54-.55h0c3.29-.17,4.84.98,4.08,3.1-.76,2.13-2.54,1.7-4.19,1.52,0,0,0,0,0,0-.15-.11-.3-.24-.43-.38,0,0,0,0,0,0Z"/>
    <path class="cls-1" d="M336.77,66.7s0,0,0,0c-.02-1.2-.04-2.41-.06-3.61,0,0,0,0,0,0,.22-.21.43-.42.65-.64,1.74-.08,3.67-.43,4.13,2.01.38,2.04-1.02,2.91-4.22,2.7-.16-.15-.33-.31-.49-.46,0,0,0,0,0,0Z"/>
    <path class="cls-1" d="M316.68,66.64c1.16-.05,2.32-.1,3.48-.14.26.26.52.52.78.78h0c-.04,1.15-.07,2.3-.11,3.44-.21.21-.42.43-.63.64-3.84.18-4.34-.33-4.08-4.16.19-.19.38-.37.57-.56h0Z"/>
    <path class="cls-1" d="M332.62,70.75h0c-.03-1.17-.06-2.34-.09-3.5h0c.24-.24.48-.48.72-.72h0c1.17.06,2.35.11,3.52.17,0,0,0,0,0,0,.16.15.33.31.49.46.35,3.81-.2,4.38-4.06,4.18h0c-.19-.19-.39-.39-.58-.58h0Z"/>
    <path class="cls-1" d="M324.92,83.31c1.2-.33,2.4-.33,3.59,0,0,0,0,0,0,0,.13.13.27.24.41.34.35,2.05.58,4.29-2.36,4.18-2.71-.1-2.39-2.27-2.07-4.18,0,0,0,0,0,0,.15-.1.28-.22.41-.34,0,0,0,0,0,0Z"/>
    <path class="cls-1" d="M316.76,58.21c-.26.28-.52.55-.78.83-1.23.15-2.63.65-3.31-.89-.44-.99-.36-2.1.39-3.02,1.1-1.35,2.35-1.06,3.64-.33.35,1.13.39,2.27.07,3.41Z"/>
    <path class="cls-1" d="M316.03,62.39s0,0,0,0c.25.25.51.49.76.74,0,0,0,0,0,0-.04,1.17-.08,2.34-.11,3.51h0,0c-.19.19-.38.37-.57.56-1.82.18-3.63.45-3.67-2.31-.05-2.73,1.78-2.56,3.59-2.49Z"/>
    <path class="cls-1" d="M343.02,71.27c-1.32-.1-2.03-1.01-2.13-2.38.24-1.43,1.06-2.33,2.55-2.2,1.32.11,2.15,1,2.08,2.36-.07,1.48-1.02,2.34-2.5,2.22Z"/>
    <path class="cls-1" d="M343.04,87.74c-1.32-.13-2.01-1.03-2.09-2.37.25-1.3.99-2.18,2.34-2.11,1.47.07,2.33,1.03,2.17,2.51-.15,1.31-1.08,2.1-2.42,1.97Z"/>
    <path class="cls-1" d="M326.65,99.78c1.36-.04,2.25.78,2.32,2.11.07,1.49-.83,2.42-2.32,2.4-1.35-.02-2.06-.92-2.23-2.25.17-1.33.87-2.21,2.23-2.25Z"/>
    <path class="cls-1" d="M334.89,99.74c1.33.1,2.22.8,2.33,2.13.11,1.35-.7,2.27-2.01,2.4-1.48.14-2.43-.73-2.48-2.22-.04-1.35.84-2.09,2.16-2.31Z"/>
    <path class="cls-1" d="M343.43,99.86c1.34.14,2.14,1.06,1.98,2.44-.14,1.21-.98,1.97-2.22,1.92-1.38-.06-2.07-.95-2.18-2.29.27-1.35,1.04-2.21,2.42-2.07Z"/>
    <path class="cls-1" d="M336.77,73.15c0-1.5.9-2.26,2.36-2.42,1.45.2,2.37.99,2.3,2.48-.07,1.47-1.02,2.32-2.5,2.23-1.33-.08-2.15-.94-2.16-2.29Z"/>
    <path class="cls-1" d="M322.63,95.58c1.18.17,2.13.8,2.23,2.16.1,1.36-.7,2.29-2.03,2.41-1.49.14-2.44-.74-2.49-2.23-.04-1.36.84-2.1,2.29-2.34Z"/>
    <path class="cls-1" d="M330.71,95.62c1.37-.09,2.3.72,2.41,2.06.13,1.5-.76,2.46-2.27,2.49-1.37.03-2.11-.87-2.32-2.21.11-1.35.82-2.25,2.18-2.35Z"/>
    <path class="cls-1" d="M339.03,95.67c1.37-.05,2.25.79,2.31,2.16.06,1.38-.82,2.13-2.17,2.36-1.35-.13-2.25-.83-2.3-2.21-.05-1.38.79-2.26,2.16-2.31Z"/>
    <path class="cls-1" d="M320.71,93.61c.1,1.35-.7,2.27-2.02,2.39-1.48.14-2.43-.74-2.47-2.22-.04-1.35.84-2.08,2.16-2.31,1.33.11,2.23.8,2.33,2.14Z"/>
    <path class="cls-1" d="M326.53,91.47c1.49-.1,2.43.76,2.49,2.25.06,1.36-.78,2.24-2.1,2.34-1.5.12-2.31-.79-2.54-2.22.11-1.36.81-2.27,2.15-2.37Z"/>
    <path class="cls-1" d="M343.08,79.51c-1.35-.1-2.06-.99-2.16-2.35.21-1.34.95-2.22,2.32-2.19,1.51.04,2.38,1,2.25,2.49-.12,1.33-1.05,2.14-2.41,2.04Z"/>
    <path class="cls-1" d="M334.89,96.11c-1.17-.18-2.11-.82-2.19-2.17-.08-1.48.77-2.43,2.25-2.45,1.48-.02,2.36.91,2.31,2.39-.04,1.33-.93,2.05-2.37,2.23Z"/>
    <path class="cls-1" d="M343.31,95.98c-1.36.05-2.23-.79-2.29-2.14-.06-1.37.81-2.11,2.15-2.33,1.33.13,2.23.82,2.27,2.18.05,1.36-.79,2.23-2.14,2.28Z"/>
    <path class="cls-1" d="M322.51,87.33c1.36-.08,2.26.75,2.38,2.08.14,1.5-.76,2.33-2.2,2.58-1.38-.09-2.3-.79-2.41-2.13-.12-1.49.73-2.45,2.22-2.53Z"/>
    <path class="cls-1" d="M330.75,87.31c1.51-.03,2.44.86,2.41,2.37-.03,1.5-1.01,2.37-2.51,2.27-1.35-.09-2.06-1.01-2.18-2.5.23-1.16.89-2.11,2.28-2.14Z"/>
    <path class="cls-1" d="M339.1,87.37c1.51.03,2.39.98,2.27,2.48-.1,1.34-1.03,2.15-2.4,2.06-1.36-.09-2.06-.98-2.18-2.33.21-1.34.94-2.23,2.3-2.21Z"/>
    <path class="cls-1" d="M339.19,79.01c1.21.2,2.15.85,2.22,2.21.07,1.49-.8,2.42-2.29,2.46-1.36.03-2.23-.81-2.31-2.15-.09-1.51.83-2.3,2.39-2.52Z"/>
    <path class="cls-1" d="M318.39,83.21c1.5-.02,2.41.88,2.36,2.37-.05,1.49-1.03,2.34-2.51,2.22-1.33-.11-2.03-1.02-2.12-2.37.2-1.32.91-2.21,2.27-2.22Z"/>
    <path class="cls-1" d="M334.91,83.18c1.52-.03,2.28.92,2.44,2.37-.2,1.37-.93,2.26-2.3,2.28-1.51.02-2.41-.89-2.39-2.4.02-1.36.89-2.22,2.25-2.25Z"/>
    <path class="cls-1" d="M318.39,99.83c1.35-.05,2.22.78,2.27,2.13.05,1.36-.81,2.09-2.14,2.32-1.32-.13-2.21-.82-2.26-2.18-.04-1.35.78-2.22,2.13-2.27Z"/>
    <path class="cls-1" d="M314.3,70.79c1.49-.02,2.35.87,2.36,2.35,0,1.34-.82,2.19-2.14,2.29-1.48.11-2.02-.85-2.03-2.21-.02-1.28.28-2.4,1.81-2.43Z"/>
    <path class="cls-1" d="M314.45,79.07c1.3.2,2.17.94,2.15,2.32-.02,1.37-.86,2.23-2.23,2.25-1.56.01-1.91-1.11-1.88-2.43.03-1.26.57-2.06,1.95-2.14Z"/>
    <path class="cls-1" d="M314.63,87.47c1.24.08,1.95.96,1.93,2.2-.02,1.23-.76,2.08-2,2.14-1.38.07-1.44-1.04-1.5-2.12.07-1.02-.05-2.32,1.56-2.22Z"/>
    <path class="cls-1" d="M314.43,95.78c1.25-.04,2.01.79,2.08,2.01.06,1.22-.6,2.12-1.87,2.19-1.33.07-1.5-.98-1.55-2.02.03-.99-.03-2.13,1.34-2.18Z"/>
    <path class="cls-1" d="M343.21,63.05c-1.22-.05-1.98-.71-2.21-1.91.15-.98.81-1.14,1.51-.84.92.38,2.41.17,2.46,1.6.03.89-.94,1.18-1.76,1.15Z"/>
    <path class="cls-1" d="M329.21,67.27c-.27-.26-.53-.52-.8-.77-.03-1.11-.07-2.21-.1-3.32,0,0,0,0,0,0,.29-.29.58-.58.87-.87,1.13.02,2.26.05,3.38.07h0c.25.25.5.5.76.76.21,1.14.29,2.27-.07,3.4-.24.24-.48.48-.72.72-1.1.33-2.21.34-3.32.02Z"/>
    <path class="cls-1" d="M320.07,63.16s0,0,0,0c.28-.28.57-.55.85-.83h0c1.11,0,2.22-.02,3.33-.02l.89.87c.14,1.1.24,2.21-.09,3.3,0,0,0,0,0,0h0c-.28.27-.55.54-.83.81-1.09.31-2.18.31-3.27-.02-.26-.26-.52-.52-.78-.78-.36-1.1-.26-2.22-.1-3.33Z"/>
    <path class="cls-1" d="M324.21,67.29s0,0,0,0c.28-.27.55-.54.83-.81h0c1.12,0,2.25.01,3.37.02.27.26.53.52.8.77.18,1.13.26,2.26-.09,3.38-.24.24-.48.48-.73.73-1.12.32-2.23.33-3.35,0-.25-.25-.49-.49-.74-.74-.35-1.11-.26-2.24-.1-3.36Z"/>
    <path class="cls-1" d="M328.49,74.88c.2.2.4.4.6.6h0c0,1.2-.01,2.4-.02,3.6,0,0,0,0,0,0,0,0,0,0,0,0l-.51.51c-1.22,0-2.44,0-3.67,0h0s0,0,0,0c-.17-.17-.34-.34-.51-.51-.01-1.2-.03-2.4-.04-3.6h0c.21-.21.41-.41.62-.62,1.18,0,2.35.01,3.53.02Z"/>
  </g>
</svg>