<svg xmlns="http://www.w3.org/2000/svg" width="18" height="17" viewBox="0 0 18 17">
    <g data-name="그룹 54">
        <path data-name="패스 1794" d="M36 12h10.529" transform="translate(-33.399 -11.5)" style="fill:none;stroke:#ebac64;stroke-linecap:round"/>
        <path data-name="패스 1795" d="M158.108 14.105A2.105 2.105 0 0 0 156 12" transform="translate(-142.872 -11.5)" style="stroke-linejoin:round;fill:none;stroke:#ebac64;stroke-linecap:round"/>
        <path data-name="패스 1796" d="M12 14.105A2.105 2.105 0 0 1 14.109 12" transform="translate(-11.504 -11.5)" style="stroke-linejoin:round;fill:none;stroke:#ebac64;stroke-linecap:round"/>
        <path data-name="패스 1797" d="M12 120a2.105 2.105 0 0 0 2.105 2.105" transform="translate(-11.504 -110.027)" style="stroke-linejoin:round;fill:none;stroke:#ebac64;stroke-linecap:round"/>
        <path data-name="패스 1798" d="M158.108 120a2.105 2.105 0 0 1-2.108 2.105" transform="translate(-142.872 -110.027)" style="stroke-linejoin:round;fill:none;stroke:#ebac64;stroke-linecap:round"/>
        <path data-name="패스 1799" d="M12 36v7.368" transform="translate(-11.504 -33.395)" style="stroke-linejoin:round;fill:none;stroke:#ebac64;stroke-linecap:round"/>
        <path data-name="패스 1800" d="M180 36v7.368" transform="translate(-164.767 -33.395)" style="stroke-linejoin:round;fill:none;stroke:#ebac64;stroke-linecap:round"/>
        <path data-name="패스 1801" d="M36 144h2.105l3.158 3.158L44.425 144h2.105" transform="translate(-33.399 -131.921)" style="stroke-linejoin:round;fill:none;stroke:#ebac64;stroke-linecap:round"/>
    </g>
</svg>
