<svg data-name="3rd-place-medal" xmlns="http://www.w3.org/2000/svg" width="24.284" height="40.484" viewBox="0 0 24.284 40.484">
    <path data-name="패스 1905" d="M85.246 5.854c-.357.318-3.137 5.834-3.137 5.834l-2.069 8.343 8.048-.738s6.695-12.45 6.831-12.738c.242-.523.371-.738-.553-.738s-8.786-.261-9.121.036z" transform="translate(-70.819 -5.534)" style="fill:#176cc7"/>
    <path data-name="패스 1906" d="M77.96 64.1c-.4-.215-12.2-.4-12.473 0a6.072 6.072 0 0 0-.013 2.5c.172.4 3.981 2.128 3.981 2.128l-.073.788a17.406 17.406 0 0 0 2.525.079 15.261 15.261 0 0 0 2.651-.113l.007-.712s3.429-1.668 3.6-1.9c.146-.192.2-2.558-.205-2.773zm-3.512 3.02s.109-.486-.119-.6-4.147-.063-4.458-.046-.311.573-.311.573l-2.469-1.271-.046-.473 9.366.066-.033.447z" transform="translate(-59.367 -50.859)" style="fill:#f79429"/>
    <path data-name="패스 1907" d="M87.16 77.835c-.311 0-.49.324-.49.884 0 .523.179.963.573.93.324-.026.437-.523.407-.963-.03-.527-.096-.851-.49-.851z" transform="translate(-75.987 -61.746)" style="fill:#fdffff"/>
    <path data-name="패스 1908" d="M43.965 98.643c0 7.929 7.185 11.229 11.953 11.086 5.556-.165 11.533-4.382 11.04-11.947-.463-7.1-6.44-10.355-11.662-10.319-6.069.047-11.331 4.253-11.331 11.18z" transform="translate(-42.703 -69.25)" style="fill:#f79429"/>
    <path data-name="패스 1909" d="M61.9 113.676h-.252a10.283 10.283 0 0 1-6.728-2.866 9.7 9.7 0 0 1-2.959-7.079c.03-6.6 5.8-9.663 9.716-9.663h.033a9.778 9.778 0 0 1 9.783 9.736 9.2 9.2 0 0 1-2.74 6.93 10.393 10.393 0 0 1-6.853 2.942zm-.228-18.513c-3.511 0-8.7 2.873-8.717 8.565a8.869 8.869 0 0 0 8.776 8.816 8.538 8.538 0 0 0 8.77-8.727 8.816 8.816 0 0 0-8.783-8.654c-.01-.007-.036 0-.046 0z" transform="translate(-48.934 -74.395)" style="fill:#d25116"/>
    <path data-name="패스 1910" d="M60.018 91.732c-.228-.314-2.568-.225-5.087 1.943-2.5 2.154-2.876 4.537-2.426 4.663.513.142 1.138-2.161 3.3-4.1 1.986-1.771 4.666-1.883 4.213-2.509z" transform="translate(-49.232 -72.472)" style="fill:#fefffa"/>
    <path data-name="패스 1911" d="M114.879 131.453c-.8.113.03 2.5-1.82 5.176-1.605 2.32-3.425 3.16-3.213 3.67.285.682 3.2-1.016 4.55-3.783 1.221-2.505 1.075-5.149.483-5.063z" transform="translate(-94.036 -103.533)" style="fill:#fefffa"/>
    <path data-name="패스 1912" d="M38.251 5.057c-.208.192 7.764 14.389 7.764 14.389a41.386 41.386 0 0 0 4.322.2 35.3 35.3 0 0 0 4.464-.172S48.6 5.2 48.232 5.057c-.182-.073-2.638-.1-5.037-.126a26.8 26.8 0 0 0-4.944.126z" transform="translate(-38.247 -4.91)" style="fill:#2e9df4"/>
    <text data-name="3" transform="translate(8.76 32.625)" style="font-size:12px;font-family:SFCompactText-Bold,SF Compact Text;font-weight:700;letter-spacing:-.005em;fill:#d25116"><tspan x="0" y="0">3</tspan></text>
</svg>
