<svg data-name="그룹 99" xmlns="http://www.w3.org/2000/svg" width="213.821" height="174.749" viewBox="0 0 213.821 174.749">
    <defs>
        <clipPath id="0wkwflx73a">
            <path data-name="사각형 51" style="fill:none" d="M0 0h213.821v174.749H0z"/>
        </clipPath>
    </defs>
    <g data-name="그룹 98" style="clip-path:url(#0wkwflx73a)">
        <path data-name="패스 1865" d="M187.359.037c8.7.154 13.017.71 20.058 6.2 10.722 8.359 5.317 11.94 2.735 22.428-4.942 20.081-10.23 40.041-14.952 60.174-1.133 2.828-7.363 5.357-7.658 6.2-1.441 4.114 1.151 17.23-.365 22.976-.921 3.495-27.384 28.715-32.093 33.552-7.194 7.389-14.223 14.988-20.969 22.793-3 1.242-13.608-.863-17.505-1.094-35.661-2.112-74.949-2.954-110.137-6.929-1.652-.187-5.244-.176-6.017-1.641-1.435-2.72 1.077-24.5 0-29.175l1.824-4.376 61.266-45.224c-4.654-2.538-6.384-3.751-5.835-9.482 6.265-18.493 7.915-40.434 13.858-58.715 2.368-7.285 3.367-5.155 10.211-6.2-.937-5.861-3.3-9.2 4.194-10.029 9.835-1.089 38.467-1.614 47.774 0 4.689.813 4.788 4.225 8.752-1.094 14.916.59 29.97-.628 44.857-.365" style="fill:#d1bdac"/>
        <path data-name="패스 1866" d="M309.063 188.13c.5.034.61.2.912.547l-.364 18.6-47.592 49.051c-.083-7.547-.933-15.422.912-22.793 5.9-4.5 42.9-45.624 46.133-45.4" transform="translate(-125.715 -90.356)" style="fill:#fff"/>
        <path data-name="패스 1867" d="M307.379 207.055c.343.044.835-.167 1.094.182.036.049-.627-.213-.365.912L291.7 222.554l.912.182 15.5-12.764c1.148.361.484 1.005.365 1.823l-12.4 9.665c.138 1.207 1.561.068 2.006-.182.654-.368 9.262-7.191 9.665-7.658 1.786-.124.809.426.729 1.459-2.531 1.525-6.738 3.986-8.388 6.382-.476.691-.788 1.319.364 1.276-12.705 12.967-24.417 27.009-37.38 39.751-1.111-.151-.786-16.046.912-17.687 12.842-11.82 24.177-25.428 36.834-37.38-.064.309.468.46.365.729-.058.15-1.3.8 0 1.824-.385.35-7.412 6.491-4.923 6.565 2.772-3.816 8.036-6.414 11.123-9.482" transform="translate(-126.037 -99.434)" style="fill:#cd3d3f"/>
        <path data-name="패스 1868" d="m335.164 211.006-15.5 12.764-.912-.182 16.411-14.405c.027.114 1.691-.175 0 1.824" transform="translate(-153.093 -100.467)" style="fill:#ebac64"/>
        <path data-name="패스 1869" d="M338.155 204.7c-3.087 3.068-8.351 5.666-11.123 9.482-2.489-.074 4.538-6.214 4.923-6.565.763-.694 6.316-5.42 6.747-5.47 2.106-.25-.038 2.047-.547 2.553" transform="translate(-156.813 -97.08)" style="fill:#ebac64"/>
        <path data-name="패스 1870" d="M339.572 216.2c-.144.986.21.731-.729 1.824-.4.467-9.011 7.291-9.665 7.659-.444.25-1.867 1.39-2.006.182z" transform="translate(-157.137 -103.838)" style="fill:#ebac64"/>
        <path data-name="패스 1871" d="M342.884 222.515c-.157 2.045-6.006 5.6-8.023 7.658-1.152.043-.84-.586-.364-1.276 1.65-2.4 5.857-4.857 8.388-6.382" transform="translate(-160.448 -106.871)" style="fill:#ebac64"/>
        <path data-name="패스 1872" d="M336.655 202.762c.1-.269-.429-.42-.365-.729.664-.627 6.849-7.468 7.659-6.018z" transform="translate(-161.513 -94.047)" style="fill:#ebac64"/>
        <path data-name="패스 1873" d="m7.908 270.933 53.61 1.094c.792.331 1.495 8.308 5.835 10.211 5.967 2.617 10.659-1.335 12.4-6.929l56.162.729.547 23.522-.912 1.276-128.007-8.751z" transform="translate(-3.623 -130.125)" style="fill:#fff"/>
        <path data-name="패스 1874" d="M234.736 286.87c-4.48.466-9.217-.494-13.676.729l-.547-1.823c3.167.042 13.538-1.176 15.864-.365.693.242.7 1.076 0 1.459-.542.037-1.108-.056-1.641 0" transform="translate(-105.909 -136.945)" style="fill:#ebac64"/>
        <path data-name="패스 1875" d="m119.355 281.315.547 1.824c4.459-1.224 9.2-.264 13.676-.73 1.161.5 1.315 1.515 1.823 2.188-2.839.487-8.644-1.192-11.123-.364-.566.189-.785.148-.547.912.355 1.138 10.751.27 12.4.547.367 1.729.808 14.512-.182 14.952l-118.707-8.023c1.638-1.884-8.165-3.3-7.294-.729l.182-16.047 51.057 1.094c2.493 11.952 14.735 15.556 20.423 3.647 12.6-.469 25.183.564 37.745.729" transform="translate(-4.752 -132.485)" style="fill:#cd3d3f"/>
        <path data-name="패스 1876" d="M240.515 292.133c.629.833.456-.19.729 1.094-1.649-.276-12.044.591-12.4-.547-.238-.763-.019-.723.547-.912 2.479-.827 8.284.852 11.123.365" transform="translate(-109.866 -140.02)" style="fill:#ebac64"/>
        <path data-name="패스 1877" d="m17.242 306.158-7.294-.729c-.871-2.572 8.931-1.155 7.294.729" transform="translate(-4.752 -146.022)" style="fill:#ebac64"/>
        <path data-name="패스 1878" d="M235.594 297.473c1.66-.116 5.441-.5 6.382.912-.122.719-9.7.772-10.394.547-2.353-.763 3.573-1.428 4.012-1.459" transform="translate(-110.961 -142.807)" style="fill:#ebac64"/>
        <path data-name="패스 1879" d="M241.775 302.449c.782-.262 5.178.248 5.288 1.641-.241.918-6.136.144-6.2-.73.29-.186.684-.835.912-.912" transform="translate(-115.683 -145.23)" style="fill:#ebac64"/>
        <path data-name="패스 1880" d="m17.359 300.4 5.653 1.276c0 1.113-5.926.224-5.653-1.276" transform="translate(-8.333 -144.28)" style="fill:#ebac64"/>
        <path data-name="선 5" transform="translate(200.67 6.602)" style="stroke-linejoin:round;stroke:#cd3d3f;stroke-linecap:round;stroke-width:2px;fill:none" d="m0 0 9.117 7.659"/>
        <path data-name="패스 1881" d="M128.138 97.826c2.531-2.033 12.584-55.958 15.317-63.091.228-2.447-8.171-3.187-9.045-2.48-2.547 2.064-12.192 54.14-15.025 61.195-1.045 2.839 7.686 5.234 8.753 4.376z" transform="translate(-57.298 -15.369)" style="stroke-linejoin:round;stroke:#cd3d3f;stroke-linecap:round;stroke-width:2px;fill:none"/>
        <path data-name="선 6" transform="translate(64.619 91.211)" style="stroke-linejoin:round;stroke:#cd3d3f;stroke-linecap:round;stroke-width:2px;fill:none" d="m0 0 .773 12.763"/>
        <path data-name="패스 1882" d="m213.06 17.234-3.3-8.676a.779.779 0 0 1 .451-1.006c.206-.18 47.232.27 47.486.2 3.18.853 3.761 4.72 6.028 6.631 2.859 2.822 7.651 4.484 8.513 8.948a10.645 10.645 0 0 1-.153 3.855c-1.518 6.994-3.285 13.975-5.2 20.864-4.264 14.811-8.669 29.7-13.46 44.251-2.963 2.331-6.653 4.372-10.6 4.359-28.732-.708-78.868-1.948-108.05-2.668l.271-.042c-.657.406-.767 1.385-.9 2.152a43.9 43.9 0 0 0-.1 6.4 19.433 19.433 0 0 1-.1 3.426l-.77-.923 35.167-.179-.234.037a3.946 3.946 0 0 0 1.837-1.4 11.138 11.138 0 0 1 3.18-3.068 14.269 14.269 0 0 1 10.03-1.307 13.4 13.4 0 0 1 5.366 2.406 1.435 1.435 0 0 1-.275 2.2 4.676 4.676 0 0 0-.688-.969 13.378 13.378 0 0 0-9.983-2.261 9.961 9.961 0 0 0-4.682 2c-1.349 1.192-2.35 3.347-4.309 3.891-.208.106-35.167.179-35.4.216a.782.782 0 0 1-.77-.923 19.019 19.019 0 0 0 .075-3.1c.061-2.391-.858-9.512 2.326-10.113 27.609.6 77.164 1.963 104.275 2.576l3.724.092a12.462 12.462 0 0 0 3.445-.546 20.2 20.2 0 0 0 6.223-3.494l-.274.4c4.375-14.633 9.1-29.141 13.178-43.825 1.776-6.407 3.445-12.885 4.87-19.381l.309-1.393c.07-.444.155-.882.2-1.321l.028-.653c0-.108.015-.218.011-.325l-.031-.317c-.026-.21-.027-.426-.069-.631l-.151-.605c-.885-2.644-3.421-3.911-5.624-5.608a14.87 14.87 0 0 1-4.192-4.251 14.841 14.841 0 0 0-2.331-3.3 3.452 3.452 0 0 0-.972-.58l.254.044-47.2-.25.73-1.067 3.3 8.676a.78.78 0 0 1-1.457.554" transform="translate(-63.589 -3.607)" style="fill:#cd3d3f"/>
        <path data-name="선 7" transform="translate(5.196 135.695)" style="stroke-linejoin:round;stroke:#cd3d3f;stroke-linecap:round;stroke-width:2px;fill:none" d="M19.329.379 0 0"/>
        <path data-name="패스 1883" d="M273.166 198.14a4.026 4.026 0 0 0-2.495-1.073c-9.916-1.14-22.242 1.151-32.458-.219-2.4.877-2.676 7.3-8.388 6.929-5.645-.367-4.657-6.633-6.564-7.8-1.227-.753-6.066.025-7.655.194" transform="translate(-103.553 -93.968)" style="stroke-linejoin:round;stroke:#cd3d3f;stroke-linecap:round;stroke-width:2px;fill:none"/>
        <path data-name="패스 1884" d="M223.548 13.95c-5.622-.875-10.3-3.2-16.051-3.66-5.571-.445-35.4-.552-39.751.365-4.658.981-2.094 7.15 3.282 7.659 6.862.649 35.833 1.153 41.939.219 3.418-.523 7.271-3.454 10.581-4.583z" transform="translate(-79.4 -4.782)" style="stroke-linejoin:round;stroke:#cd3d3f;stroke-linecap:round;stroke-width:2px;fill:none"/>
        <path data-name="패스 1885" d="M277.289 17.64c-.715 5.7 3.679 14.6 6.053 4.183" transform="translate(-133.141 -8.472)" style="stroke-linejoin:round;stroke:#cd3d3f;stroke-linecap:round;stroke-width:2px;fill:none"/>
        <path data-name="선 8" transform="translate(150.201 13.165)" style="stroke-linejoin:round;stroke:#cd3d3f;stroke-linecap:round;stroke-width:2px;fill:none" d="M49.375 0 0 .186"/>
        <path data-name="패스 1886" d="M0 27.9 34.449 0" transform="translate(30.169 107.425)" style="stroke:#cd3d3f;stroke-linecap:round;stroke-width:2px;fill:none"/>
    </g>
</svg>
