<svg xmlns="http://www.w3.org/2000/svg" width="16.596" height="15.874" viewBox="0 0 16.596 15.874">
    <path data-name="패스 1860" d="M15.6 5.764a.678.678 0 0 1-.244.45l-3.4 3.318.806 4.686a1.417 1.417 0 0 1 .009.187.552.552 0 0 1-.1.333.331.331 0 0 1-.286.136.758.758 0 0 1-.375-.112L7.8 12.55l-4.21 2.211a.8.8 0 0 1-.375.112.341.341 0 0 1-.3-.136.552.552 0 0 1-.1-.333 1.522 1.522 0 0 1 .019-.187l.806-4.686L.234 6.214A.714.714 0 0 1 0 5.764q0-.347.525-.431l4.7-.684L7.339.384Q7.517 0 7.8 0t.459.384l2.109 4.264 4.7.684q.532.085.532.432z" transform="translate(.5 .5)" style="fill:#ebac64;stroke:#ebac64;stroke-linecap:round;stroke-linejoin:round"/>
</svg>
